<svg xmlns="http://www.w3.org/2000/svg" id='awsome_strengths' class="adobe_illustrator" viewBox="0 0 600 600">
    <g id="hex_im" class='hex input'>
        <path id="outline_27_" d="M233.143,325.969l60.201-33.607v-67.336l-60.203-33.605l-60.203,33.605v67.336L233.143,325.969z
            M177.32,227.598l55.82-31.16l55.822,31.16v62.191l-55.82,31.16l-55.822-31.16V227.598z"/>
        <polygon id="background_41_" fill="#1FEAFF" points="288.962,289.79 288.962,227.599 233.14,196.438 177.318,227.599 
            177.318,289.79 233.142,320.95 	"/>
        <g>
            <path d="M212.607,263.973h-6.176v-0.612c0.142-0.011,0.35-0.026,0.624-0.047s0.464-0.052,0.568-0.094
                c0.194-0.078,0.326-0.182,0.396-0.31c0.071-0.128,0.106-0.292,0.106-0.491v-7.894c0-0.178-0.034-0.334-0.103-0.471
                c-0.067-0.136-0.201-0.246-0.4-0.33c-0.125-0.052-0.311-0.106-0.557-0.161c-0.246-0.055-0.458-0.093-0.636-0.114v-0.612h6.176
                v0.612c-0.157,0.016-0.354,0.038-0.589,0.066c-0.235,0.029-0.435,0.07-0.597,0.122c-0.204,0.068-0.34,0.174-0.408,0.317
                c-0.067,0.144-0.102,0.308-0.102,0.491v7.885c0,0.188,0.035,0.35,0.105,0.483c0.071,0.133,0.206,0.242,0.404,0.326
                c0.11,0.047,0.292,0.093,0.546,0.137c0.253,0.044,0.467,0.072,0.64,0.083V263.973z"/>
            <path d="M226.433,253.451c-0.146,0.016-0.355,0.044-0.628,0.086c-0.271,0.042-0.518,0.144-0.737,0.306
                c-0.193,0.142-0.331,0.383-0.412,0.726s-0.121,0.846-0.121,1.51v7.957h-1.397l-6.936-8.608v5.226c0,0.648,0.043,1.142,0.129,1.479
                c0.087,0.337,0.227,0.584,0.42,0.741c0.142,0.115,0.366,0.217,0.675,0.306s0.555,0.149,0.737,0.181v0.612h-4.786v-0.612
                c0.204-0.016,0.438-0.054,0.702-0.114c0.265-0.06,0.485-0.153,0.663-0.279c0.204-0.151,0.344-0.38,0.42-0.687
                s0.114-0.82,0.114-1.542v-5.272c0-0.262-0.041-0.509-0.122-0.742c-0.081-0.232-0.208-0.433-0.381-0.6
                c-0.183-0.178-0.394-0.318-0.631-0.42c-0.238-0.102-0.509-0.182-0.813-0.239v-0.628h4.191l6.087,7.53v-4.212
                c0-0.669-0.044-1.167-0.133-1.494c-0.089-0.327-0.23-0.569-0.424-0.726c-0.151-0.12-0.377-0.224-0.675-0.31
                c-0.298-0.086-0.539-0.145-0.722-0.176v-0.612h4.778V253.451z"/>
            <path d="M237.566,255.624c0,0.628-0.13,1.168-0.389,1.62c-0.259,0.453-0.616,0.82-1.071,1.103
                c-0.471,0.293-1.008,0.505-1.612,0.636s-1.283,0.196-2.036,0.196h-0.91v3.13c0,0.188,0.035,0.352,0.105,0.491
                c0.071,0.139,0.206,0.25,0.404,0.333c0.104,0.042,0.274,0.086,0.51,0.133c0.235,0.047,0.435,0.078,0.597,0.094v0.612h-6.034
                v-0.612c0.152-0.016,0.354-0.038,0.604-0.067s0.427-0.064,0.525-0.106c0.204-0.083,0.339-0.186,0.404-0.306
                c0.065-0.12,0.099-0.288,0.099-0.502v-7.854c0-0.183-0.032-0.341-0.095-0.475s-0.198-0.244-0.408-0.333
                c-0.146-0.063-0.341-0.119-0.584-0.168s-0.425-0.083-0.546-0.098v-0.612h6.145c1.438,0,2.513,0.229,3.225,0.687
                C237.21,253.983,237.566,254.683,237.566,255.624z M234.506,256.024c0-0.837-0.169-1.458-0.506-1.864
                c-0.338-0.405-0.938-0.608-1.801-0.608h-0.651v4.888h0.329c0.858,0,1.511-0.197,1.958-0.592S234.506,256.846,234.506,256.024z"/>
            <path d="M251.219,253.451c-0.151,0.016-0.37,0.051-0.655,0.106c-0.285,0.055-0.524,0.15-0.718,0.286
                c-0.199,0.131-0.339,0.366-0.42,0.707c-0.081,0.34-0.121,0.85-0.121,1.53v4.143c0,1.219-0.414,2.2-1.24,2.942
                s-1.92,1.114-3.279,1.114c-1.585,0-2.813-0.358-3.681-1.075c-0.868-0.716-1.302-1.715-1.302-2.997v-5.697
                c0-0.183-0.036-0.34-0.106-0.471s-0.205-0.249-0.404-0.353c-0.136-0.068-0.303-0.123-0.502-0.165
                c-0.198-0.042-0.36-0.071-0.486-0.086v-0.597h5.838v0.597c-0.168,0.01-0.338,0.03-0.51,0.059
                c-0.173,0.029-0.349,0.072-0.526,0.129c-0.198,0.063-0.332,0.167-0.4,0.314c-0.067,0.146-0.102,0.312-0.102,0.495v5.618
                c0,1.104,0.243,1.907,0.729,2.409c0.486,0.502,1.191,0.753,2.116,0.753c0.908,0,1.622-0.277,2.139-0.832
                c0.518-0.554,0.775-1.371,0.775-2.448v-3.774c0-0.669-0.045-1.17-0.137-1.502c-0.092-0.333-0.231-0.572-0.42-0.718
                c-0.136-0.115-0.373-0.22-0.71-0.314c-0.338-0.094-0.574-0.151-0.71-0.172v-0.612h4.833V253.451z"/>
            <path d="M262.141,256.024h-0.612c-0.161-0.476-0.421-0.986-0.778-1.53s-0.688-0.837-0.99-0.879
                c-0.167-0.021-0.373-0.039-0.618-0.055c-0.246-0.016-0.457-0.023-0.635-0.023h-0.368v8.733c0,0.188,0.034,0.354,0.103,0.498
                c0.067,0.144,0.201,0.258,0.4,0.341c0.12,0.047,0.307,0.096,0.561,0.146s0.47,0.085,0.647,0.106v0.612h-6.206v-0.612
                c0.151-0.016,0.364-0.038,0.639-0.067c0.275-0.029,0.462-0.064,0.562-0.106c0.204-0.083,0.34-0.196,0.408-0.337
                c0.067-0.141,0.102-0.309,0.102-0.502v-8.812h-0.368c-0.177,0-0.389,0.008-0.634,0.023s-0.451,0.034-0.618,0.055
                c-0.303,0.042-0.633,0.335-0.99,0.879s-0.617,1.054-0.779,1.53h-0.612v-3.186h10.789V256.024z"/>
        </g>
        <line fill="none" stroke="#000000" stroke-width="4" stroke-miterlimit="10" x1="180" y1="244" x2="284" y2="244"/>
        <line fill="none" stroke="#000000" stroke-width="4" stroke-miterlimit="10" x1="180" y1="272" x2="284" y2="272"/>
    </g>
    <g id="hex_ma" class='hex maximizer'>
        <path id="outline_26_" d="M299.143,434.969l60.201-33.607v-67.336l-60.203-33.605l-60.203,33.605v67.336L299.143,434.969z
            M243.32,336.598l55.82-31.16l55.822,31.16v62.191l-55.82,31.16l-55.822-31.16V336.598z"/>
        <polygon id="background_40_" fill="#FF1400" points="354.962,398.79 354.962,336.599 299.14,305.438 243.318,336.599 
            243.318,398.79 299.142,429.95 	"/>
        <g>
            <path d="M260.779,372.973h-6.034v-0.611c0.178-0.017,0.396-0.043,0.655-0.079s0.436-0.075,0.53-0.118
                c0.193-0.078,0.332-0.186,0.415-0.321c0.084-0.136,0.126-0.309,0.126-0.519v-8.316l-3.829,9.784h-0.988
                c-0.047-0.173-0.164-0.515-0.35-1.028c-0.186-0.512-0.336-0.922-0.451-1.231l-2.816-7.649v6.771c0,0.648,0.043,1.141,0.129,1.479
                c0.087,0.338,0.227,0.584,0.42,0.741c0.131,0.11,0.365,0.215,0.702,0.313c0.338,0.1,0.574,0.157,0.71,0.174v0.611h-4.786v-0.611
                c0.131-0.017,0.344-0.052,0.64-0.106c0.296-0.056,0.537-0.15,0.726-0.286c0.209-0.146,0.351-0.395,0.424-0.742
                s0.11-0.844,0.11-1.486v-5.516c0-0.336-0.042-0.613-0.126-0.836s-0.209-0.399-0.377-0.529c-0.209-0.162-0.423-0.268-0.643-0.314
                s-0.442-0.078-0.667-0.094v-0.613h5.13l2.745,7.336l2.313-5.953c0.079-0.22,0.154-0.481,0.228-0.785s0.112-0.502,0.118-0.598
                h4.932v0.613c-0.167,0.01-0.343,0.031-0.525,0.063c-0.184,0.031-0.358,0.073-0.526,0.125c-0.204,0.068-0.339,0.176-0.403,0.322
                c-0.065,0.146-0.099,0.309-0.099,0.486v7.885c0,0.189,0.033,0.348,0.099,0.476c0.064,0.128,0.199,0.239,0.403,0.333
                c0.104,0.047,0.276,0.092,0.515,0.134c0.237,0.042,0.422,0.07,0.553,0.087V372.973z"/>
            <path d="M274.009,372.973h-6.065v-0.611c0.282-0.021,0.613-0.072,0.994-0.154c0.382-0.08,0.572-0.182,0.572-0.301
                c0-0.043-0.004-0.09-0.012-0.143c-0.008-0.052-0.03-0.122-0.067-0.211l-0.949-2.307h-3.844c-0.089,0.214-0.187,0.465-0.293,0.753
                s-0.199,0.544-0.276,0.769c-0.1,0.293-0.158,0.505-0.176,0.636c-0.019,0.131-0.028,0.223-0.028,0.274
                c0,0.168,0.127,0.311,0.381,0.428c0.253,0.117,0.676,0.203,1.266,0.256v0.611h-4.566v-0.611c0.173-0.012,0.367-0.039,0.585-0.083
                c0.217-0.044,0.388-0.106,0.514-0.185c0.214-0.125,0.396-0.279,0.545-0.463c0.149-0.184,0.273-0.4,0.373-0.651
                c0.606-1.47,1.215-2.942,1.824-4.417c0.609-1.476,1.283-3.102,2.021-4.881h1.569c1.025,2.521,1.828,4.515,2.409,5.979
                c0.58,1.465,1.074,2.679,1.482,3.641c0.068,0.158,0.154,0.301,0.259,0.428c0.104,0.129,0.254,0.25,0.447,0.365
                c0.146,0.084,0.316,0.146,0.511,0.188c0.193,0.042,0.368,0.067,0.525,0.079V372.973z M268.158,368.469l-1.611-4.024l-1.588,4.024
                H268.158z"/>
            <path d="M286.587,372.973H279.8v-0.611c0.648-0.037,1.067-0.094,1.256-0.17c0.188-0.075,0.283-0.176,0.283-0.302
                c0-0.067-0.034-0.177-0.103-0.325c-0.067-0.149-0.162-0.32-0.282-0.514c-0.183-0.309-0.428-0.695-0.733-1.157
                c-0.307-0.463-0.624-0.94-0.953-1.433c-1.099,1.271-1.795,2.116-2.09,2.535c-0.296,0.418-0.443,0.695-0.443,0.831
                c0,0.073,0.012,0.135,0.035,0.185c0.023,0.049,0.085,0.098,0.185,0.145c0.073,0.043,0.198,0.082,0.376,0.118
                s0.389,0.065,0.633,0.087v0.611h-4.323v-0.611c0.226-0.017,0.404-0.04,0.538-0.071s0.266-0.075,0.396-0.134
                c0.304-0.141,0.574-0.32,0.81-0.537s0.479-0.469,0.73-0.758c0.366-0.412,0.779-0.881,1.239-1.404s0.943-1.08,1.45-1.672
                c-0.48-0.727-0.961-1.433-1.442-2.117c-0.48-0.686-0.888-1.27-1.223-1.75c-0.167-0.24-0.375-0.481-0.624-0.723
                c-0.249-0.24-0.51-0.412-0.782-0.518c-0.136-0.057-0.288-0.105-0.456-0.145c-0.167-0.039-0.369-0.066-0.605-0.082v-0.613h6.804
                v0.613c-0.529,0.021-0.92,0.067-1.174,0.141s-0.381,0.184-0.381,0.33c0,0.072,0.025,0.166,0.075,0.278s0.147,0.288,0.294,0.528
                c0.126,0.209,0.32,0.516,0.585,0.918s0.564,0.859,0.898,1.371c0.987-1.176,1.607-1.942,1.86-2.301
                c0.253-0.357,0.38-0.602,0.38-0.732c0-0.152-0.073-0.266-0.219-0.342c-0.146-0.076-0.488-0.14-1.025-0.191v-0.613h4.339v0.613
                c-0.198,0.005-0.362,0.023-0.49,0.055s-0.275,0.081-0.443,0.148c-0.324,0.146-0.596,0.327-0.815,0.541
                c-0.22,0.215-0.461,0.467-0.722,0.754c-0.388,0.43-0.758,0.848-1.111,1.254s-0.786,0.902-1.299,1.489
                c0.633,0.951,1.175,1.748,1.625,2.391c0.449,0.644,0.876,1.247,1.279,1.811c0.156,0.241,0.359,0.482,0.607,0.726
                c0.249,0.243,0.507,0.417,0.773,0.521c0.125,0.047,0.27,0.092,0.432,0.134s0.376,0.07,0.644,0.087V372.973z"/>
            <path d="M293.232,372.973h-6.176v-0.611c0.142-0.012,0.35-0.027,0.624-0.048s0.464-0.052,0.568-0.095
                c0.194-0.078,0.326-0.182,0.396-0.309c0.071-0.129,0.106-0.292,0.106-0.491v-7.894c0-0.178-0.034-0.334-0.103-0.471
                c-0.067-0.136-0.201-0.246-0.4-0.33c-0.125-0.052-0.311-0.105-0.557-0.16s-0.458-0.093-0.636-0.113v-0.613h6.176v0.613
                c-0.157,0.016-0.354,0.037-0.589,0.066c-0.235,0.028-0.435,0.069-0.597,0.121c-0.204,0.068-0.34,0.174-0.408,0.318
                c-0.067,0.144-0.102,0.307-0.102,0.49v7.885c0,0.189,0.035,0.35,0.105,0.483c0.071,0.134,0.206,0.241,0.404,0.325
                c0.11,0.047,0.292,0.094,0.546,0.138c0.253,0.044,0.467,0.071,0.64,0.083V372.973z"/>
            <path d="M309.568,372.973h-6.034v-0.611c0.178-0.017,0.396-0.043,0.655-0.079s0.436-0.075,0.53-0.118
                c0.193-0.078,0.332-0.186,0.415-0.321c0.084-0.136,0.126-0.309,0.126-0.519v-8.316l-3.829,9.784h-0.988
                c-0.047-0.173-0.164-0.515-0.35-1.028c-0.186-0.512-0.336-0.922-0.451-1.231l-2.816-7.649v6.771c0,0.648,0.043,1.141,0.129,1.479
                c0.087,0.338,0.227,0.584,0.42,0.741c0.131,0.11,0.365,0.215,0.702,0.313c0.338,0.1,0.574,0.157,0.71,0.174v0.611h-4.786v-0.611
                c0.131-0.017,0.344-0.052,0.64-0.106c0.296-0.056,0.537-0.15,0.726-0.286c0.209-0.146,0.351-0.395,0.424-0.742
                s0.11-0.844,0.11-1.486v-5.516c0-0.336-0.042-0.613-0.126-0.836s-0.209-0.399-0.377-0.529c-0.209-0.162-0.423-0.268-0.643-0.314
                s-0.442-0.078-0.667-0.094v-0.613h5.13l2.745,7.336l2.313-5.953c0.079-0.22,0.154-0.481,0.228-0.785s0.112-0.502,0.118-0.598
                h4.932v0.613c-0.167,0.01-0.343,0.031-0.525,0.063c-0.184,0.031-0.358,0.073-0.526,0.125c-0.204,0.068-0.339,0.176-0.403,0.322
                c-0.065,0.146-0.099,0.309-0.099,0.486v7.885c0,0.189,0.033,0.348,0.099,0.476c0.064,0.128,0.199,0.239,0.403,0.333
                c0.104,0.047,0.276,0.092,0.515,0.134c0.237,0.042,0.422,0.07,0.553,0.087V372.973z"/>
            <path d="M316.843,372.973h-6.176v-0.611c0.142-0.012,0.35-0.027,0.624-0.048s0.464-0.052,0.568-0.095
                c0.194-0.078,0.326-0.182,0.396-0.309c0.071-0.129,0.106-0.292,0.106-0.491v-7.894c0-0.178-0.034-0.334-0.103-0.471
                c-0.067-0.136-0.201-0.246-0.4-0.33c-0.125-0.052-0.311-0.105-0.557-0.16s-0.458-0.093-0.636-0.113v-0.613h6.176v0.613
                c-0.157,0.016-0.354,0.037-0.589,0.066c-0.235,0.028-0.435,0.069-0.597,0.121c-0.204,0.068-0.34,0.174-0.408,0.318
                c-0.067,0.144-0.102,0.307-0.102,0.49v7.885c0,0.189,0.035,0.35,0.105,0.483c0.071,0.134,0.206,0.241,0.404,0.325
                c0.11,0.047,0.292,0.094,0.546,0.138c0.253,0.044,0.467,0.071,0.64,0.083V372.973z"/>
            <path d="M328.297,369.215l-0.376,3.758H317.47v-0.474l7.197-9.946h-2.441c-0.497,0-0.855,0.014-1.075,0.043
                s-0.427,0.088-0.62,0.178c-0.225,0.084-0.474,0.305-0.746,0.664c-0.271,0.359-0.636,0.959-1.091,1.799h-0.636l0.346-3.398h9.683
                v0.475l-7.198,9.946h2.802c0.88,0,1.478-0.036,1.794-0.106s0.548-0.197,0.694-0.381c0.299-0.362,0.575-0.76,0.828-1.192
                c0.254-0.433,0.488-0.888,0.703-1.364H328.297z"/>
            <path d="M338.827,364.68h-0.597c-0.151-0.423-0.413-0.85-0.784-1.283c-0.371-0.432-0.74-0.688-1.106-0.766
                c-0.157-0.037-0.375-0.059-0.655-0.066c-0.279-0.008-0.511-0.012-0.694-0.012h-1.616v4.292h1.146c0.288,0,0.549-0.034,0.784-0.103
                c0.236-0.067,0.45-0.198,0.644-0.393c0.12-0.119,0.242-0.332,0.365-0.635s0.202-0.567,0.239-0.793h0.597v4.646h-0.597
                c-0.031-0.22-0.111-0.495-0.239-0.827c-0.128-0.333-0.25-0.562-0.365-0.688c-0.172-0.188-0.376-0.317-0.611-0.389
                c-0.235-0.07-0.508-0.105-0.816-0.105h-1.146v3.209c0,0.335,0.024,0.601,0.074,0.797c0.05,0.195,0.143,0.346,0.279,0.451
                c0.13,0.1,0.31,0.164,0.537,0.195c0.228,0.032,0.537,0.048,0.93,0.048c0.183,0,0.402-0.003,0.659-0.008
                c0.256-0.005,0.481-0.021,0.675-0.048c0.22-0.025,0.425-0.064,0.616-0.117c0.19-0.053,0.333-0.128,0.428-0.228
                c0.251-0.257,0.533-0.647,0.847-1.173c0.314-0.525,0.521-0.92,0.62-1.182h0.573l-0.212,3.469h-10.444v-0.611
                c0.146-0.012,0.346-0.032,0.597-0.063s0.429-0.067,0.533-0.11c0.199-0.083,0.332-0.189,0.4-0.317s0.103-0.292,0.103-0.49v-7.854
                c0-0.188-0.029-0.344-0.087-0.467s-0.196-0.234-0.416-0.334c-0.136-0.063-0.326-0.119-0.572-0.172s-0.432-0.086-0.558-0.102
                v-0.613h9.871V364.68z"/>
            <path d="M353.328,372.973h-4.272c-0.737-1.13-1.351-2.029-1.839-2.699s-1.097-1.443-1.823-2.322h-0.43v3.381
                c0,0.189,0.035,0.349,0.105,0.479c0.071,0.131,0.206,0.241,0.404,0.329c0.1,0.043,0.255,0.086,0.467,0.13s0.394,0.074,0.546,0.091
                v0.611h-5.94v-0.611c0.152-0.017,0.353-0.039,0.601-0.067s0.425-0.063,0.529-0.106c0.199-0.083,0.332-0.189,0.4-0.317
                s0.103-0.292,0.103-0.49v-7.854c0-0.188-0.029-0.346-0.087-0.471s-0.196-0.235-0.416-0.33c-0.167-0.067-0.364-0.125-0.592-0.172
                s-0.407-0.081-0.538-0.102v-0.613h6.246c1.396,0,2.457,0.219,3.182,0.656c0.725,0.437,1.087,1.097,1.087,1.98
                c0,0.779-0.224,1.406-0.671,1.879c-0.447,0.475-1.129,0.844-2.044,1.111c0.355,0.46,0.771,0.994,1.243,1.6
                c0.474,0.607,0.967,1.228,1.479,1.86c0.162,0.204,0.383,0.454,0.663,0.749c0.279,0.296,0.526,0.478,0.741,0.545
                c0.12,0.037,0.273,0.068,0.459,0.095s0.318,0.042,0.396,0.048V372.973z M347.984,364.695c0-0.743-0.208-1.286-0.623-1.629
                c-0.416-0.342-1.009-0.514-1.777-0.514h-0.62v4.66h0.597c0.769,0,1.365-0.201,1.788-0.604
                C347.772,366.207,347.984,365.568,347.984,364.695z"/>
        </g>
        <line fill="none" stroke="#000000" stroke-width="4" stroke-miterlimit="10" x1="246" y1="353" x2="350" y2="353"/>
        <line fill="none" stroke="#000000" stroke-width="4" stroke-miterlimit="10" x1="246" y1="381" x2="350" y2="381"/>
    </g>
    <g id="hex_em" class='hex empathy'>
        <path id="outline_25_" d="M233.143,543.969l60.201-33.607v-67.336l-60.203-33.605l-60.203,33.605v67.336L233.143,543.969z
            M177.32,445.598l55.82-31.16l55.822,31.16v62.191l-55.82,31.16l-55.822-31.16V445.598z"/>
        <polygon id="background_39_" fill="#00FF00" points="288.962,507.79 288.962,445.599 233.14,414.438 177.318,445.599 
            177.318,507.79 233.142,538.95 	"/>
        <g>
            <path d="M198.412,473.68h-0.597c-0.151-0.423-0.413-0.85-0.784-1.283c-0.371-0.432-0.74-0.688-1.106-0.766
                c-0.157-0.037-0.375-0.059-0.655-0.066c-0.279-0.008-0.511-0.012-0.694-0.012h-1.616v4.292h1.146c0.288,0,0.549-0.034,0.784-0.103
                c0.236-0.067,0.45-0.198,0.644-0.393c0.12-0.119,0.242-0.332,0.365-0.635s0.202-0.567,0.239-0.793h0.597v4.646h-0.597
                c-0.031-0.22-0.111-0.495-0.239-0.827c-0.128-0.333-0.25-0.562-0.365-0.688c-0.172-0.188-0.376-0.317-0.611-0.389
                c-0.235-0.07-0.508-0.105-0.816-0.105h-1.146v3.209c0,0.335,0.024,0.601,0.074,0.797c0.05,0.195,0.143,0.346,0.279,0.451
                c0.13,0.1,0.31,0.164,0.537,0.195c0.228,0.032,0.537,0.048,0.93,0.048c0.183,0,0.402-0.003,0.659-0.008
                c0.256-0.005,0.481-0.021,0.675-0.048c0.22-0.025,0.425-0.064,0.616-0.117c0.19-0.053,0.333-0.128,0.428-0.228
                c0.251-0.257,0.533-0.647,0.847-1.173c0.314-0.525,0.521-0.92,0.62-1.182h0.573l-0.212,3.469h-10.444v-0.611
                c0.146-0.012,0.346-0.032,0.597-0.063s0.429-0.067,0.533-0.11c0.199-0.083,0.332-0.189,0.4-0.317s0.103-0.292,0.103-0.49v-7.854
                c0-0.188-0.029-0.344-0.087-0.467s-0.196-0.234-0.416-0.334c-0.136-0.063-0.326-0.119-0.572-0.172s-0.432-0.086-0.558-0.102
                v-0.613h9.871V473.68z"/>
            <path d="M215.431,481.973h-6.034v-0.611c0.178-0.017,0.396-0.043,0.655-0.079s0.436-0.075,0.53-0.118
                c0.193-0.078,0.332-0.186,0.415-0.321c0.084-0.136,0.126-0.309,0.126-0.519v-8.316l-3.829,9.784h-0.988
                c-0.047-0.173-0.164-0.515-0.35-1.028c-0.186-0.512-0.336-0.922-0.451-1.231l-2.816-7.649v6.771c0,0.648,0.043,1.141,0.129,1.479
                c0.087,0.338,0.227,0.584,0.42,0.741c0.131,0.11,0.365,0.215,0.702,0.313c0.338,0.1,0.574,0.157,0.71,0.174v0.611h-4.786v-0.611
                c0.131-0.017,0.344-0.052,0.64-0.106c0.296-0.056,0.537-0.15,0.726-0.286c0.209-0.146,0.351-0.395,0.424-0.742
                s0.11-0.844,0.11-1.486v-5.516c0-0.336-0.042-0.613-0.126-0.836s-0.209-0.399-0.377-0.529c-0.209-0.162-0.423-0.268-0.643-0.314
                s-0.442-0.078-0.667-0.094v-0.613h5.13l2.745,7.336l2.313-5.953c0.079-0.22,0.154-0.481,0.228-0.785s0.112-0.502,0.118-0.598
                h4.932v0.613c-0.167,0.01-0.343,0.031-0.525,0.063c-0.184,0.031-0.358,0.073-0.526,0.125c-0.204,0.068-0.339,0.176-0.403,0.322
                c-0.065,0.146-0.099,0.309-0.099,0.486v7.885c0,0.189,0.033,0.348,0.099,0.476c0.064,0.128,0.199,0.239,0.403,0.333
                c0.104,0.047,0.276,0.092,0.515,0.134c0.237,0.042,0.422,0.07,0.553,0.087V481.973z"/>
            <path d="M227.013,473.624c0,0.628-0.13,1.168-0.389,1.62c-0.259,0.453-0.616,0.82-1.071,1.103
                c-0.471,0.293-1.008,0.505-1.612,0.636s-1.283,0.196-2.036,0.196h-0.91v3.13c0,0.189,0.035,0.353,0.105,0.491
                c0.071,0.139,0.206,0.249,0.404,0.333c0.104,0.042,0.274,0.086,0.51,0.134c0.235,0.047,0.435,0.078,0.597,0.095v0.611h-6.034
                v-0.611c0.152-0.017,0.354-0.039,0.604-0.067s0.427-0.063,0.525-0.106c0.204-0.083,0.339-0.186,0.404-0.306
                s0.099-0.288,0.099-0.502v-7.854c0-0.183-0.032-0.342-0.095-0.475s-0.198-0.244-0.408-0.334c-0.146-0.063-0.341-0.118-0.584-0.168
                s-0.425-0.082-0.546-0.098v-0.613h6.145c1.438,0,2.513,0.229,3.225,0.688C226.656,471.982,227.013,472.683,227.013,473.624z
                M223.952,474.024c0-0.837-0.169-1.458-0.506-1.864c-0.338-0.404-0.938-0.607-1.801-0.607h-0.651v4.889h0.329
                c0.858,0,1.511-0.197,1.958-0.593S223.952,474.846,223.952,474.024z"/>
            <path d="M239.928,481.973h-6.065v-0.611c0.282-0.021,0.613-0.072,0.994-0.154c0.382-0.08,0.572-0.182,0.572-0.301
                c0-0.043-0.004-0.09-0.012-0.143c-0.008-0.052-0.03-0.122-0.067-0.211l-0.949-2.307h-3.844c-0.089,0.214-0.187,0.465-0.293,0.753
                s-0.199,0.544-0.276,0.769c-0.1,0.293-0.158,0.505-0.176,0.636c-0.019,0.131-0.028,0.223-0.028,0.274
                c0,0.168,0.127,0.311,0.381,0.428c0.253,0.117,0.676,0.203,1.266,0.256v0.611h-4.566v-0.611c0.173-0.012,0.367-0.039,0.585-0.083
                c0.217-0.044,0.388-0.106,0.514-0.185c0.214-0.125,0.396-0.279,0.545-0.463c0.149-0.184,0.273-0.4,0.373-0.651
                c0.606-1.47,1.215-2.942,1.824-4.417c0.609-1.476,1.283-3.102,2.021-4.881h1.569c1.025,2.521,1.828,4.515,2.409,5.979
                c0.58,1.465,1.074,2.679,1.482,3.641c0.068,0.158,0.154,0.301,0.259,0.428c0.104,0.129,0.254,0.25,0.447,0.365
                c0.146,0.084,0.316,0.146,0.511,0.188c0.193,0.042,0.368,0.067,0.525,0.079V481.973z M234.077,477.469l-1.611-4.024l-1.588,4.024
                H234.077z"/>
            <path d="M250.379,474.024h-0.612c-0.161-0.476-0.421-0.986-0.778-1.53s-0.688-0.837-0.99-0.879
                c-0.167-0.021-0.373-0.039-0.618-0.055c-0.246-0.016-0.457-0.023-0.635-0.023h-0.368v8.732c0,0.189,0.034,0.355,0.103,0.498
                c0.067,0.145,0.201,0.258,0.4,0.342c0.12,0.047,0.307,0.096,0.561,0.146s0.47,0.085,0.647,0.106v0.611h-6.206v-0.611
                c0.151-0.017,0.364-0.039,0.639-0.067c0.275-0.028,0.462-0.063,0.562-0.106c0.204-0.083,0.34-0.195,0.408-0.337
                c0.067-0.142,0.102-0.309,0.102-0.502v-8.812h-0.368c-0.177,0-0.389,0.008-0.634,0.023s-0.451,0.034-0.618,0.055
                c-0.303,0.042-0.633,0.335-0.99,0.879s-0.617,1.055-0.779,1.53h-0.612v-3.187h10.789V474.024z"/>
            <path d="M264.612,481.973h-6.019v-0.611c0.131-0.012,0.321-0.027,0.572-0.048c0.252-0.021,0.424-0.052,0.519-0.095
                c0.193-0.078,0.326-0.182,0.399-0.309c0.073-0.129,0.11-0.292,0.11-0.491v-3.837h-4.755v3.75c0,0.179,0.038,0.338,0.113,0.479
                c0.076,0.142,0.206,0.251,0.389,0.329c0.1,0.043,0.27,0.086,0.51,0.134c0.241,0.047,0.438,0.075,0.589,0.087v0.611h-6.019v-0.611
                c0.131-0.006,0.323-0.023,0.577-0.052s0.438-0.063,0.553-0.106c0.188-0.067,0.319-0.171,0.393-0.31
                c0.073-0.138,0.11-0.302,0.11-0.49v-7.878c0-0.183-0.033-0.338-0.099-0.463s-0.2-0.235-0.404-0.33
                c-0.151-0.067-0.351-0.129-0.596-0.184c-0.246-0.055-0.424-0.088-0.534-0.098v-0.613h6.019v0.613
                c-0.162,0.01-0.355,0.036-0.581,0.078c-0.225,0.041-0.397,0.081-0.518,0.117c-0.204,0.068-0.339,0.177-0.404,0.326
                c-0.065,0.148-0.098,0.307-0.098,0.475v3.326h4.755v-3.248c0-0.183-0.034-0.338-0.102-0.463c-0.068-0.125-0.204-0.235-0.408-0.33
                c-0.137-0.063-0.318-0.121-0.546-0.176s-0.409-0.09-0.545-0.105v-0.613h6.019v0.613c-0.168,0.01-0.356,0.032-0.565,0.066
                c-0.209,0.033-0.397,0.077-0.564,0.129c-0.199,0.068-0.333,0.176-0.4,0.322c-0.068,0.146-0.103,0.306-0.103,0.479v7.885
                c0,0.189,0.034,0.349,0.103,0.479c0.067,0.131,0.201,0.241,0.4,0.329c0.125,0.053,0.307,0.1,0.545,0.142s0.433,0.067,0.585,0.079
                V481.973z"/>
            <path d="M277.44,471.451c-0.188,0.021-0.36,0.055-0.517,0.102s-0.306,0.112-0.446,0.196c-0.225,0.126-0.425,0.286-0.6,0.482
                s-0.346,0.415-0.513,0.655c-0.34,0.496-0.696,1.037-1.07,1.62c-0.373,0.583-0.779,1.226-1.218,1.927
                c-0.287,0.444-0.464,0.785-0.529,1.023c-0.064,0.238-0.098,0.65-0.098,1.236v1.576c0,0.189,0.035,0.354,0.106,0.494
                c0.07,0.143,0.205,0.257,0.404,0.346c0.089,0.037,0.276,0.086,0.564,0.146s0.5,0.095,0.636,0.106v0.611h-6.207v-0.611
                c0.146-0.012,0.357-0.032,0.632-0.063s0.467-0.067,0.577-0.11c0.193-0.083,0.325-0.194,0.396-0.333
                c0.071-0.139,0.106-0.308,0.106-0.506v-1.962c0-0.172-0.003-0.324-0.008-0.455s-0.023-0.24-0.055-0.33
                c-0.037-0.099-0.1-0.226-0.188-0.38s-0.204-0.354-0.346-0.601c-0.402-0.706-0.792-1.375-1.169-2.008s-0.734-1.227-1.075-1.781
                c-0.178-0.288-0.356-0.52-0.537-0.695c-0.181-0.175-0.365-0.317-0.553-0.428c-0.142-0.078-0.313-0.139-0.515-0.18
                c-0.201-0.042-0.383-0.068-0.545-0.078v-0.613h6.379v0.613c-0.584,0.016-0.978,0.056-1.181,0.121
                c-0.204,0.065-0.306,0.156-0.306,0.271c0,0.058,0.038,0.173,0.113,0.345c0.076,0.174,0.211,0.439,0.404,0.801
                c0.178,0.34,0.438,0.807,0.78,1.402c0.342,0.596,0.754,1.294,1.235,2.094c0.992-1.573,1.674-2.672,2.044-3.297
                c0.371-0.625,0.557-1.008,0.557-1.148c0-0.178-0.109-0.314-0.327-0.408c-0.219-0.094-0.571-0.154-1.061-0.18v-0.613h4.127V471.451
                z"/>
        </g>
        <line fill="none" stroke="#000000" stroke-width="4" stroke-miterlimit="10" x1="180" y1="462" x2="284" y2="462"/>
        <line fill="none" stroke="#000000" stroke-width="4" stroke-miterlimit="10" x1="180" y1="490" x2="284" y2="490"/>
    </g>
    <g id="hex_ha" class='hex harmony'>
        <path id="outline_24_" d="M365.143,543.969l60.201-33.607v-67.336l-60.203-33.605l-60.203,33.605v67.336L365.143,543.969z
            M309.32,445.598l55.82-31.16l55.822,31.16v62.191l-55.82,31.16l-55.822-31.16V445.598z"/>
        <polygon id="background_38_" fill="#F0FF3F" points="420.962,507.79 420.962,445.599 365.14,414.438 309.318,445.599 
            309.318,507.79 365.142,538.95 	"/>
        <g>
            <path d="M331.132,481.973h-6.019v-0.611c0.131-0.012,0.321-0.027,0.572-0.048c0.252-0.021,0.424-0.052,0.519-0.095
                c0.193-0.078,0.326-0.182,0.399-0.309c0.073-0.129,0.11-0.292,0.11-0.491v-3.837h-4.755v3.75c0,0.179,0.038,0.338,0.113,0.479
                c0.076,0.142,0.206,0.251,0.389,0.329c0.1,0.043,0.27,0.086,0.51,0.134c0.241,0.047,0.438,0.075,0.589,0.087v0.611h-6.019v-0.611
                c0.131-0.006,0.323-0.023,0.577-0.052s0.438-0.063,0.553-0.106c0.188-0.067,0.319-0.171,0.393-0.31
                c0.073-0.138,0.11-0.302,0.11-0.49v-7.878c0-0.183-0.033-0.338-0.099-0.463s-0.2-0.235-0.404-0.33
                c-0.151-0.067-0.351-0.129-0.596-0.184c-0.246-0.055-0.424-0.088-0.534-0.098v-0.613h6.019v0.613
                c-0.162,0.01-0.355,0.036-0.581,0.078c-0.225,0.041-0.397,0.081-0.518,0.117c-0.204,0.068-0.339,0.177-0.404,0.326
                c-0.065,0.148-0.098,0.307-0.098,0.475v3.326h4.755v-3.248c0-0.183-0.034-0.338-0.102-0.463c-0.068-0.125-0.204-0.235-0.408-0.33
                c-0.137-0.063-0.318-0.121-0.546-0.176s-0.409-0.09-0.545-0.105v-0.613h6.019v0.613c-0.168,0.01-0.356,0.032-0.565,0.066
                c-0.209,0.033-0.397,0.077-0.564,0.129c-0.199,0.068-0.333,0.176-0.4,0.322c-0.068,0.146-0.103,0.306-0.103,0.479v7.885
                c0,0.189,0.034,0.349,0.103,0.479c0.067,0.131,0.201,0.241,0.4,0.329c0.125,0.053,0.307,0.1,0.545,0.142s0.433,0.067,0.585,0.079
                V481.973z"/>
            <path d="M344.298,481.973h-6.065v-0.611c0.282-0.021,0.613-0.072,0.994-0.154c0.382-0.08,0.572-0.182,0.572-0.301
                c0-0.043-0.004-0.09-0.012-0.143c-0.008-0.052-0.03-0.122-0.067-0.211l-0.949-2.307h-3.844c-0.089,0.214-0.187,0.465-0.293,0.753
                s-0.199,0.544-0.276,0.769c-0.1,0.293-0.158,0.505-0.176,0.636c-0.019,0.131-0.028,0.223-0.028,0.274
                c0,0.168,0.127,0.311,0.381,0.428c0.253,0.117,0.676,0.203,1.266,0.256v0.611h-4.566v-0.611c0.173-0.012,0.367-0.039,0.585-0.083
                c0.217-0.044,0.388-0.106,0.514-0.185c0.214-0.125,0.396-0.279,0.545-0.463c0.149-0.184,0.273-0.4,0.373-0.651
                c0.606-1.47,1.215-2.942,1.824-4.417c0.609-1.476,1.283-3.102,2.021-4.881h1.569c1.025,2.521,1.828,4.515,2.409,5.979
                c0.58,1.465,1.074,2.679,1.482,3.641c0.068,0.158,0.154,0.301,0.259,0.428c0.104,0.129,0.254,0.25,0.447,0.365
                c0.146,0.084,0.316,0.146,0.511,0.188c0.193,0.042,0.368,0.067,0.525,0.079V481.973z M338.447,477.469l-1.611-4.024l-1.588,4.024
                H338.447z"/>
            <path d="M357.182,481.973h-4.272c-0.737-1.13-1.351-2.029-1.839-2.699s-1.097-1.443-1.823-2.322h-0.43v3.381
                c0,0.189,0.035,0.349,0.105,0.479c0.071,0.131,0.206,0.241,0.404,0.329c0.1,0.043,0.255,0.086,0.467,0.13s0.394,0.074,0.546,0.091
                v0.611h-5.94v-0.611c0.152-0.017,0.353-0.039,0.601-0.067s0.425-0.063,0.529-0.106c0.199-0.083,0.332-0.189,0.4-0.317
                s0.103-0.292,0.103-0.49v-7.854c0-0.188-0.029-0.346-0.087-0.471s-0.196-0.235-0.416-0.33c-0.167-0.067-0.364-0.125-0.592-0.172
                s-0.407-0.081-0.538-0.102v-0.613h6.246c1.396,0,2.457,0.219,3.182,0.656c0.725,0.437,1.087,1.097,1.087,1.98
                c0,0.779-0.224,1.406-0.671,1.879c-0.447,0.475-1.129,0.844-2.044,1.111c0.355,0.46,0.771,0.994,1.243,1.6
                c0.474,0.607,0.967,1.228,1.479,1.86c0.162,0.204,0.383,0.454,0.663,0.749c0.279,0.296,0.526,0.478,0.741,0.545
                c0.12,0.037,0.273,0.068,0.459,0.095s0.318,0.042,0.396,0.048V481.973z M351.838,473.695c0-0.743-0.208-1.286-0.623-1.629
                c-0.416-0.342-1.009-0.514-1.777-0.514h-0.62v4.66h0.597c0.769,0,1.365-0.201,1.788-0.604
                C351.626,475.207,351.838,474.568,351.838,473.695z"/>
            <path d="M372.514,481.973h-6.034v-0.611c0.178-0.017,0.396-0.043,0.655-0.079s0.436-0.075,0.53-0.118
                c0.193-0.078,0.332-0.186,0.415-0.321c0.084-0.136,0.126-0.309,0.126-0.519v-8.316l-3.829,9.784h-0.988
                c-0.047-0.173-0.164-0.515-0.35-1.028c-0.186-0.512-0.336-0.922-0.451-1.231l-2.816-7.649v6.771c0,0.648,0.043,1.141,0.129,1.479
                c0.087,0.338,0.227,0.584,0.42,0.741c0.131,0.11,0.365,0.215,0.702,0.313c0.338,0.1,0.574,0.157,0.71,0.174v0.611h-4.786v-0.611
                c0.131-0.017,0.344-0.052,0.64-0.106c0.296-0.056,0.537-0.15,0.726-0.286c0.209-0.146,0.351-0.395,0.424-0.742
                s0.11-0.844,0.11-1.486v-5.516c0-0.336-0.042-0.613-0.126-0.836s-0.209-0.399-0.377-0.529c-0.209-0.162-0.423-0.268-0.643-0.314
                s-0.442-0.078-0.667-0.094v-0.613h5.13l2.745,7.336l2.313-5.953c0.079-0.22,0.154-0.481,0.228-0.785s0.112-0.502,0.118-0.598
                h4.932v0.613c-0.167,0.01-0.343,0.031-0.525,0.063c-0.184,0.031-0.358,0.073-0.526,0.125c-0.204,0.068-0.339,0.176-0.403,0.322
                c-0.065,0.146-0.099,0.309-0.099,0.486v7.885c0,0.189,0.033,0.348,0.099,0.476c0.064,0.128,0.199,0.239,0.403,0.333
                c0.104,0.047,0.276,0.092,0.515,0.134c0.237,0.042,0.422,0.07,0.553,0.087V481.973z"/>
            <path d="M383.945,472.078c0.549,0.502,0.984,1.109,1.307,1.82c0.321,0.712,0.482,1.522,0.482,2.433
                c0,0.812-0.137,1.583-0.408,2.315c-0.272,0.732-0.664,1.361-1.177,1.891c-0.539,0.549-1.172,0.977-1.899,1.283
                c-0.727,0.305-1.593,0.459-2.597,0.459c-0.811,0-1.577-0.134-2.299-0.4c-0.722-0.268-1.357-0.654-1.907-1.162
                c-0.544-0.496-0.976-1.101-1.294-1.813c-0.319-0.711-0.479-1.504-0.479-2.377c0-0.91,0.156-1.735,0.468-2.476
                c0.311-0.74,0.738-1.374,1.282-1.903c0.539-0.518,1.179-0.916,1.919-1.196c0.74-0.279,1.528-0.419,2.365-0.419
                c0.832,0,1.612,0.135,2.343,0.407C382.78,471.213,383.412,471.592,383.945,472.078z M381.929,480.048
                c0.235-0.477,0.405-1.017,0.51-1.618c0.104-0.604,0.157-1.284,0.157-2.043c0-0.645-0.046-1.272-0.138-1.883
                c-0.091-0.61-0.247-1.154-0.467-1.631c-0.225-0.477-0.522-0.859-0.895-1.146c-0.371-0.289-0.834-0.433-1.389-0.433
                c-0.946,0-1.666,0.449-2.157,1.348c-0.492,0.898-0.738,2.167-0.738,3.808c0,0.697,0.054,1.354,0.161,1.973
                c0.107,0.617,0.276,1.157,0.506,1.618c0.235,0.466,0.534,0.829,0.895,1.089c0.361,0.26,0.806,0.389,1.334,0.389
                c0.518,0,0.963-0.131,1.334-0.393S381.709,480.504,381.929,480.048z"/>
            <path d="M399.623,471.451c-0.146,0.016-0.355,0.044-0.628,0.086c-0.271,0.042-0.518,0.144-0.737,0.306
                c-0.193,0.142-0.331,0.384-0.412,0.726c-0.081,0.344-0.121,0.847-0.121,1.511v7.956h-1.397l-6.936-8.607v5.227
                c0,0.648,0.043,1.141,0.129,1.479c0.087,0.338,0.227,0.584,0.42,0.741c0.142,0.115,0.366,0.218,0.675,0.306
                c0.309,0.09,0.555,0.149,0.737,0.182v0.611h-4.786v-0.611c0.204-0.017,0.438-0.055,0.702-0.114
                c0.265-0.06,0.485-0.153,0.663-0.278c0.204-0.152,0.344-0.381,0.42-0.688c0.076-0.306,0.114-0.819,0.114-1.541v-5.273
                c0-0.262-0.041-0.508-0.122-0.741c-0.081-0.232-0.208-0.433-0.381-0.601c-0.183-0.178-0.394-0.317-0.631-0.42
                c-0.238-0.102-0.509-0.182-0.813-0.238v-0.629h4.191l6.087,7.53v-4.212c0-0.669-0.044-1.167-0.133-1.494
                c-0.089-0.326-0.23-0.568-0.424-0.725c-0.151-0.121-0.377-0.225-0.675-0.311s-0.539-0.145-0.722-0.176v-0.613h4.778V471.451z"/>
            <path d="M412.066,471.451c-0.188,0.021-0.36,0.055-0.517,0.102s-0.306,0.112-0.446,0.196c-0.225,0.126-0.425,0.286-0.6,0.482
                s-0.346,0.415-0.513,0.655c-0.34,0.496-0.696,1.037-1.07,1.62c-0.373,0.583-0.779,1.226-1.218,1.927
                c-0.287,0.444-0.464,0.785-0.529,1.023c-0.064,0.238-0.098,0.65-0.098,1.236v1.576c0,0.189,0.035,0.354,0.106,0.494
                c0.07,0.143,0.205,0.257,0.404,0.346c0.089,0.037,0.276,0.086,0.564,0.146s0.499,0.095,0.636,0.106v0.611h-6.207v-0.611
                c0.146-0.012,0.357-0.032,0.632-0.063s0.467-0.067,0.577-0.11c0.193-0.083,0.325-0.194,0.396-0.333
                c0.071-0.139,0.106-0.308,0.106-0.506v-1.962c0-0.172-0.003-0.324-0.008-0.455s-0.023-0.24-0.055-0.33
                c-0.037-0.099-0.1-0.226-0.188-0.38s-0.204-0.354-0.346-0.601c-0.402-0.706-0.792-1.375-1.169-2.008s-0.734-1.227-1.075-1.781
                c-0.178-0.288-0.356-0.52-0.537-0.695c-0.181-0.175-0.365-0.317-0.553-0.428c-0.142-0.078-0.313-0.139-0.515-0.18
                c-0.201-0.042-0.383-0.068-0.545-0.078v-0.613h6.379v0.613c-0.584,0.016-0.978,0.056-1.181,0.121
                c-0.204,0.065-0.306,0.156-0.306,0.271c0,0.058,0.038,0.173,0.113,0.345c0.076,0.174,0.211,0.439,0.404,0.801
                c0.178,0.34,0.438,0.807,0.78,1.402c0.342,0.596,0.754,1.294,1.235,2.094c0.992-1.573,1.674-2.672,2.044-3.297
                c0.371-0.625,0.557-1.008,0.557-1.148c0-0.178-0.109-0.314-0.327-0.408c-0.219-0.094-0.571-0.154-1.061-0.18v-0.613h4.127V471.451
                z"/>
        </g>
        <line fill="none" stroke="#000000" stroke-width="4" stroke-miterlimit="10" x1="312" y1="462" x2="416" y2="462"/>
        <line fill="none" stroke="#000000" stroke-width="4" stroke-miterlimit="10" x1="312" y1="490" x2="416" y2="490"/>
    </g>
    <g id="hex_fu" class='hex futuristic'>
        <path id="outline_23_" d="M365.143,325.969l60.201-33.607v-67.336l-60.203-33.605l-60.203,33.605v67.336L365.143,325.969z
            M309.32,227.598l55.82-31.16l55.822,31.16v62.191l-55.82,31.16l-55.822-31.16V227.598z"/>
        <polygon id="background_37_" fill="#C500FA" points="420.962,289.79 420.962,227.599 365.14,196.438 309.318,227.599 
            309.318,289.79 365.142,320.95 	"/>
        <g>
            <path d="M320.546,255.813h-0.612c-0.151-0.433-0.419-0.893-0.803-1.38c-0.384-0.487-0.748-0.754-1.093-0.801
                c-0.157-0.021-0.366-0.039-0.627-0.055c-0.262-0.016-0.502-0.023-0.721-0.023h-1.731v4.362h1.106c0.313,0,0.586-0.035,0.815-0.106
                c0.23-0.07,0.435-0.197,0.612-0.38c0.131-0.131,0.258-0.349,0.381-0.655c0.123-0.306,0.197-0.569,0.224-0.789h0.596v4.685h-0.596
                c-0.021-0.235-0.103-0.522-0.243-0.859c-0.142-0.337-0.262-0.561-0.361-0.671c-0.151-0.167-0.345-0.292-0.58-0.373
                s-0.519-0.122-0.848-0.122h-1.106v3.688c0,0.188,0.035,0.35,0.105,0.483c0.071,0.133,0.206,0.242,0.404,0.326
                c0.115,0.047,0.273,0.09,0.475,0.129c0.201,0.039,0.401,0.069,0.601,0.09v0.612h-6.003v-0.612
                c0.152-0.016,0.354-0.038,0.604-0.067s0.427-0.064,0.525-0.106c0.188-0.073,0.319-0.175,0.393-0.306
                c0.073-0.13,0.11-0.298,0.11-0.502v-7.854c0-0.178-0.033-0.333-0.099-0.467s-0.2-0.244-0.404-0.333
                c-0.146-0.063-0.34-0.12-0.58-0.172c-0.241-0.052-0.424-0.086-0.55-0.102v-0.612h10.005V255.813z"/>
            <path d="M334.151,253.451c-0.151,0.016-0.37,0.051-0.655,0.106c-0.285,0.055-0.524,0.15-0.718,0.286
                c-0.199,0.131-0.339,0.366-0.42,0.707c-0.081,0.34-0.121,0.85-0.121,1.53v4.143c0,1.219-0.414,2.2-1.24,2.942
                s-1.92,1.114-3.279,1.114c-1.585,0-2.813-0.358-3.681-1.075c-0.868-0.716-1.302-1.715-1.302-2.997v-5.697
                c0-0.183-0.036-0.34-0.106-0.471s-0.205-0.249-0.404-0.353c-0.136-0.068-0.303-0.123-0.502-0.165
                c-0.198-0.042-0.36-0.071-0.486-0.086v-0.597h5.838v0.597c-0.168,0.01-0.338,0.03-0.51,0.059
                c-0.173,0.029-0.349,0.072-0.526,0.129c-0.198,0.063-0.332,0.167-0.4,0.314c-0.067,0.146-0.102,0.312-0.102,0.495v5.618
                c0,1.104,0.243,1.907,0.729,2.409c0.486,0.502,1.191,0.753,2.116,0.753c0.908,0,1.622-0.277,2.139-0.832
                c0.518-0.554,0.775-1.371,0.775-2.448v-3.774c0-0.669-0.045-1.17-0.137-1.502c-0.092-0.333-0.231-0.572-0.42-0.718
                c-0.136-0.115-0.373-0.22-0.71-0.314c-0.338-0.094-0.574-0.151-0.71-0.172v-0.612h4.833V253.451z"/>
            <path d="M345.073,256.024h-0.612c-0.161-0.476-0.421-0.986-0.778-1.53s-0.688-0.837-0.99-0.879
                c-0.167-0.021-0.373-0.039-0.618-0.055c-0.246-0.016-0.457-0.023-0.635-0.023h-0.368v8.733c0,0.188,0.034,0.354,0.103,0.498
                c0.067,0.144,0.201,0.258,0.4,0.341c0.12,0.047,0.307,0.096,0.561,0.146s0.47,0.085,0.647,0.106v0.612h-6.206v-0.612
                c0.151-0.016,0.364-0.038,0.639-0.067c0.275-0.029,0.462-0.064,0.562-0.106c0.204-0.083,0.34-0.196,0.408-0.337
                c0.067-0.141,0.102-0.309,0.102-0.502v-8.812h-0.368c-0.177,0-0.389,0.008-0.634,0.023s-0.451,0.034-0.618,0.055
                c-0.303,0.042-0.633,0.335-0.99,0.879s-0.617,1.054-0.779,1.53h-0.612v-3.186h10.789V256.024z"/>
            <path d="M358.538,253.451c-0.151,0.016-0.37,0.051-0.655,0.106c-0.285,0.055-0.524,0.15-0.718,0.286
                c-0.199,0.131-0.339,0.366-0.42,0.707c-0.081,0.34-0.121,0.85-0.121,1.53v4.143c0,1.219-0.414,2.2-1.24,2.942
                s-1.92,1.114-3.279,1.114c-1.585,0-2.813-0.358-3.681-1.075c-0.868-0.716-1.302-1.715-1.302-2.997v-5.697
                c0-0.183-0.036-0.34-0.106-0.471s-0.205-0.249-0.404-0.353c-0.136-0.068-0.303-0.123-0.502-0.165
                c-0.198-0.042-0.36-0.071-0.486-0.086v-0.597h5.838v0.597c-0.168,0.01-0.338,0.03-0.51,0.059
                c-0.173,0.029-0.349,0.072-0.526,0.129c-0.198,0.063-0.332,0.167-0.4,0.314c-0.067,0.146-0.102,0.312-0.102,0.495v5.618
                c0,1.104,0.243,1.907,0.729,2.409c0.486,0.502,1.191,0.753,2.116,0.753c0.908,0,1.622-0.277,2.139-0.832
                c0.518-0.554,0.775-1.371,0.775-2.448v-3.774c0-0.669-0.045-1.17-0.137-1.502c-0.092-0.333-0.231-0.572-0.42-0.718
                c-0.136-0.115-0.373-0.22-0.71-0.314c-0.338-0.094-0.574-0.151-0.71-0.172v-0.612h4.833V253.451z"/>
            <path d="M371.893,263.973h-4.272c-0.737-1.13-1.351-2.029-1.839-2.699c-0.488-0.669-1.097-1.444-1.823-2.322h-0.43v3.381
                c0,0.188,0.035,0.348,0.105,0.479c0.071,0.131,0.206,0.241,0.404,0.33c0.1,0.042,0.255,0.085,0.467,0.129s0.394,0.074,0.546,0.09
                v0.612h-5.94v-0.612c0.152-0.016,0.353-0.038,0.601-0.067s0.425-0.064,0.529-0.106c0.199-0.083,0.332-0.189,0.4-0.318
                c0.068-0.128,0.103-0.292,0.103-0.49v-7.854c0-0.188-0.029-0.345-0.087-0.471s-0.196-0.235-0.416-0.33
                c-0.167-0.068-0.364-0.125-0.592-0.172c-0.228-0.047-0.407-0.081-0.538-0.102v-0.612h6.246c1.396,0,2.457,0.219,3.182,0.655
                c0.725,0.437,1.087,1.097,1.087,1.981c0,0.779-0.224,1.406-0.671,1.879c-0.447,0.474-1.129,0.844-2.044,1.11
                c0.355,0.46,0.771,0.994,1.243,1.601c0.474,0.607,0.967,1.227,1.479,1.86c0.162,0.204,0.383,0.454,0.663,0.75
                c0.279,0.295,0.526,0.477,0.741,0.545c0.12,0.037,0.273,0.068,0.459,0.094c0.186,0.026,0.318,0.042,0.396,0.047V263.973z
                M366.549,255.695c0-0.743-0.208-1.286-0.623-1.628c-0.416-0.342-1.009-0.514-1.777-0.514h-0.62v4.661h0.597
                c0.769,0,1.365-0.201,1.788-0.604C366.337,257.207,366.549,256.568,366.549,255.695z"/>
            <path d="M378.053,263.973h-6.176v-0.612c0.142-0.011,0.35-0.026,0.624-0.047s0.464-0.052,0.568-0.094
                c0.194-0.078,0.326-0.182,0.396-0.31c0.071-0.128,0.106-0.292,0.106-0.491v-7.894c0-0.178-0.034-0.334-0.103-0.471
                c-0.067-0.136-0.201-0.246-0.4-0.33c-0.125-0.052-0.311-0.106-0.557-0.161c-0.246-0.055-0.458-0.093-0.636-0.114v-0.612h6.176
                v0.612c-0.157,0.016-0.354,0.038-0.589,0.066c-0.235,0.029-0.435,0.07-0.597,0.122c-0.204,0.068-0.34,0.174-0.408,0.317
                c-0.067,0.144-0.102,0.308-0.102,0.491v7.885c0,0.188,0.035,0.35,0.105,0.483c0.071,0.133,0.206,0.242,0.404,0.326
                c0.11,0.047,0.292,0.093,0.546,0.137c0.253,0.044,0.467,0.072,0.64,0.083V263.973z"/>
            <path d="M383.756,264.279c-0.68,0-1.314-0.085-1.902-0.255c-0.589-0.17-1.087-0.37-1.495-0.6l-0.541,0.549h-0.667l-0.103-4.025
                h0.675c0.152,0.383,0.346,0.787,0.581,1.211c0.235,0.424,0.507,0.805,0.815,1.14c0.319,0.351,0.677,0.637,1.071,0.857
                s0.856,0.331,1.385,0.331c0.712,0,1.257-0.174,1.636-0.522c0.38-0.348,0.569-0.787,0.569-1.315c0-0.435-0.161-0.799-0.482-1.095
                c-0.322-0.296-0.82-0.551-1.495-0.767c-0.439-0.142-0.843-0.273-1.212-0.394c-0.369-0.121-0.716-0.244-1.04-0.37
                c-0.748-0.299-1.304-0.726-1.667-1.281s-0.545-1.176-0.545-1.862c0-0.435,0.094-0.853,0.282-1.253
                c0.188-0.401,0.463-0.761,0.823-1.081c0.346-0.298,0.788-0.542,1.326-0.73c0.539-0.188,1.125-0.283,1.758-0.283
                c0.617,0,1.195,0.086,1.734,0.259c0.538,0.173,0.962,0.345,1.271,0.518l0.479-0.471h0.683l0.063,3.798h-0.675
                c-0.157-0.409-0.342-0.827-0.554-1.254s-0.436-0.783-0.671-1.066c-0.256-0.304-0.552-0.546-0.887-0.728
                c-0.334-0.181-0.727-0.271-1.177-0.271c-0.564,0-1.026,0.16-1.385,0.479c-0.358,0.319-0.537,0.715-0.537,1.187
                c0,0.445,0.155,0.81,0.467,1.092c0.311,0.283,0.796,0.532,1.455,0.747c0.388,0.131,0.782,0.262,1.185,0.393
                c0.403,0.131,0.762,0.257,1.075,0.377c0.759,0.293,1.335,0.698,1.73,1.214c0.395,0.516,0.592,1.156,0.592,1.921
                c0,0.482-0.112,0.948-0.337,1.398c-0.225,0.45-0.528,0.825-0.91,1.124c-0.419,0.33-0.902,0.584-1.451,0.762
                C385.129,264.189,384.488,264.279,383.756,264.279z"/>
            <path d="M399.864,256.024h-0.612c-0.161-0.476-0.421-0.986-0.778-1.53s-0.688-0.837-0.99-0.879
                c-0.167-0.021-0.373-0.039-0.618-0.055c-0.246-0.016-0.457-0.023-0.635-0.023h-0.368v8.733c0,0.188,0.034,0.354,0.103,0.498
                c0.067,0.144,0.201,0.258,0.4,0.341c0.12,0.047,0.307,0.096,0.561,0.146s0.47,0.085,0.647,0.106v0.612h-6.206v-0.612
                c0.151-0.016,0.364-0.038,0.639-0.067c0.275-0.029,0.462-0.064,0.562-0.106c0.204-0.083,0.34-0.196,0.408-0.337
                c0.067-0.141,0.102-0.309,0.102-0.502v-8.812h-0.368c-0.177,0-0.389,0.008-0.634,0.023s-0.451,0.034-0.618,0.055
                c-0.303,0.042-0.633,0.335-0.99,0.879s-0.617,1.054-0.779,1.53h-0.612v-3.186h10.789V256.024z"/>
            <path d="M406.637,263.973h-6.176v-0.612c0.142-0.011,0.35-0.026,0.624-0.047s0.464-0.052,0.568-0.094
                c0.194-0.078,0.326-0.182,0.396-0.31c0.071-0.128,0.106-0.292,0.106-0.491v-7.894c0-0.178-0.034-0.334-0.103-0.471
                c-0.067-0.136-0.201-0.246-0.4-0.33c-0.125-0.052-0.311-0.106-0.557-0.161c-0.246-0.055-0.458-0.093-0.636-0.114v-0.612h6.176
                v0.612c-0.157,0.016-0.354,0.038-0.589,0.066c-0.235,0.029-0.435,0.07-0.597,0.122c-0.204,0.068-0.34,0.174-0.408,0.317
                c-0.067,0.144-0.102,0.308-0.102,0.491v7.885c0,0.188,0.035,0.35,0.105,0.483c0.071,0.133,0.206,0.242,0.404,0.326
                c0.11,0.047,0.292,0.093,0.546,0.137c0.253,0.044,0.467,0.072,0.64,0.083V263.973z"/>
            <path d="M413.51,264.279c-0.815,0-1.58-0.132-2.291-0.397s-1.331-0.648-1.859-1.151c-0.518-0.493-0.926-1.101-1.225-1.827
                c-0.298-0.726-0.447-1.523-0.447-2.393c0-0.864,0.15-1.665,0.451-2.4s0.724-1.374,1.268-1.913
                c0.533-0.529,1.175-0.939,1.923-1.229s1.548-0.436,2.4-0.436c0.617,0,1.18,0.076,1.688,0.228c0.507,0.152,0.936,0.322,1.286,0.51
                l0.487-0.432h0.683l0.07,4.064h-0.69c-0.392-1.242-0.862-2.154-1.411-2.736c-0.549-0.582-1.217-0.873-2.006-0.873
                c-0.982,0-1.729,0.434-2.241,1.3c-0.513,0.867-0.769,2.084-0.769,3.65c0,0.886,0.088,1.642,0.263,2.268s0.403,1.13,0.686,1.513
                c0.304,0.398,0.661,0.69,1.074,0.876s0.87,0.279,1.371,0.279c0.731,0,1.384-0.199,1.956-0.596s1.093-0.999,1.563-1.805
                l0.675,0.408c-0.225,0.46-0.481,0.873-0.769,1.236c-0.288,0.364-0.62,0.676-0.997,0.938c-0.413,0.288-0.869,0.513-1.369,0.675
                C414.779,264.197,414.189,264.279,413.51,264.279z"/>
        </g>
        <line fill="none" stroke="#000000" stroke-width="4" stroke-miterlimit="10" x1="312" y1="244" x2="416" y2="244"/>
        <line fill="none" stroke="#000000" stroke-width="4" stroke-miterlimit="10" x1="312" y1="272" x2="416" y2="272"/>
    </g>
    <path id="nameplate_4_" class='nameplate' fill="#261300" d="M567,162c0,6.627-5.373,12-12,12H45c-6.627,0-12-5.373-12-12V65c0-6.627,5.373-12,12-12
        h510c6.627,0,12,5.373,12,12V162z"/>
    <g class='name'>
        <path fill="#FFFFFF" d="M198.445,130.5c-2.035,0-3.933-0.254-5.693-0.763c-1.761-0.509-3.252-1.107-4.473-1.796l-1.62,1.644h-1.996
            l-0.305-12.044h2.02c0.454,1.145,1.033,2.353,1.737,3.624c0.704,1.271,1.518,2.408,2.442,3.412
            c0.955,1.051,2.022,1.906,3.205,2.565c1.182,0.659,2.563,0.988,4.144,0.988c2.128,0,3.76-0.521,4.896-1.563
            c1.134-1.042,1.702-2.354,1.702-3.937c0-1.3-0.481-2.393-1.444-3.278c-0.963-0.885-2.454-1.649-4.473-2.294
            c-1.314-0.424-2.524-0.817-3.627-1.179s-2.14-0.731-3.111-1.109c-2.238-0.893-3.901-2.17-4.989-3.832s-1.631-3.518-1.631-5.571
            c0-1.301,0.282-2.551,0.845-3.75c0.563-1.199,1.385-2.276,2.465-3.232c1.033-0.893,2.356-1.622,3.968-2.186
            c1.612-0.564,3.365-0.846,5.259-0.846c1.847,0,3.576,0.258,5.188,0.775c1.612,0.517,2.88,1.033,3.804,1.549l1.432-1.409h2.042
            l0.188,11.364H208.4c-0.47-1.224-1.021-2.475-1.655-3.753s-1.303-2.342-2.007-3.189c-0.767-0.91-1.652-1.635-2.653-2.177
            c-1.002-0.541-2.176-0.812-3.522-0.812c-1.69,0-3.072,0.478-4.144,1.435c-1.073,0.957-1.608,2.14-1.608,3.551
            c0,1.333,0.465,2.422,1.397,3.269c0.931,0.847,2.383,1.591,4.355,2.234c1.158,0.392,2.34,0.784,3.545,1.176
            c1.205,0.392,2.277,0.768,3.217,1.128c2.269,0.878,3.995,2.089,5.177,3.632c1.182,1.544,1.773,3.46,1.773,5.748
            c0,1.442-0.337,2.837-1.01,4.185c-0.673,1.348-1.581,2.469-2.724,3.362c-1.252,0.988-2.7,1.748-4.343,2.28
            S200.636,130.5,198.445,130.5z"/>
        <path fill="#FFFFFF" d="M232.888,128.504c-1.002,0.438-2.074,0.833-3.217,1.186c-1.143,0.353-2.536,0.528-4.179,0.528
            c-2.442,0-4.253-0.594-5.435-1.782c-1.182-1.188-1.773-2.884-1.773-5.089v-14.4h-4.226v-2.559h4.32v-7.114h7.607v7.114h6.598v2.559
            h-6.551v12.85c0,1.829,0.255,3.126,0.766,3.892c0.51,0.766,1.425,1.149,2.745,1.149c0.424,0,1.013-0.031,1.767-0.094
            s1.28-0.133,1.579-0.211V128.504z"/>
        <path fill="#FFFFFF" d="M257.917,110.59c0,1.189-0.368,2.234-1.104,3.134c-0.736,0.9-1.706,1.35-2.912,1.35
            c-1.143,0-2.109-0.289-2.899-0.865c-0.791-0.577-1.186-1.426-1.186-2.548c0-0.545,0.039-0.97,0.117-1.274
            c0.078-0.304,0.148-0.589,0.211-0.854c-0.72,0.031-1.479,0.28-2.277,0.745c-0.798,0.466-1.503,1.086-2.113,1.861v12.89
            c0,0.548,0.086,1.001,0.258,1.362c0.172,0.36,0.461,0.642,0.869,0.845c0.344,0.172,0.904,0.317,1.679,0.434
            c0.775,0.118,1.334,0.184,1.679,0.2v1.714h-15.707v-1.714c0.391-0.031,0.787-0.074,1.186-0.129c0.399-0.055,0.74-0.129,1.021-0.223
            c0.5-0.172,0.845-0.438,1.033-0.798c0.188-0.36,0.282-0.83,0.282-1.409v-13.665c0-0.563-0.133-1.068-0.399-1.515
            c-0.266-0.446-0.587-0.802-0.962-1.068c-0.282-0.188-0.638-0.344-1.068-0.469c-0.431-0.125-0.904-0.211-1.42-0.258v-1.714
            l11.199-0.611l0.352,0.353v3.404h0.094c1.08-1.252,2.226-2.234,3.439-2.947c1.213-0.712,2.477-1.068,3.792-1.068
            c1.456,0,2.626,0.45,3.51,1.35C257.474,108.004,257.917,109.166,257.917,110.59z"/>
        <path fill="#FFFFFF" d="M284.776,123.973c-0.548,0.892-1.209,1.734-1.984,2.524c-0.774,0.791-1.655,1.467-2.641,2.031
            c-1.049,0.595-2.109,1.045-3.182,1.35s-2.305,0.458-3.698,0.458c-2.316,0-4.316-0.329-5.999-0.986
            c-1.683-0.657-3.072-1.542-4.167-2.653c-1.096-1.111-1.914-2.422-2.454-3.933c-0.54-1.511-0.81-3.15-0.81-4.919
            c0-1.597,0.293-3.126,0.88-4.59c0.587-1.463,1.42-2.766,2.5-3.909c1.064-1.111,2.407-2.011,4.027-2.7
            c1.62-0.689,3.431-1.033,5.435-1.033c2.191,0,3.991,0.266,5.4,0.798c1.409,0.532,2.575,1.268,3.499,2.207
            c0.892,0.892,1.542,1.945,1.949,3.158c0.407,1.213,0.61,2.485,0.61,3.815v1.526H268.27c0,3.209,0.618,5.651,1.855,7.326
            c1.236,1.675,3.201,2.512,5.893,2.512c1.471,0,2.794-0.403,3.968-1.209c1.174-0.806,2.176-1.827,3.005-3.064L284.776,123.973z
            M275.807,115.051c0-0.939-0.047-1.902-0.141-2.888c-0.094-0.986-0.258-1.792-0.493-2.418c-0.266-0.736-0.63-1.292-1.092-1.667
            c-0.462-0.376-1.045-0.563-1.749-0.563c-1.206,0-2.168,0.61-2.888,1.831c-0.72,1.221-1.111,3.154-1.174,5.799L275.807,115.051z"/>
        <path fill="#FFFFFF" d="M318.021,129.584h-14.11v-1.714c0.297-0.031,0.657-0.07,1.08-0.118c0.422-0.047,0.743-0.125,0.962-0.234
            c0.329-0.172,0.563-0.423,0.705-0.751c0.141-0.329,0.211-0.814,0.211-1.456v-10.988c0-1.597-0.295-2.797-0.883-3.604
            c-0.589-0.806-1.456-1.209-2.602-1.209c-0.628,0-1.212,0.094-1.754,0.282c-0.541,0.188-1.071,0.462-1.589,0.822
            c-0.455,0.313-0.82,0.634-1.095,0.962c-0.274,0.329-0.506,0.619-0.694,0.869v12.608c0,0.548,0.078,1.006,0.235,1.374
            c0.156,0.368,0.415,0.646,0.775,0.833c0.25,0.141,0.563,0.266,0.939,0.375c0.376,0.11,0.743,0.188,1.104,0.235v1.714H287.03v-1.714
            c0.391-0.031,0.787-0.074,1.186-0.129c0.399-0.055,0.74-0.129,1.021-0.223c0.5-0.172,0.845-0.438,1.033-0.798
            c0.188-0.36,0.282-0.83,0.282-1.409v-13.665c0-0.485-0.125-0.963-0.376-1.433c-0.25-0.469-0.579-0.853-0.986-1.15
            c-0.282-0.188-0.638-0.344-1.068-0.469c-0.431-0.125-0.904-0.211-1.42-0.258v-1.714l11.199-0.611l0.352,0.353v3.404h0.094
            c0.438-0.391,0.97-0.861,1.596-1.409s1.206-0.994,1.738-1.338c0.579-0.375,1.338-0.696,2.277-0.962s1.94-0.399,3.005-0.399
            c2.552,0,4.465,0.724,5.741,2.172c1.275,1.448,1.913,3.369,1.913,5.764V125.1c0,0.579,0.086,1.041,0.258,1.385
            c0.173,0.344,0.493,0.619,0.963,0.822c0.25,0.109,0.56,0.219,0.928,0.329c0.367,0.11,0.786,0.188,1.256,0.235V129.584z"/>
        <path fill="#FFFFFF" d="M346.502,108.923h-5.166c0.61,0.685,1.068,1.409,1.374,2.172c0.305,0.763,0.458,1.557,0.458,2.382
            c0,1.08-0.29,2.094-0.869,3.041c-0.579,0.947-1.338,1.718-2.277,2.313c-0.955,0.611-2.074,1.088-3.357,1.433
            s-2.677,0.516-4.18,0.516h-3.826c-0.188,0.142-0.396,0.367-0.622,0.674c-0.228,0.307-0.341,0.603-0.341,0.886
            c0,0.693,0.273,1.174,0.821,1.442c0.548,0.268,1.542,0.417,2.982,0.449c1.424,0.031,2.864,0.09,4.319,0.176
            c1.456,0.086,2.497,0.137,3.123,0.153c0.907,0.047,1.808,0.231,2.7,0.552s1.667,0.74,2.324,1.256
            c0.72,0.548,1.314,1.249,1.784,2.102c0.47,0.854,0.705,1.835,0.705,2.947c0,1.189-0.286,2.309-0.857,3.357
            c-0.571,1.048-1.444,1.956-2.618,2.723c-1.236,0.798-2.72,1.417-4.449,1.855c-1.729,0.438-3.87,0.657-6.421,0.657
            c-4.117,0-7.247-0.501-9.392-1.502c-2.145-1.002-3.217-2.504-3.217-4.508c0-1.237,0.579-2.254,1.736-3.052s2.955-1.237,5.396-1.315
            v-0.282c-1.438-0.486-2.561-1.133-3.365-1.942c-0.805-0.808-1.207-1.746-1.207-2.813c0-0.659,0.16-1.216,0.481-1.671
            c0.32-0.455,0.731-0.855,1.232-1.2c0.438-0.298,0.97-0.553,1.597-0.765c0.626-0.212,1.15-0.381,1.573-0.506v-0.259
            c-2.113-0.782-3.667-1.737-4.661-2.864s-1.491-2.504-1.491-4.132c0-2.301,1.061-4.14,3.182-5.518
            c2.121-1.377,4.81-2.066,8.065-2.066c1.063,0,2.093,0.09,3.087,0.27c0.994,0.18,1.749,0.34,2.266,0.481h9.11V108.923z
            M339.411,133.13c0-0.532-0.148-1.061-0.445-1.585s-0.961-0.951-1.992-1.28c-0.563-0.094-1.488-0.156-2.776-0.188
            c-1.289-0.032-3.059-0.047-5.309-0.047c-0.547,0.469-1.004,1.025-1.371,1.667c-0.367,0.642-0.55,1.416-0.55,2.324
            c0,0.391,0.109,0.822,0.327,1.292c0.219,0.469,0.563,0.907,1.031,1.314c0.547,0.454,1.156,0.81,1.828,1.068
            s1.688,0.388,3.047,0.388c2.015,0,3.554-0.392,4.616-1.174S339.411,134.867,339.411,133.13z M335.49,113.384
            c0-1.832-0.291-3.279-0.872-4.344c-0.581-1.064-1.477-1.597-2.686-1.597c-0.612,0-1.146,0.145-1.602,0.435
            c-0.456,0.29-0.825,0.708-1.107,1.256c-0.268,0.532-0.447,1.154-0.542,1.866c-0.095,0.712-0.142,1.444-0.142,2.195
            c0,1.707,0.299,3.107,0.896,4.203c0.597,1.096,1.444,1.644,2.545,1.644c1.13,0,1.998-0.493,2.603-1.479
            C335.188,116.577,335.49,115.185,335.49,113.384z"/>
        <path fill="#FFFFFF" d="M365.401,128.504c-1.002,0.438-2.074,0.833-3.217,1.186c-1.143,0.353-2.536,0.528-4.179,0.528
            c-2.442,0-4.254-0.594-5.436-1.782c-1.183-1.188-1.772-2.884-1.772-5.089v-14.4h-4.227v-2.559h4.32v-7.114h7.606v7.114h6.598v2.559
            h-6.551v12.85c0,1.829,0.256,3.126,0.766,3.892c0.511,0.766,1.426,1.149,2.745,1.149c0.424,0,1.013-0.031,1.767-0.094
            s1.28-0.133,1.579-0.211V128.504z"/>
        <path fill="#FFFFFF" d="M397.567,129.584h-14.11v-1.714c0.313-0.031,0.681-0.07,1.104-0.118c0.423-0.047,0.735-0.125,0.939-0.234
            c0.328-0.172,0.559-0.423,0.692-0.751c0.133-0.329,0.199-0.814,0.199-1.456v-10.988c0-1.612-0.302-2.817-0.903-3.616
            c-0.604-0.798-1.46-1.197-2.571-1.197c-0.626,0-1.209,0.094-1.749,0.282s-1.068,0.462-1.585,0.822
            c-0.454,0.313-0.818,0.634-1.092,0.962c-0.274,0.329-0.505,0.619-0.692,0.869v12.608c0,0.579,0.07,1.037,0.211,1.374
            s0.407,0.614,0.799,0.833c0.234,0.141,0.543,0.266,0.927,0.375c0.384,0.11,0.755,0.188,1.115,0.235v1.714h-14.321v-1.714
            c0.409-0.031,0.807-0.07,1.193-0.118c0.386-0.047,0.729-0.125,1.028-0.234c0.504-0.188,0.847-0.458,1.027-0.81
            c0.182-0.353,0.272-0.818,0.272-1.397V99.133c0-0.501-0.117-1.033-0.353-1.597c-0.234-0.563-0.563-0.986-0.986-1.268
            c-0.313-0.203-0.767-0.364-1.361-0.481c-0.595-0.118-1.127-0.192-1.597-0.223V93.85l11.691-0.611l0.354,0.376v16.153h0.094
            c0.594-0.532,1.129-1.013,1.605-1.444c0.478-0.431,1.06-0.865,1.747-1.303c0.578-0.375,1.332-0.696,2.262-0.962
            c0.931-0.266,1.935-0.399,3.014-0.399c2.531,0,4.435,0.728,5.708,2.184c1.274,1.456,1.911,3.373,1.911,5.752V125.1
            c0,0.579,0.086,1.041,0.259,1.385c0.172,0.344,0.492,0.619,0.962,0.822c0.282,0.125,0.595,0.235,0.939,0.329
            c0.344,0.094,0.767,0.172,1.268,0.235V129.584z"/>
        <path fill="#FFFFFF" d="M410.598,130.383c-1.519,0-3.002-0.223-4.449-0.669c-1.448-0.446-2.571-0.919-3.369-1.42l-0.704,1.597
            h-1.832l-0.305-8.757h1.714c0.234,0.704,0.626,1.499,1.174,2.383c0.548,0.885,1.174,1.679,1.878,2.383
            c0.736,0.704,1.577,1.299,2.524,1.784c0.946,0.485,1.96,0.728,3.04,0.728c1.425,0,2.485-0.278,3.182-0.833s1.045-1.413,1.045-2.571
            c0-0.626-0.156-1.143-0.47-1.55c-0.313-0.407-0.743-0.759-1.291-1.057c-0.61-0.313-1.279-0.579-2.008-0.798
            c-0.728-0.219-1.624-0.485-2.688-0.798c-1.064-0.313-1.976-0.63-2.735-0.951c-0.759-0.321-1.546-0.825-2.359-1.514
            c-0.704-0.611-1.268-1.346-1.69-2.207s-0.634-1.886-0.634-3.076c0-2.207,0.928-3.992,2.782-5.354
            c1.854-1.361,4.285-2.042,7.29-2.042c1.424,0,2.735,0.145,3.933,0.435s2.203,0.606,3.018,0.951l0.492-1.385h1.785l0.375,8.006
            h-1.644c-0.548-1.628-1.486-3.033-2.817-4.214c-1.33-1.182-2.763-1.773-4.296-1.773c-1.206,0-2.152,0.25-2.841,0.751
            c-0.689,0.501-1.033,1.197-1.033,2.09c0,1.189,0.503,2.05,1.512,2.583c1.008,0.532,2.418,1.033,4.23,1.502
            c2.797,0.72,4.844,1.702,6.141,2.947c1.297,1.244,1.946,2.829,1.946,4.754c0,2.567-1.007,4.555-3.018,5.963
            C416.463,129.678,413.838,130.383,410.598,130.383z"/>
    </g>
    <!--xxxxxxxxxxxxxxxxxxxxxxxxxxxxxxxxxxxxxxxxxxxxxxxxxx-->
</svg>