<svg xmlns="http://www.w3.org/2000/svg" id='awsome_stack' class="adobe_illustrator"  viewBox="0 0 600 600">
    <!--xxxxxxxxxxxxxxxxxxxxxxxxxxxxxxxxxxxxxxxxxxxxxxxxxx-->
    <path id="nameplate_3_" fill="#261300" d="M567,163c0,6.627-5.373,12-12,12H45c-6.627,0-12-5.373-12-12V66c0-6.627,5.373-12,12-12
        h510c6.627,0,12,5.373,12,12V163z"/>
    <g id="hex_ap" class='hex apache'>
        <path id="outline_22_" d="M237.143,325.969l60.201-33.607v-67.336l-60.203-33.605l-60.203,33.605v67.336L237.143,325.969z
            M181.32,227.598l55.82-31.16l55.822,31.16v62.191l-55.82,31.16l-55.822-31.16V227.598z"/>
        <polygon id="background_36_" fill="#DFA800" points="292.962,289.79 292.962,227.599 237.14,196.438 181.318,227.599 
            181.318,289.79 237.142,320.95 	"/>
        <polygon id="background_35_" fill="#DF9000" points="236.976,209.641 282.13,234.846 282.13,285.152 236.978,310.359 	"/>
        <g>
            <path d="M223.428,234h-4.529v-0.457c0.21-0.016,0.458-0.054,0.743-0.114s0.427-0.136,0.427-0.226c0-0.031-0.003-0.066-0.009-0.105
                s-0.022-0.092-0.05-0.158l-0.709-1.723h-2.87c-0.066,0.16-0.139,0.348-0.219,0.563s-0.148,0.406-0.207,0.574
                c-0.074,0.219-0.118,0.377-0.131,0.475s-0.021,0.166-0.021,0.205c0,0.125,0.095,0.231,0.284,0.319
                c0.189,0.088,0.504,0.151,0.945,0.19V234h-3.41v-0.457c0.129-0.008,0.274-0.028,0.437-0.062s0.29-0.079,0.384-0.138
                c0.16-0.094,0.296-0.209,0.407-0.346s0.204-0.299,0.278-0.486c0.453-1.098,0.907-2.197,1.362-3.299s0.958-2.316,1.509-3.645h1.172
                c0.766,1.883,1.365,3.371,1.799,4.465s0.803,2,1.107,2.719c0.051,0.117,0.115,0.224,0.193,0.319s0.189,0.187,0.334,0.272
                c0.109,0.063,0.236,0.109,0.381,0.141s0.275,0.051,0.393,0.059V234z M219.059,230.637l-1.203-3.005l-1.186,3.005H219.059z"/>
            <path d="M230.576,231.146c0,0.824-0.275,1.531-0.825,2.121c-0.55,0.59-1.246,0.885-2.089,0.885c-0.375,0-0.679-0.038-0.913-0.114
                c-0.234-0.076-0.427-0.169-0.579-0.278h-0.047v1.646c0,0.137,0.03,0.256,0.091,0.357s0.146,0.176,0.255,0.223
                c0.105,0.043,0.255,0.082,0.448,0.117s0.354,0.057,0.483,0.064v0.434h-4.236v-0.434c0.098-0.008,0.221-0.022,0.369-0.044
                s0.26-0.044,0.334-0.067c0.125-0.043,0.21-0.116,0.255-0.22s0.067-0.222,0.067-0.354v-5.994c-0.012-0.129-0.042-0.242-0.091-0.34
                s-0.126-0.184-0.231-0.258c-0.078-0.051-0.182-0.093-0.311-0.126s-0.256-0.056-0.381-0.067v-0.428l2.859-0.152l0.088,0.076v0.65
                l0.047,0.012c0.257-0.262,0.543-0.465,0.857-0.609c0.314-0.145,0.625-0.217,0.933-0.217c0.808,0,1.445,0.286,1.914,0.858
                S230.576,230.213,230.576,231.146z M228.473,231.17c0-0.293-0.021-0.573-0.064-0.841c-0.042-0.268-0.119-0.507-0.228-0.718
                c-0.105-0.211-0.245-0.379-0.418-0.504c-0.174-0.125-0.385-0.188-0.634-0.188c-0.253,0-0.456,0.044-0.608,0.132
                s-0.285,0.202-0.397,0.343v3.322c0.023,0.078,0.068,0.179,0.134,0.302c0.066,0.123,0.133,0.222,0.199,0.296
                c0.098,0.105,0.208,0.184,0.333,0.234c0.125,0.051,0.261,0.076,0.409,0.076c0.385,0,0.694-0.208,0.926-0.624
                C228.356,232.585,228.473,231.975,228.473,231.17z"/>
            <path d="M238.029,233.877c-0.171,0.074-0.374,0.143-0.608,0.205c-0.234,0.063-0.481,0.094-0.742,0.094
                c-0.479,0-0.833-0.071-1.059-0.214s-0.38-0.347-0.462-0.612h-0.035c-0.133,0.133-0.261,0.246-0.384,0.34
                c-0.124,0.094-0.255,0.174-0.396,0.24c-0.184,0.086-0.361,0.15-0.531,0.193c-0.17,0.043-0.408,0.064-0.713,0.064
                c-0.454,0-0.841-0.134-1.162-0.402c-0.321-0.268-0.481-0.623-0.481-1.065c0-0.254,0.035-0.471,0.105-0.648
                c0.071-0.178,0.17-0.335,0.299-0.473c0.118-0.125,0.253-0.229,0.408-0.311c0.154-0.082,0.324-0.158,0.507-0.229
                c0.352-0.129,0.775-0.263,1.268-0.402c0.493-0.139,0.853-0.263,1.08-0.373v-0.563c0-0.098-0.008-0.227-0.023-0.387
                s-0.049-0.295-0.1-0.404c-0.055-0.125-0.141-0.23-0.258-0.316s-0.271-0.129-0.463-0.129c-0.172,0-0.315,0.024-0.431,0.073
                s-0.208,0.099-0.278,0.149c0.012,0.078,0.045,0.197,0.1,0.357c0.055,0.16,0.083,0.314,0.083,0.463
                c0,0.066-0.018,0.149-0.053,0.249c-0.036,0.1-0.086,0.179-0.153,0.237c-0.09,0.078-0.191,0.139-0.303,0.182
                s-0.283,0.064-0.514,0.064c-0.329,0-0.578-0.079-0.746-0.237c-0.169-0.158-0.253-0.364-0.253-0.618
                c0-0.219,0.087-0.415,0.261-0.589s0.386-0.317,0.636-0.431c0.246-0.117,0.529-0.208,0.85-0.272s0.617-0.097,0.891-0.097
                c0.379,0,0.727,0.022,1.043,0.067s0.602,0.138,0.855,0.278c0.242,0.137,0.435,0.335,0.577,0.595s0.214,0.599,0.214,1.017
                c0,0.441-0.009,0.965-0.026,1.57s-0.026,1.004-0.026,1.195c0,0.176,0.026,0.314,0.079,0.416s0.134,0.178,0.243,0.229
                c0.066,0.031,0.171,0.05,0.313,0.056s0.272,0.009,0.39,0.009V233.877z M235.123,230.824c-0.22,0.074-0.437,0.16-0.653,0.255
                c-0.215,0.096-0.392,0.197-0.529,0.303c-0.145,0.109-0.258,0.25-0.341,0.42s-0.124,0.371-0.124,0.602
                c0,0.305,0.069,0.526,0.209,0.664c0.139,0.137,0.311,0.206,0.514,0.206c0.216,0,0.393-0.044,0.532-0.132
                c0.139-0.088,0.262-0.197,0.368-0.326L235.123,230.824z"/>
            <path d="M241.826,234.188c-0.543,0-1.022-0.079-1.438-0.237s-0.759-0.374-1.028-0.647c-0.27-0.277-0.471-0.605-0.604-0.984
                s-0.199-0.791-0.199-1.236c0-0.406,0.081-0.793,0.243-1.16s0.382-0.689,0.659-0.967c0.285-0.285,0.64-0.513,1.063-0.683
                s0.892-0.255,1.403-0.255c0.719,0,1.287,0.136,1.705,0.407s0.627,0.638,0.627,1.099c0,0.281-0.074,0.508-0.223,0.68
                s-0.404,0.258-0.768,0.258c-0.293,0-0.538-0.07-0.735-0.211s-0.296-0.324-0.296-0.551c0-0.191,0.031-0.381,0.094-0.568
                s0.1-0.33,0.111-0.428c-0.043-0.07-0.098-0.124-0.164-0.161s-0.17-0.056-0.311-0.056c-0.176,0-0.336,0.041-0.48,0.123
                s-0.279,0.227-0.404,0.434c-0.121,0.195-0.218,0.457-0.29,0.785s-0.108,0.723-0.108,1.184c0,0.695,0.163,1.256,0.489,1.682
                s0.716,0.639,1.169,0.639c0.434,0,0.778-0.097,1.034-0.29s0.483-0.468,0.683-0.823l0.439,0.305
                c-0.121,0.238-0.266,0.456-0.434,0.653s-0.369,0.372-0.604,0.524c-0.246,0.16-0.496,0.281-0.75,0.363
                S242.162,234.188,241.826,234.188z"/>
            <path d="M252.473,234h-3.521v-0.428c0.078-0.008,0.17-0.018,0.275-0.029s0.184-0.031,0.234-0.059
                c0.082-0.043,0.14-0.105,0.173-0.188s0.05-0.203,0.05-0.363v-2.742c0-0.402-0.075-0.703-0.226-0.902s-0.364-0.299-0.642-0.299
                c-0.156,0-0.302,0.023-0.437,0.07s-0.267,0.115-0.396,0.205c-0.113,0.078-0.204,0.158-0.272,0.24s-0.126,0.154-0.173,0.217v3.146
                c0,0.145,0.018,0.259,0.053,0.343s0.102,0.153,0.199,0.208c0.059,0.035,0.136,0.066,0.231,0.094s0.188,0.047,0.278,0.059V234
                h-3.574v-0.428c0.102-0.008,0.202-0.018,0.298-0.029s0.182-0.031,0.257-0.059c0.125-0.047,0.211-0.114,0.256-0.202
                s0.068-0.204,0.068-0.349V226.4c0-0.125-0.029-0.258-0.088-0.398s-0.141-0.246-0.246-0.316c-0.078-0.051-0.191-0.091-0.34-0.12
                s-0.281-0.048-0.398-0.056v-0.428l2.918-0.152l0.088,0.094v4.031h0.023c0.148-0.133,0.282-0.253,0.401-0.36
                c0.119-0.107,0.264-0.216,0.436-0.325c0.144-0.094,0.332-0.174,0.564-0.24c0.232-0.066,0.482-0.1,0.752-0.1
                c0.632,0,1.106,0.182,1.424,0.545s0.477,0.842,0.477,1.436v2.871c0,0.145,0.021,0.26,0.064,0.346s0.123,0.154,0.24,0.205
                c0.07,0.031,0.148,0.059,0.234,0.082s0.191,0.043,0.316,0.059V234z"/>
            <path d="M259.311,232.6c-0.137,0.223-0.302,0.433-0.495,0.63s-0.413,0.366-0.659,0.507c-0.262,0.148-0.526,0.261-0.794,0.337
                s-0.575,0.114-0.923,0.114c-0.578,0-1.077-0.082-1.497-0.246s-0.767-0.385-1.04-0.662s-0.478-0.604-0.612-0.981
                s-0.202-0.786-0.202-1.228c0-0.398,0.073-0.78,0.22-1.146s0.354-0.69,0.624-0.976c0.266-0.277,0.601-0.502,1.005-0.674
                s0.856-0.258,1.356-0.258c0.547,0,0.996,0.066,1.348,0.199s0.643,0.316,0.873,0.551c0.223,0.223,0.385,0.485,0.486,0.788
                s0.152,0.62,0.152,0.952v0.381h-3.961c0,0.801,0.154,1.41,0.463,1.828s0.799,0.627,1.471,0.627c0.367,0,0.697-0.101,0.99-0.302
                s0.543-0.456,0.75-0.765L259.311,232.6z M257.072,230.373c0-0.234-0.012-0.475-0.035-0.721s-0.064-0.447-0.123-0.604
                c-0.066-0.184-0.157-0.322-0.272-0.416s-0.261-0.141-0.437-0.141c-0.301,0-0.541,0.152-0.721,0.457s-0.277,0.787-0.293,1.447
                L257.072,230.373z"/>
        </g>
        <g opacity="0.86">
            <path fill="#FFFFFF" d="M237.237,238.029L207.232,290h60.01L237.237,238.029z M236.976,289.15c-6.64,0-12.021-5.383-12.021-12.021
                s5.381-12.021,12.021-12.021s12.021,5.383,12.021,12.021S243.615,289.15,236.976,289.15z"/>
        </g>
    </g>
    <g id="hex_ms" class='hex sql'>
        <path id="outline_21_" d="M237.143,541.969l60.201-33.607v-67.336l-60.203-33.605l-60.203,33.605v67.336L237.143,541.969z
            M181.32,443.598l55.82-31.16l55.822,31.16v62.191l-55.82,31.16l-55.822-31.16V443.598z"/>
        <polygon id="background_34_" fill="#00546B" points="292.962,505.79 292.962,443.599 237.14,412.438 181.318,443.599 
            181.318,505.79 237.142,536.95 	"/>
        <polygon id="background_33_" fill="#2E456B" points="236.976,425.641 282.13,450.846 282.13,501.152 236.978,526.359 	"/>
        <g>
            <path fill="#FFFFFF" d="M226.83,450h-4.506v-0.457c0.133-0.012,0.296-0.031,0.489-0.059s0.325-0.057,0.396-0.088
                c0.145-0.059,0.248-0.139,0.311-0.24s0.094-0.23,0.094-0.387v-6.211l-2.859,7.307h-0.738c-0.035-0.129-0.122-0.385-0.261-0.768
                s-0.251-0.689-0.337-0.92l-2.104-5.713v5.057c0,0.484,0.032,0.853,0.097,1.104s0.169,0.437,0.313,0.554
                c0.098,0.082,0.272,0.16,0.524,0.234s0.429,0.117,0.53,0.129V450h-3.574v-0.457c0.098-0.012,0.257-0.038,0.478-0.079
                s0.401-0.112,0.542-0.214c0.156-0.109,0.262-0.294,0.316-0.554s0.082-0.63,0.082-1.11v-4.119c0-0.25-0.031-0.458-0.094-0.624
                s-0.156-0.298-0.281-0.396c-0.156-0.121-0.316-0.199-0.48-0.234s-0.33-0.059-0.498-0.07v-0.457h3.831l2.05,5.479l1.727-4.446
                c0.059-0.164,0.115-0.36,0.17-0.587s0.084-0.375,0.088-0.445h3.683v0.457c-0.125,0.008-0.256,0.023-0.393,0.047
                s-0.268,0.055-0.393,0.094c-0.152,0.051-0.253,0.131-0.302,0.24s-0.073,0.23-0.073,0.363v5.889c0,0.141,0.024,0.259,0.073,0.354
                s0.149,0.179,0.302,0.249c0.078,0.035,0.206,0.068,0.384,0.1s0.315,0.053,0.413,0.064V450z"/>
            <path fill="#FFFFFF" d="M234.242,444.615c-0.176,0.027-0.347,0.094-0.513,0.199s-0.304,0.27-0.413,0.492
                c-0.336,0.711-0.682,1.468-1.037,2.271s-0.75,1.671-1.184,2.604c-0.242,0.523-0.477,0.941-0.703,1.254s-0.439,0.553-0.639,0.721
                c-0.188,0.156-0.373,0.27-0.557,0.34s-0.369,0.105-0.557,0.105c-0.371,0-0.671-0.104-0.899-0.311s-0.343-0.439-0.343-0.697
                c0-0.109,0.013-0.211,0.038-0.305s0.079-0.191,0.161-0.293c0.063-0.086,0.159-0.159,0.29-0.22
                c0.131-0.061,0.278-0.091,0.442-0.091c0.219,0,0.427,0.076,0.626,0.229s0.406,0.363,0.621,0.633
                c0.129-0.129,0.288-0.322,0.478-0.578c0.189-0.258,0.329-0.521,0.418-0.791c-0.464-0.976-0.876-1.822-1.235-2.538
                c-0.359-0.716-0.761-1.515-1.206-2.397c-0.098-0.188-0.229-0.333-0.393-0.437s-0.338-0.167-0.521-0.19v-0.428h3.586v0.428
                c-0.132,0.004-0.285,0.033-0.459,0.088c-0.173,0.055-0.26,0.125-0.26,0.211c0,0.031,0.006,0.065,0.018,0.103
                s0.033,0.091,0.064,0.161c0.132,0.272,0.321,0.651,0.564,1.137c0.244,0.484,0.528,1.053,0.852,1.703
                c0.242-0.553,0.447-1.029,0.617-1.429c0.17-0.399,0.334-0.792,0.495-1.177c0.039-0.098,0.061-0.175,0.067-0.231
                s0.009-0.095,0.009-0.114c0-0.07-0.034-0.132-0.102-0.185c-0.068-0.053-0.149-0.099-0.243-0.138
                c-0.098-0.039-0.191-0.068-0.281-0.088s-0.164-0.033-0.222-0.041v-0.428h2.42V444.615z"/>
            <path fill="#FFFFFF" d="M237.916,450.229c-0.508,0-0.981-0.063-1.421-0.19s-0.812-0.276-1.116-0.448l-0.404,0.41h-0.498
                l-0.076-3.006h0.504c0.113,0.285,0.258,0.588,0.434,0.904c0.176,0.317,0.379,0.602,0.609,0.852c0.238,0.262,0.505,0.476,0.8,0.641
                c0.295,0.164,0.64,0.246,1.034,0.246c0.531,0,0.938-0.13,1.222-0.391c0.283-0.26,0.425-0.587,0.425-0.981
                c0-0.325-0.12-0.597-0.36-0.818c-0.24-0.221-0.612-0.411-1.116-0.573c-0.328-0.105-0.63-0.203-0.905-0.293
                c-0.275-0.091-0.534-0.184-0.776-0.277c-0.559-0.223-0.974-0.541-1.245-0.956s-0.407-0.878-0.407-1.391
                c0-0.324,0.07-0.636,0.211-0.936s0.346-0.568,0.615-0.807c0.258-0.223,0.588-0.405,0.99-0.546s0.84-0.211,1.313-0.211
                c0.461,0,0.893,0.064,1.295,0.193s0.719,0.258,0.949,0.387l0.357-0.352h0.51l0.047,2.836H240.4
                c-0.117-0.306-0.255-0.617-0.413-0.937s-0.325-0.585-0.501-0.796c-0.191-0.227-0.412-0.408-0.662-0.543
                c-0.25-0.136-0.543-0.203-0.879-0.203c-0.422,0-0.767,0.119-1.034,0.357c-0.268,0.239-0.401,0.535-0.401,0.887
                c0,0.332,0.116,0.604,0.349,0.816c0.232,0.211,0.595,0.396,1.087,0.557c0.289,0.098,0.584,0.195,0.885,0.294
                c0.301,0.098,0.568,0.191,0.803,0.281c0.566,0.22,0.997,0.521,1.292,0.907c0.295,0.385,0.442,0.863,0.442,1.434
                c0,0.36-0.084,0.709-0.252,1.045s-0.395,0.615-0.68,0.839c-0.313,0.247-0.674,0.437-1.084,0.569S238.463,450.229,237.916,450.229z
                "/>
            <path fill="#FFFFFF" d="M249.898,442.611c0.41,0.375,0.735,0.828,0.976,1.359s0.36,1.137,0.36,1.816
                c0,0.965-0.241,1.813-0.724,2.543s-1.165,1.256-2.048,1.576c0.012,0.465,0.152,0.867,0.422,1.207s0.588,0.51,0.955,0.51
                c0.227,0,0.425-0.014,0.595-0.041s0.323-0.059,0.46-0.094v0.516c-0.223,0.094-0.553,0.188-0.99,0.284s-0.896,0.144-1.377,0.144
                c-0.656,0-1.196-0.196-1.62-0.589s-0.661-0.94-0.712-1.644c-0.555-0.055-1.07-0.191-1.547-0.41s-0.896-0.514-1.26-0.885
                c-0.355-0.367-0.638-0.803-0.847-1.307s-0.313-1.059-0.313-1.664c0-0.68,0.116-1.296,0.349-1.849s0.552-1.026,0.958-1.421
                c0.402-0.387,0.88-0.685,1.433-0.894s1.142-0.313,1.767-0.313c0.621,0,1.204,0.102,1.749,0.305S249.5,442.248,249.898,442.611z
                M248.393,448.558c0.176-0.355,0.303-0.759,0.381-1.208s0.117-0.957,0.117-1.524c0-0.481-0.034-0.948-0.103-1.404
                s-0.185-0.861-0.349-1.217c-0.168-0.356-0.391-0.642-0.668-0.856s-0.623-0.322-1.037-0.322c-0.707,0-1.244,0.336-1.611,1.006
                s-0.551,1.617-0.551,2.841c0,0.521,0.04,1.011,0.12,1.472s0.206,0.864,0.378,1.208c0.176,0.349,0.398,0.618,0.668,0.813
                c0.27,0.193,0.602,0.29,0.996,0.29c0.387,0,0.719-0.098,0.996-0.293S248.229,448.898,248.393,448.558z"/>
            <path fill="#FFFFFF" d="M259.877,447.334L259.713,450h-7.658v-0.457c0.137-0.012,0.297-0.03,0.48-0.056s0.305-0.05,0.363-0.073
                c0.141-0.055,0.238-0.131,0.293-0.229s0.082-0.223,0.082-0.375v-5.865c0-0.141-0.021-0.257-0.064-0.349s-0.146-0.175-0.311-0.249
                c-0.121-0.055-0.267-0.099-0.437-0.132s-0.306-0.058-0.407-0.073v-0.457h4.564v0.457c-0.125,0.012-0.272,0.028-0.442,0.05
                s-0.317,0.052-0.442,0.091c-0.152,0.051-0.254,0.13-0.305,0.237s-0.076,0.229-0.076,0.366v5.467c0,0.258,0.018,0.461,0.053,0.609
                s0.104,0.258,0.205,0.328c0.102,0.074,0.243,0.122,0.425,0.144s0.433,0.032,0.753,0.032c0.313,0,0.616-0.019,0.911-0.056
                s0.507-0.118,0.636-0.243c0.199-0.199,0.403-0.479,0.612-0.841s0.376-0.692,0.501-0.993H259.877z"/>
        </g>
        <g id="g3001_1_" transform="translate(230.46016,6.4962049)" opacity="0.88">
            <path id="path16_1_" fill="#FFFFFF" d="M30.161,491.263c-2.974-0.074-5.277,0.223-7.211,1.041
                c-0.557,0.222-1.449,0.222-1.523,0.929c0.297,0.297,0.334,0.78,0.595,1.189c0.446,0.743,1.226,1.746,1.933,2.268
                c0.779,0.594,1.561,1.189,2.379,1.709c1.449,0.892,3.085,1.411,4.496,2.305c0.818,0.52,1.637,1.189,2.453,1.747
                c0.41,0.296,0.67,0.78,1.189,0.966c0-0.037,0-0.074,0-0.111c-0.26-0.334-0.334-0.818-0.594-1.189
                c-0.372-0.372-0.744-0.706-1.115-1.078c-1.078-1.449-2.416-2.713-3.865-3.754c-1.189-0.817-3.791-1.933-4.273-3.308
                c0,0-0.038-0.038-0.076-0.074c0.818-0.074,1.785-0.372,2.566-0.594c1.263-0.335,2.414-0.261,3.715-0.596
                c0.596-0.148,1.19-0.334,1.785-0.52c0-0.113,0-0.224,0-0.334c-0.669-0.67-1.152-1.563-1.859-2.193
                c-1.895-1.637-3.977-3.234-6.131-4.572c-1.152-0.744-2.641-1.227-3.867-1.858c-0.445-0.223-1.189-0.334-1.449-0.706
                c-0.669-0.817-1.04-1.896-1.523-2.861c-1.077-2.045-2.119-4.312-3.048-6.467c-0.669-1.45-1.077-2.9-1.896-4.236
                c-3.828-6.319-7.99-10.147-14.383-13.901c-1.375-0.78-3.011-1.115-4.758-1.523c-0.929-0.037-1.857-0.112-2.787-0.149
                c-0.595-0.259-1.189-0.966-1.709-1.3c-2.119-1.339-7.582-4.238-9.144-0.409c-1.003,2.415,1.486,4.794,2.342,6.021
                c0.632,0.855,1.45,1.821,1.896,2.788c0.26,0.631,0.334,1.3,0.594,1.97c0.596,1.635,1.152,3.456,1.934,4.98
                c0.409,0.78,0.854,1.597,1.375,2.305c0.297,0.408,0.818,0.594,0.93,1.263c-0.521,0.743-0.559,1.858-0.855,2.788
                c-1.338,4.199-0.817,9.402,1.078,12.487c0.595,0.929,2.007,2.974,3.902,2.193c1.672-0.669,1.301-2.788,1.783-4.646
                c0.112-0.445,0.038-0.743,0.261-1.04c0.001,0.036,0,0.074,0,0.074c0.521,1.04,1.04,2.044,1.524,3.085
                c1.151,1.82,3.158,3.717,4.831,4.98c0.893,0.669,1.599,1.82,2.714,2.229c0-0.037,0-0.075,0-0.111c-0.037,0-0.037,0-0.075,0
                c-0.224-0.335-0.558-0.483-0.854-0.743c-0.67-0.67-1.412-1.487-1.934-2.229c-1.56-2.083-2.936-4.387-4.162-6.765
                c-0.594-1.153-1.115-2.417-1.598-3.568c-0.224-0.447-0.224-1.116-0.596-1.338c-0.557,0.817-1.375,1.523-1.783,2.527
                c-0.705,1.598-0.78,3.568-1.041,5.611c-0.148,0.037-0.074,0-0.148,0.075c-1.189-0.298-1.598-1.524-2.044-2.564
                c-1.114-2.64-1.301-6.875-0.335-9.923c0.26-0.781,1.376-3.234,0.93-3.978c-0.223-0.706-0.967-1.116-1.375-1.673
                c-0.483-0.707-1.004-1.598-1.338-2.378c-0.893-2.083-1.338-4.387-2.305-6.469c-0.446-0.966-1.227-1.969-1.857-2.86
                c-0.707-1.004-1.487-1.71-2.045-2.898c-0.186-0.409-0.446-1.078-0.148-1.524c0.074-0.297,0.223-0.409,0.52-0.483
                c0.483-0.409,1.859,0.111,2.342,0.335c1.375,0.557,2.527,1.078,3.68,1.858c0.521,0.371,1.078,1.076,1.747,1.264
                c0.26,0,0.521,0,0.78,0c1.189,0.26,2.527,0.074,3.643,0.409c1.969,0.631,3.753,1.561,5.352,2.564
                c4.869,3.084,8.883,7.47,11.596,12.71c0.446,0.855,0.633,1.636,1.041,2.526c0.78,1.822,1.747,3.681,2.527,5.465
                c0.779,1.747,1.523,3.53,2.639,4.979c0.557,0.781,2.787,1.19,3.791,1.6c0.743,0.333,1.895,0.631,2.564,1.04
                c1.264,0.78,2.527,1.673,3.717,2.527C28.19,489.59,30.05,490.519,30.161,491.263L30.161,491.263L30.161,491.263z"/>
            <path id="path18_1_"  fill="#FFFFFF" d="M-7.749,458.966c-0.632,0-1.078,0.074-1.523,0.186
                c0-0.001,0,0.036,0,0.074c0.037,0,0.037,0,0.074,0c0.297,0.595,0.817,1.004,1.189,1.523c0.297,0.595,0.557,1.189,0.854,1.784
                c0.037-0.038,0.074-0.074,0.074-0.074c0.521-0.373,0.78-0.968,0.78-1.858c-0.223-0.261-0.26-0.521-0.445-0.78
                C-6.969,459.448-7.452,459.262-7.749,458.966L-7.749,458.966z"/>
        </g>
    </g>
    <g id="hex_py" class='hex python'>
        <path id="outline_18_" d="M368.143,541.969l60.201-33.607v-67.336l-60.203-33.605l-60.203,33.605v67.336L368.143,541.969z
            M312.32,443.598l55.82-31.16l55.822,31.16v62.191l-55.82,31.16l-55.822-31.16V443.598z"/>
        <polygon id="background_32_" fill="#00B3A1" points="423.962,505.79 423.962,443.599 368.14,412.438 312.318,443.599 
            312.318,505.79 368.142,536.95 	"/>
        <polygon id="background_31_" fill="#00BFB4" points="367.976,425.641 413.13,450.846 413.13,501.152 367.978,526.359 	"/>
        <g transform="translate(0 -308.27)">
            <path fill="#FED142" stroke="#000000" stroke-width="4" stroke-miterlimit="10" d="M366.877,818.161
                c-6.205-0.226-10.045-2.065-11.021-5.28l-0.114-0.374l-0.016-6.303c-0.019-7.215-0.013-7.36,0.372-8.51
                c0.701-2.096,2.357-3.447,4.949-4.035l0.573-0.131l7.125-0.031c5.104-0.023,7.222-0.049,7.465-0.09
                c1.427-0.246,2.362-0.615,3.241-1.276c1.05-0.79,1.916-2.143,2.304-3.595c0.29-1.092,0.283-0.973,0.314-4.805l0.028-3.563h5.133
                l0.498,0.139c2.67,0.746,4.608,3.275,5.434,7.091c0.316,1.468,0.32,1.522,0.321,5.266c0.001,3.644-0.001,3.675-0.256,4.87
                c-0.25,1.174-0.577,2.131-1.066,3.113c-0.987,1.984-2.442,3.328-4.282,3.952c-1.052,0.356-0.172,0.327-10.514,0.356l-9.318,0.027
                v1.693l6.18,0.025l6.178,0.025l0.025,3.039c0.014,1.672,0.008,3.183-0.014,3.357c-0.051,0.425-0.23,0.928-0.488,1.367
                c-0.266,0.45-1.069,1.258-1.616,1.62c-1.659,1.102-4.188,1.772-7.523,1.996C369.666,818.182,368.077,818.204,366.877,818.161
                L366.877,818.161z"/>
            <path fill="#3571A3" stroke="#000000" stroke-width="4" stroke-miterlimit="10" d="M348.897,805.231
                c-1.401-0.255-2.781-1.104-3.757-2.313c-1.848-2.287-2.779-6.102-2.662-10.892c0.072-2.984,0.519-5.2,1.426-7.085
                c1.17-2.429,2.918-3.87,5.278-4.35c0.517-0.105,0.543-0.105,9.647-0.102c5.02,0.002,9.164-0.01,9.209-0.027
                c0.072-0.027,0.082-0.139,0.082-0.873c0-0.463-0.006-0.848-0.012-0.854c-0.008-0.008-2.793-0.024-6.191-0.038l-6.178-0.025
                l-0.014-3.211c-0.014-3.518-0.017-3.477,0.285-4.122c1.043-2.24,4.118-3.6,9.045-4.002c0.356-0.029,1.32-0.066,2.143-0.083
                c5.455-0.106,9.457,0.891,11.561,2.882c0.233,0.221,0.537,0.55,0.676,0.731c0.313,0.413,0.705,1.202,0.854,1.726l0.115,0.398
                v6.627c0,6.187-0.006,6.658-0.091,7.101c-0.108,0.57-0.369,1.372-0.587,1.803c-0.752,1.492-2.139,2.567-3.977,3.084
                c-1.193,0.335-0.65,0.313-8.551,0.347c-7.844,0.035-7.37,0.017-8.471,0.327c-2.136,0.604-3.705,2.267-4.342,4.604
                c-0.287,1.051-0.281,0.952-0.313,4.809l-0.029,3.587l-2.392,0.009C349.848,805.295,349.172,805.282,348.897,805.231
                L348.897,805.231z"/>
        </g>
        <g>
            <path d="M353.197,443.766c0,0.469-0.097,0.872-0.29,1.21s-0.46,0.612-0.8,0.823c-0.352,0.219-0.753,0.377-1.204,0.475
                s-0.958,0.146-1.521,0.146h-0.68v2.338c0,0.141,0.026,0.263,0.079,0.366s0.153,0.187,0.302,0.249
                c0.078,0.031,0.205,0.064,0.381,0.1s0.324,0.059,0.445,0.07V450h-4.506v-0.457c0.113-0.012,0.264-0.028,0.451-0.05
                s0.318-0.048,0.393-0.079c0.152-0.063,0.253-0.139,0.302-0.229s0.073-0.215,0.073-0.375v-5.865c0-0.137-0.023-0.255-0.07-0.354
                s-0.148-0.183-0.305-0.249c-0.109-0.047-0.255-0.089-0.437-0.126s-0.317-0.062-0.407-0.073v-0.457h4.588
                c1.074,0,1.877,0.171,2.408,0.513S353.197,443.063,353.197,443.766z M350.912,444.064c0-0.625-0.126-1.089-0.378-1.392
                s-0.7-0.454-1.345-0.454h-0.486v3.65h0.246c0.641,0,1.128-0.147,1.462-0.442S350.912,444.678,350.912,444.064z"/>
            <path d="M360.375,444.615c-0.176,0.027-0.347,0.094-0.513,0.199s-0.304,0.27-0.413,0.492c-0.336,0.711-0.682,1.468-1.037,2.271
                s-0.75,1.671-1.184,2.604c-0.242,0.523-0.477,0.941-0.703,1.254s-0.439,0.553-0.639,0.721c-0.188,0.156-0.373,0.27-0.557,0.34
                s-0.369,0.105-0.557,0.105c-0.371,0-0.671-0.104-0.899-0.311s-0.343-0.439-0.343-0.697c0-0.109,0.013-0.211,0.038-0.305
                s0.079-0.191,0.161-0.293c0.063-0.086,0.159-0.159,0.289-0.22c0.131-0.061,0.279-0.091,0.443-0.091
                c0.219,0,0.427,0.076,0.626,0.229s0.406,0.363,0.62,0.633c0.129-0.129,0.289-0.322,0.479-0.578
                c0.189-0.258,0.328-0.521,0.418-0.791c-0.465-0.976-0.876-1.822-1.235-2.538c-0.358-0.716-0.761-1.515-1.206-2.397
                c-0.098-0.188-0.229-0.333-0.393-0.437s-0.338-0.167-0.521-0.19v-0.428h3.586v0.428c-0.133,0.004-0.285,0.033-0.459,0.088
                s-0.26,0.125-0.26,0.211c0,0.031,0.006,0.065,0.018,0.103s0.033,0.091,0.064,0.161c0.133,0.272,0.32,0.651,0.564,1.137
                c0.244,0.484,0.527,1.053,0.852,1.703c0.242-0.553,0.447-1.029,0.617-1.429s0.334-0.792,0.494-1.177
                c0.039-0.098,0.062-0.175,0.067-0.231s0.009-0.095,0.009-0.114c0-0.07-0.034-0.132-0.102-0.185
                c-0.068-0.053-0.15-0.099-0.243-0.138c-0.098-0.039-0.19-0.068-0.28-0.088s-0.164-0.033-0.223-0.041v-0.428h2.42V444.615z"/>
            <path d="M364.857,449.73c-0.25,0.109-0.518,0.208-0.803,0.296s-0.633,0.132-1.043,0.132c-0.609,0-1.062-0.148-1.356-0.445
                c-0.295-0.296-0.442-0.719-0.442-1.27v-3.594h-1.055v-0.639h1.078v-1.775h1.898v1.775h1.646v0.639h-1.635v3.207
                c0,0.456,0.063,0.779,0.191,0.971c0.127,0.191,0.355,0.287,0.685,0.287c0.106,0,0.253-0.008,0.44-0.023
                c0.188-0.016,0.32-0.033,0.395-0.053V449.73z"/>
            <path d="M372.885,450h-3.521v-0.428c0.078-0.008,0.17-0.018,0.275-0.029s0.184-0.031,0.234-0.059
                c0.082-0.043,0.14-0.105,0.173-0.188s0.05-0.203,0.05-0.363v-2.742c0-0.402-0.075-0.703-0.226-0.902s-0.364-0.299-0.642-0.299
                c-0.156,0-0.302,0.023-0.437,0.07s-0.267,0.115-0.396,0.205c-0.113,0.078-0.204,0.158-0.272,0.24s-0.126,0.154-0.173,0.217v3.146
                c0,0.145,0.018,0.259,0.053,0.343s0.102,0.153,0.199,0.208c0.059,0.035,0.136,0.066,0.231,0.094s0.188,0.047,0.278,0.059V450
                h-3.574v-0.428c0.102-0.008,0.201-0.018,0.298-0.029s0.182-0.031,0.257-0.059c0.125-0.047,0.211-0.114,0.256-0.202
                c0.046-0.088,0.068-0.204,0.068-0.349V442.4c0-0.125-0.029-0.258-0.088-0.398s-0.141-0.246-0.246-0.316
                c-0.078-0.051-0.191-0.091-0.34-0.12s-0.281-0.048-0.398-0.056v-0.428l2.918-0.152l0.088,0.094v4.031h0.023
                c0.148-0.133,0.281-0.253,0.4-0.36s0.265-0.216,0.437-0.325c0.144-0.094,0.332-0.174,0.564-0.24c0.231-0.066,0.482-0.1,0.752-0.1
                c0.632,0,1.106,0.182,1.425,0.545c0.317,0.363,0.477,0.842,0.477,1.436v2.871c0,0.145,0.021,0.26,0.064,0.346
                s0.123,0.154,0.24,0.205c0.07,0.031,0.148,0.059,0.234,0.082s0.191,0.043,0.316,0.059V450z"/>
            <path d="M379.406,444.879c0.289,0.27,0.51,0.592,0.662,0.967s0.229,0.781,0.229,1.219c0,0.434-0.075,0.843-0.226,1.228
                s-0.37,0.714-0.659,0.987c-0.309,0.293-0.677,0.518-1.104,0.674s-0.917,0.234-1.468,0.234c-0.477,0-0.915-0.068-1.315-0.205
                s-0.755-0.342-1.063-0.615c-0.297-0.262-0.531-0.585-0.703-0.97s-0.258-0.815-0.258-1.292c0-0.469,0.075-0.886,0.226-1.251
                s0.376-0.69,0.677-0.976c0.289-0.273,0.646-0.485,1.069-0.636s0.897-0.226,1.421-0.226c0.547,0,1.028,0.075,1.444,0.226
                S379.109,444.605,379.406,444.879z M377.906,448.939c0.086-0.219,0.149-0.484,0.19-0.797s0.062-0.676,0.062-1.09
                c0-0.273-0.02-0.586-0.059-0.938s-0.098-0.629-0.176-0.832c-0.094-0.246-0.224-0.439-0.39-0.58s-0.376-0.211-0.63-0.211
                c-0.277,0-0.499,0.076-0.665,0.229s-0.294,0.35-0.384,0.592c-0.082,0.223-0.139,0.483-0.17,0.782s-0.047,0.61-0.047,0.935
                c0,0.426,0.014,0.778,0.041,1.058s0.094,0.56,0.199,0.841c0.09,0.242,0.219,0.434,0.387,0.574s0.381,0.211,0.639,0.211
                c0.234,0,0.436-0.065,0.604-0.196S377.809,449.193,377.906,448.939z"/>
            <path d="M388.787,450h-3.521v-0.428c0.074-0.008,0.164-0.018,0.27-0.029s0.186-0.031,0.24-0.059
                c0.082-0.043,0.141-0.105,0.176-0.188s0.053-0.203,0.053-0.363v-2.742c0-0.398-0.074-0.698-0.221-0.899s-0.363-0.302-0.648-0.302
                c-0.157,0-0.303,0.023-0.438,0.07c-0.136,0.047-0.268,0.115-0.397,0.205c-0.113,0.078-0.204,0.158-0.272,0.24
                c-0.069,0.082-0.127,0.154-0.174,0.217v3.146c0,0.137,0.02,0.251,0.059,0.343s0.104,0.161,0.193,0.208
                c0.063,0.035,0.141,0.066,0.234,0.094s0.186,0.047,0.275,0.059V450h-3.563v-0.428c0.098-0.008,0.196-0.019,0.296-0.032
                s0.185-0.032,0.255-0.056c0.125-0.043,0.211-0.109,0.258-0.199s0.07-0.207,0.07-0.352v-3.41c0-0.121-0.031-0.24-0.094-0.357
                s-0.145-0.213-0.246-0.287c-0.07-0.047-0.159-0.086-0.267-0.117s-0.226-0.053-0.354-0.064v-0.428l2.795-0.152l0.088,0.088v0.85
                h0.023c0.109-0.098,0.242-0.215,0.398-0.352s0.301-0.248,0.434-0.334c0.145-0.094,0.334-0.174,0.568-0.24s0.484-0.1,0.75-0.1
                c0.637,0,1.114,0.181,1.433,0.542s0.478,0.841,0.478,1.438v2.871c0,0.145,0.021,0.26,0.064,0.346s0.123,0.154,0.24,0.205
                c0.063,0.027,0.14,0.055,0.231,0.082s0.196,0.047,0.313,0.059V450z"/>
        </g>
    </g>
    <g id="hex_ph" class='hex php'>
        <path id="outline_16_" d="M172.143,434.969l60.201-33.607v-67.336l-60.203-33.605l-60.204,33.605v67.336L172.143,434.969z
            M116.32,336.598l55.821-31.16l55.822,31.16v62.191l-55.82,31.16l-55.823-31.16V336.598z"/>
        <polygon id="background_23_" fill="#777BB3" points="227.962,398.79 227.962,336.599 172.14,305.438 116.319,336.599 
            116.319,398.79 172.142,429.95 	"/>
        <polygon id="background_22_" fill="#9F97B6" points="171.976,318.641 217.13,343.846 217.13,394.152 171.978,419.359 	"/>
        <polygon opacity="0.78" fill="#FFFFFF" points="154,351 154,402 167,402 167,376.539 167,362 177,362 177,374 172,374 172,383 
            190,383 190,351 	"/>
        <g>
            <path fill="#FFFFFF" d="M167.477,340.097c0,0.824-0.275,1.531-0.825,2.121c-0.55,0.59-1.246,0.885-2.089,0.885
                c-0.375,0-0.679-0.038-0.913-0.114c-0.234-0.076-0.427-0.169-0.579-0.278h-0.047v1.646c0,0.137,0.03,0.256,0.091,0.357
                s0.146,0.176,0.255,0.223c0.105,0.043,0.255,0.082,0.448,0.117s0.354,0.057,0.483,0.064v0.434h-4.236v-0.434
                c0.098-0.008,0.221-0.022,0.369-0.044s0.26-0.044,0.334-0.067c0.125-0.043,0.21-0.116,0.255-0.22s0.067-0.222,0.067-0.354v-5.994
                c-0.012-0.129-0.042-0.242-0.091-0.34s-0.126-0.184-0.231-0.258c-0.078-0.051-0.182-0.093-0.311-0.126s-0.256-0.056-0.381-0.067
                v-0.428l2.859-0.152l0.088,0.076v0.65l0.047,0.012c0.257-0.262,0.543-0.465,0.857-0.609c0.314-0.145,0.625-0.217,0.933-0.217
                c0.808,0,1.445,0.286,1.914,0.858S167.477,339.163,167.477,340.097z M165.373,340.12c0-0.293-0.021-0.573-0.064-0.841
                c-0.042-0.268-0.119-0.507-0.228-0.718c-0.105-0.211-0.245-0.379-0.418-0.504c-0.174-0.125-0.385-0.188-0.634-0.188
                c-0.253,0-0.456,0.044-0.608,0.132s-0.285,0.202-0.397,0.343v3.322c0.023,0.078,0.068,0.179,0.134,0.302
                c0.066,0.123,0.133,0.222,0.199,0.296c0.098,0.105,0.208,0.184,0.333,0.234c0.125,0.051,0.261,0.076,0.409,0.076
                c0.385,0,0.694-0.208,0.926-0.624C165.257,341.535,165.373,340.925,165.373,340.12z"/>
            <path fill="#FFFFFF" d="M175.85,342.95h-3.521v-0.428c0.078-0.008,0.17-0.018,0.275-0.029s0.184-0.031,0.234-0.059
                c0.082-0.043,0.14-0.105,0.173-0.188s0.05-0.203,0.05-0.363v-2.742c0-0.402-0.075-0.703-0.226-0.902s-0.364-0.299-0.642-0.299
                c-0.156,0-0.302,0.023-0.437,0.07s-0.267,0.115-0.396,0.205c-0.113,0.078-0.204,0.158-0.272,0.24s-0.126,0.154-0.173,0.217v3.146
                c0,0.145,0.018,0.259,0.053,0.343s0.102,0.153,0.199,0.208c0.059,0.035,0.136,0.066,0.231,0.094s0.188,0.047,0.278,0.059v0.428
                h-3.574v-0.428c0.102-0.008,0.202-0.018,0.298-0.029s0.182-0.031,0.257-0.059c0.125-0.047,0.211-0.114,0.256-0.202
                s0.068-0.204,0.068-0.349v-6.533c0-0.125-0.029-0.258-0.088-0.398s-0.141-0.246-0.246-0.316c-0.078-0.051-0.191-0.091-0.34-0.12
                s-0.281-0.048-0.398-0.056v-0.428l2.918-0.152l0.088,0.094v4.031h0.023c0.148-0.133,0.282-0.253,0.401-0.36
                c0.119-0.107,0.264-0.216,0.436-0.325c0.144-0.094,0.332-0.174,0.564-0.24c0.232-0.066,0.482-0.1,0.752-0.1
                c0.632,0,1.106,0.182,1.424,0.545s0.477,0.842,0.477,1.436v2.871c0,0.145,0.021,0.26,0.064,0.346s0.123,0.154,0.24,0.205
                c0.07,0.031,0.148,0.059,0.234,0.082s0.191,0.043,0.316,0.059V342.95z"/>
            <path fill="#FFFFFF" d="M183.525,340.097c0,0.824-0.275,1.531-0.825,2.121c-0.55,0.59-1.246,0.885-2.089,0.885
                c-0.375,0-0.679-0.038-0.913-0.114c-0.234-0.076-0.427-0.169-0.579-0.278h-0.047v1.646c0,0.137,0.03,0.256,0.091,0.357
                s0.146,0.176,0.255,0.223c0.105,0.043,0.255,0.082,0.448,0.117s0.354,0.057,0.483,0.064v0.434h-4.236v-0.434
                c0.098-0.008,0.221-0.022,0.369-0.044s0.26-0.044,0.334-0.067c0.125-0.043,0.21-0.116,0.255-0.22s0.067-0.222,0.067-0.354v-5.994
                c-0.012-0.129-0.042-0.242-0.091-0.34s-0.126-0.184-0.231-0.258c-0.078-0.051-0.182-0.093-0.311-0.126s-0.256-0.056-0.381-0.067
                v-0.428l2.859-0.152l0.088,0.076v0.65l0.047,0.012c0.257-0.262,0.543-0.465,0.857-0.609c0.314-0.145,0.625-0.217,0.933-0.217
                c0.808,0,1.445,0.286,1.914,0.858S183.525,339.163,183.525,340.097z M181.422,340.12c0-0.293-0.021-0.573-0.064-0.841
                c-0.042-0.268-0.119-0.507-0.228-0.718c-0.105-0.211-0.245-0.379-0.418-0.504c-0.174-0.125-0.385-0.188-0.634-0.188
                c-0.253,0-0.456,0.044-0.608,0.132s-0.285,0.202-0.397,0.343v3.322c0.023,0.078,0.068,0.179,0.134,0.302
                c0.066,0.123,0.133,0.222,0.199,0.296c0.098,0.105,0.208,0.184,0.333,0.234c0.125,0.051,0.261,0.076,0.409,0.076
                c0.385,0,0.694-0.208,0.926-0.624C181.306,341.535,181.422,340.925,181.422,340.12z"/>
        </g>
    </g>
    <g id="hex_cs" class='hex css'>
        <path id="outline_15_" d="M433.143,434.969l60.201-33.607v-67.336l-60.203-33.605l-60.203,33.605v67.336L433.143,434.969z
            M377.32,336.598l55.82-31.16l55.822,31.16v62.191l-55.82,31.16l-55.822-31.16V336.598z"/>
        <polygon id="background_21_" fill="#264DE4" points="488.962,398.79 488.962,336.599 433.14,305.438 377.318,336.599 
            377.318,398.79 433.142,429.95 	"/>
        <polygon id="background_20_" fill="#2965F1" points="432.976,318.641 478.13,343.846 478.13,394.152 432.978,419.359 	"/>
        <polygon id="polygon2993" fill="#EBEBEB" points="411.037,370.992 411.844,379.998 431.995,379.998 431.995,370.992 	"/>
        <polygon id="polygon2995" fill="#EBEBEB" points="409.415,352.768 410.234,361.771 431.995,361.771 431.995,352.768 
            431.963,352.768 	"/>
        <polygon id="polygon2997" fill="#EBEBEB" points="431.995,394.379 431.954,394.388 421.926,391.681 421.285,384.499 
            416.412,384.499 412.246,384.499 413.508,398.639 431.953,403.759 431.995,403.748 	"/>
        <polygon id="polygon3005" fill="#FFFFFF" points="452.894,370.992 454.52,352.768 431.963,352.768 431.963,361.771 
            444.651,361.771 443.831,370.992 431.963,370.992 431.963,379.998 443.051,379.998 442.006,391.676 431.963,394.386 
            431.963,403.754 450.423,398.639 450.558,397.117 452.675,373.411 	"/>
        <g>
            <path fill="#FFFFFF" d="M424.469,342.136c-0.609,0-1.18-0.099-1.711-0.296s-0.994-0.484-1.389-0.859
                c-0.387-0.368-0.691-0.822-0.914-1.365c-0.223-0.541-0.334-1.137-0.334-1.786c0-0.646,0.112-1.243,0.337-1.792
                c0.225-0.55,0.54-1.025,0.946-1.43c0.398-0.395,0.877-0.7,1.436-0.918c0.559-0.217,1.156-0.325,1.793-0.325
                c0.461,0,0.881,0.057,1.26,0.17s0.699,0.24,0.961,0.381l0.363-0.322h0.51l0.053,3.035h-0.516
                c-0.293-0.928-0.644-1.608-1.053-2.044c-0.41-0.434-0.91-0.651-1.499-0.651c-0.733,0-1.291,0.323-1.674,0.972
                c-0.382,0.646-0.573,1.556-0.573,2.726c0,0.661,0.065,1.226,0.195,1.693c0.131,0.468,0.303,0.844,0.513,1.13
                c0.227,0.297,0.493,0.516,0.802,0.654s0.65,0.208,1.024,0.208c0.546,0,1.033-0.148,1.46-0.445
                c0.428-0.297,0.816-0.746,1.168-1.348l0.504,0.305c-0.168,0.344-0.359,0.651-0.574,0.923s-0.463,0.505-0.744,0.7
                c-0.309,0.215-0.649,0.383-1.022,0.504S424.977,342.136,424.469,342.136z"/>
            <path fill="#FFFFFF" d="M432.18,342.136c-0.508,0-0.981-0.063-1.421-0.19s-0.812-0.276-1.116-0.448l-0.404,0.41h-0.498
                l-0.076-3.006h0.504c0.113,0.286,0.258,0.587,0.434,0.904s0.379,0.601,0.609,0.852c0.238,0.263,0.505,0.476,0.8,0.64
                c0.295,0.165,0.64,0.247,1.034,0.247c0.531,0,0.938-0.13,1.222-0.39s0.425-0.588,0.425-0.982c0-0.324-0.12-0.598-0.36-0.818
                s-0.612-0.412-1.116-0.572c-0.328-0.105-0.63-0.204-0.905-0.295c-0.275-0.09-0.534-0.182-0.776-0.276
                c-0.559-0.223-0.974-0.542-1.245-0.956s-0.407-0.878-0.407-1.391c0-0.324,0.07-0.637,0.211-0.936s0.346-0.568,0.615-0.807
                c0.258-0.223,0.588-0.404,0.99-0.545c0.402-0.142,0.84-0.212,1.313-0.212c0.461,0,0.893,0.064,1.295,0.193
                s0.719,0.258,0.949,0.387l0.357-0.352h0.51l0.047,2.836h-0.504c-0.117-0.306-0.255-0.618-0.413-0.937
                c-0.158-0.319-0.325-0.584-0.501-0.796c-0.191-0.228-0.412-0.408-0.662-0.544c-0.25-0.135-0.543-0.202-0.879-0.202
                c-0.422,0-0.767,0.119-1.034,0.358c-0.268,0.238-0.401,0.533-0.401,0.886c0,0.333,0.116,0.604,0.349,0.815
                c0.232,0.212,0.595,0.397,1.087,0.559c0.289,0.098,0.584,0.195,0.885,0.293s0.568,0.191,0.803,0.281
                c0.566,0.219,0.997,0.521,1.292,0.906c0.295,0.386,0.442,0.863,0.442,1.436c0,0.359-0.084,0.707-0.252,1.044
                s-0.395,0.616-0.68,0.839c-0.313,0.246-0.674,0.436-1.084,0.568C433.205,342.069,432.727,342.136,432.18,342.136z"/>
            <path fill="#FFFFFF" d="M439.967,342.136c-0.508,0-0.981-0.063-1.421-0.19s-0.812-0.276-1.116-0.448l-0.404,0.41h-0.498
                l-0.076-3.006h0.504c0.113,0.286,0.258,0.587,0.434,0.904s0.379,0.601,0.609,0.852c0.238,0.263,0.505,0.476,0.8,0.64
                c0.295,0.165,0.64,0.247,1.034,0.247c0.531,0,0.938-0.13,1.222-0.39s0.425-0.588,0.425-0.982c0-0.324-0.12-0.598-0.36-0.818
                s-0.612-0.412-1.116-0.572c-0.328-0.105-0.63-0.204-0.905-0.295c-0.275-0.09-0.534-0.182-0.776-0.276
                c-0.559-0.223-0.974-0.542-1.245-0.956s-0.407-0.878-0.407-1.391c0-0.324,0.07-0.637,0.211-0.936s0.346-0.568,0.615-0.807
                c0.258-0.223,0.588-0.404,0.99-0.545c0.402-0.142,0.84-0.212,1.313-0.212c0.461,0,0.893,0.064,1.295,0.193
                s0.719,0.258,0.949,0.387l0.357-0.352h0.51l0.047,2.836h-0.504c-0.117-0.306-0.255-0.618-0.413-0.937
                c-0.158-0.319-0.325-0.584-0.501-0.796c-0.191-0.228-0.412-0.408-0.662-0.544c-0.25-0.135-0.543-0.202-0.879-0.202
                c-0.422,0-0.767,0.119-1.034,0.358c-0.268,0.238-0.401,0.533-0.401,0.886c0,0.333,0.116,0.604,0.349,0.815
                c0.232,0.212,0.595,0.397,1.087,0.559c0.289,0.098,0.584,0.195,0.885,0.293s0.568,0.191,0.803,0.281
                c0.566,0.219,0.997,0.521,1.292,0.906c0.295,0.386,0.442,0.863,0.442,1.436c0,0.359-0.084,0.707-0.252,1.044
                s-0.395,0.616-0.68,0.839c-0.313,0.246-0.674,0.436-1.084,0.568C440.992,342.069,440.514,342.136,439.967,342.136z"/>
        </g>
    </g>
    <g id="hex_ht" class='hex html'>
        <path id="outline_14_" d="M368.143,325.969l60.201-33.607v-67.336l-60.203-33.605l-60.203,33.605v67.336L368.143,325.969z
            M312.32,227.598l55.82-31.16l55.822,31.16v62.191l-55.82,31.16l-55.822-31.16V227.598z"/>
        <polygon id="background_26_" fill="#E44D26" points="423.962,289.79 423.962,227.599 368.14,196.438 312.318,227.599 
            312.318,289.79 368.142,320.95 	"/>
        <polygon id="background_25_" fill="#F16529" points="367.976,209.641 413.13,234.846 413.13,285.152 367.978,310.359 	"/>
        <g>
            <path d="M359.624,233.907h-4.494v-0.457c0.098-0.008,0.24-0.02,0.428-0.035s0.316-0.039,0.387-0.07
                c0.145-0.059,0.244-0.136,0.299-0.231s0.082-0.218,0.082-0.366v-2.865h-3.551v2.801c0,0.133,0.028,0.252,0.085,0.357
                s0.153,0.188,0.29,0.246c0.074,0.031,0.201,0.064,0.381,0.1s0.326,0.057,0.439,0.064v0.457h-4.494v-0.457
                c0.098-0.004,0.241-0.017,0.431-0.038s0.327-0.048,0.413-0.079c0.141-0.051,0.238-0.128,0.293-0.231s0.082-0.226,0.082-0.366
                v-5.883c0-0.137-0.024-0.252-0.073-0.346s-0.149-0.176-0.302-0.246c-0.113-0.051-0.262-0.097-0.445-0.138
                s-0.316-0.065-0.398-0.073v-0.457h4.494v0.457c-0.121,0.008-0.266,0.027-0.434,0.059s-0.297,0.061-0.387,0.088
                c-0.152,0.051-0.253,0.132-0.302,0.243s-0.073,0.229-0.073,0.354v2.484h3.551v-2.426c0-0.137-0.025-0.252-0.076-0.346
                s-0.152-0.176-0.305-0.246c-0.102-0.047-0.237-0.091-0.407-0.132s-0.306-0.067-0.407-0.079v-0.457h4.494v0.457
                c-0.125,0.008-0.266,0.024-0.422,0.05s-0.297,0.058-0.422,0.097c-0.148,0.051-0.248,0.131-0.299,0.24s-0.076,0.229-0.076,0.357
                v5.889c0,0.141,0.025,0.26,0.076,0.357s0.15,0.18,0.299,0.246c0.094,0.039,0.229,0.074,0.407,0.105s0.323,0.051,0.437,0.059
                V233.907z"/>
            <path d="M368.161,227.972h-0.457c-0.121-0.355-0.314-0.736-0.581-1.143c-0.268-0.406-0.514-0.625-0.74-0.656
                c-0.125-0.016-0.279-0.029-0.462-0.041s-0.341-0.018-0.474-0.018h-0.274v6.521c0,0.141,0.025,0.265,0.076,0.372
                s0.15,0.192,0.299,0.255c0.09,0.035,0.229,0.071,0.419,0.108s0.351,0.063,0.483,0.079v0.457h-4.635v-0.457
                c0.113-0.012,0.272-0.028,0.478-0.05s0.345-0.048,0.419-0.079c0.152-0.063,0.254-0.146,0.305-0.252s0.076-0.23,0.076-0.375v-6.58
                h-0.274c-0.133,0-0.291,0.006-0.474,0.018c-0.184,0.012-0.337,0.025-0.462,0.041c-0.227,0.031-0.473,0.25-0.74,0.656
                c-0.267,0.406-0.461,0.787-0.581,1.143h-0.457v-2.379h8.057V227.972z"/>
            <path d="M380.067,233.907h-4.506v-0.457c0.133-0.012,0.296-0.031,0.489-0.059s0.325-0.057,0.396-0.088
                c0.145-0.059,0.248-0.139,0.311-0.24s0.094-0.23,0.094-0.387v-6.211l-2.859,7.307h-0.738c-0.035-0.129-0.122-0.385-0.261-0.768
                s-0.251-0.689-0.337-0.92l-2.104-5.713v5.057c0,0.484,0.032,0.853,0.097,1.104s0.169,0.437,0.313,0.554
                c0.098,0.082,0.272,0.16,0.524,0.234s0.429,0.117,0.53,0.129v0.457h-3.574v-0.457c0.098-0.012,0.257-0.038,0.478-0.079
                s0.401-0.112,0.542-0.214c0.156-0.109,0.262-0.294,0.316-0.554s0.082-0.63,0.082-1.11v-4.119c0-0.25-0.031-0.458-0.094-0.624
                s-0.156-0.298-0.281-0.396c-0.156-0.121-0.316-0.199-0.48-0.234s-0.33-0.059-0.498-0.07v-0.457h3.831l2.05,5.478l1.728-4.446
                c0.059-0.164,0.115-0.36,0.17-0.586c0.055-0.227,0.084-0.375,0.088-0.446h3.683v0.457c-0.125,0.008-0.256,0.023-0.393,0.047
                s-0.268,0.055-0.393,0.094c-0.152,0.051-0.253,0.131-0.302,0.24s-0.073,0.23-0.073,0.363v5.889c0,0.141,0.024,0.259,0.073,0.354
                s0.149,0.179,0.302,0.249c0.078,0.035,0.206,0.068,0.384,0.1s0.315,0.053,0.413,0.064V233.907z"/>
            <path d="M388.745,231.241l-0.164,2.666h-7.658v-0.457c0.137-0.012,0.297-0.03,0.48-0.056s0.305-0.05,0.363-0.073
                c0.141-0.055,0.238-0.131,0.293-0.229s0.082-0.223,0.082-0.375v-5.865c0-0.141-0.021-0.257-0.064-0.349s-0.146-0.175-0.311-0.249
                c-0.121-0.055-0.267-0.099-0.437-0.132s-0.306-0.058-0.407-0.073v-0.457h4.564v0.457c-0.125,0.012-0.272,0.028-0.442,0.05
                s-0.317,0.052-0.442,0.091c-0.152,0.051-0.254,0.13-0.305,0.237s-0.076,0.229-0.076,0.366v5.467c0,0.258,0.018,0.461,0.053,0.609
                s0.104,0.258,0.205,0.328c0.102,0.074,0.243,0.122,0.425,0.144s0.433,0.032,0.753,0.032c0.313,0,0.616-0.019,0.911-0.056
                s0.507-0.118,0.636-0.243c0.199-0.199,0.403-0.479,0.612-0.841s0.376-0.692,0.501-0.993H388.745z"/>
        </g>
        <polygon id="polygon3032_2_" fill="#EBEBEB" points="355.205,254.163 368.168,254.163 368.168,245 368.137,245 345.189,245 
            345.409,247.459 347.661,272.71 368.168,272.71 368.168,263.547 356.042,263.547 	"/>
        <polygon id="polygon3034_2_" fill="#EBEBEB" points="357.27,277.293 352.311,277.293 348.071,277.293 349.355,291.681 
            368.126,296.892 368.168,296.88 368.168,287.346 368.127,287.356 357.922,284.602 	"/>
        <polygon id="polygon3044_2_" fill="#FFFFFF" points="368.137,272.71 379.42,272.71 378.356,284.596 368.137,287.354 
            368.137,296.887 386.922,291.681 387.061,290.133 389.214,266.008 389.438,263.547 386.969,263.547 368.137,263.547 	"/>
        <polygon id="polygon3046_2_" fill="#FFFFFF" points="368.137,254.142 368.137,254.163 390.24,254.163 390.24,254.163 
            390.271,254.163 390.455,252.104 390.872,247.459 391.092,245 368.137,245 368.137,250.691 	"/>
    </g>
    <g id="hex_js" class='hex javascript'>
        <path id="outline_17_" d="M303.143,434.969l60.201-33.607v-67.336l-60.203-33.605l-60.203,33.605v67.336L303.143,434.969z
            M247.32,336.598l55.82-31.16l55.822,31.16v62.191l-55.82,31.16l-55.822-31.16V336.598z"/>
        <polygon id="background_24_" fill="#E5A228" points="358.962,398.79 358.962,336.599 303.14,305.438 247.318,336.599 
            247.318,398.79 303.142,429.95 	"/>
        <polygon id="background_19_" fill="#F1BF26" points="302.976,318.641 348.13,343.846 348.13,394.152 302.978,419.359 	"/>
        <g>
            <g>
                <polygon fill="none" points="302.976,398.529 312.846,395.505 314.027,385 303,385 303,398.481 			"/>
                <polygon fill="#FFFFFF" points="303,385 314.027,385 312.761,395.505 302.976,398.566 303,398.481 303,407.501 302.976,407.54 
                    320.764,402.235 323.292,375 303,375 			"/>
                <polygon fill="#FFFFFF" points="313.395,362 314.385,370.919 323.292,370.74 321.867,352 303,352 303,362 			"/>
            </g>
            <g>
                <polygon fill="none" points="302.976,398.529 312.846,395.505 314.027,385 303,385 303,398.481 			"/>
                <polygon fill="#ECEDEE" points="283.385,385 303,385 303,375 293.123,375 294.313,362 303,362 303,352 286.473,352 			"/>
                <polygon fill="#ECEDEE" points="293.295,395.457 292.412,389 282.988,389 284.426,402.703 303,407.501 303,398.481 			"/>
            </g>
        </g>
        <g>
            <path d="M276.499,339.143c-0.156,0.02-0.289,0.039-0.398,0.059s-0.232,0.047-0.369,0.082c-0.16,0.043-0.263,0.119-0.308,0.229
                s-0.067,0.234-0.067,0.375v4.586c0,0.422-0.085,0.809-0.255,1.161c-0.17,0.352-0.403,0.647-0.7,0.886
                c-0.301,0.234-0.637,0.411-1.008,0.53s-0.768,0.179-1.189,0.179c-0.73,0-1.319-0.176-1.767-0.527s-0.671-0.834-0.671-1.447
                c0-0.363,0.103-0.664,0.308-0.902s0.487-0.357,0.847-0.357c0.34,0,0.61,0.1,0.812,0.299s0.302,0.445,0.302,0.738
                c0,0.25-0.087,0.481-0.261,0.694s-0.372,0.409-0.595,0.589v0.076c0.035,0.078,0.112,0.145,0.229,0.199
                c0.118,0.055,0.237,0.082,0.358,0.082c0.47,0,0.839-0.168,1.108-0.504c0.268-0.336,0.402-0.845,0.402-1.525v-4.697
                c0-0.141-0.021-0.258-0.065-0.352c-0.043-0.094-0.147-0.176-0.312-0.246c-0.118-0.051-0.26-0.094-0.427-0.129
                c-0.167-0.035-0.305-0.061-0.415-0.076v-0.457h4.441V339.143z"/>
            <path d="M283.847,346.877c-0.171,0.074-0.375,0.143-0.608,0.205s-0.481,0.094-0.742,0.094c-0.48,0-0.833-0.071-1.059-0.214
                s-0.38-0.347-0.462-0.612h-0.035c-0.133,0.133-0.261,0.246-0.384,0.34c-0.124,0.094-0.255,0.174-0.396,0.24
                c-0.184,0.086-0.361,0.15-0.531,0.193c-0.17,0.043-0.408,0.064-0.713,0.064c-0.454,0-0.841-0.134-1.162-0.402
                c-0.32-0.268-0.481-0.623-0.481-1.064c0-0.254,0.035-0.471,0.105-0.648c0.071-0.178,0.17-0.336,0.299-0.473
                c0.118-0.125,0.253-0.229,0.408-0.311c0.154-0.082,0.324-0.158,0.507-0.229c0.352-0.129,0.775-0.263,1.268-0.401
                c0.493-0.139,0.853-0.264,1.08-0.373v-0.563c0-0.098-0.008-0.227-0.023-0.387s-0.049-0.295-0.1-0.404
                c-0.055-0.125-0.141-0.23-0.258-0.316s-0.272-0.129-0.463-0.129c-0.172,0-0.315,0.024-0.431,0.073s-0.208,0.099-0.278,0.149
                c0.012,0.078,0.045,0.197,0.1,0.357c0.055,0.16,0.083,0.314,0.083,0.463c0,0.066-0.018,0.149-0.053,0.249
                c-0.036,0.1-0.086,0.179-0.153,0.237c-0.09,0.078-0.191,0.139-0.303,0.182s-0.283,0.064-0.514,0.064
                c-0.329,0-0.578-0.079-0.747-0.237c-0.168-0.158-0.252-0.364-0.252-0.618c0-0.219,0.087-0.415,0.261-0.589
                s0.386-0.317,0.636-0.431c0.246-0.117,0.529-0.208,0.85-0.272s0.617-0.097,0.891-0.097c0.379,0,0.727,0.022,1.043,0.067
                s0.602,0.138,0.855,0.278c0.242,0.137,0.435,0.335,0.577,0.595s0.214,0.599,0.214,1.017c0,0.441-0.009,0.965-0.026,1.57
                s-0.026,1.004-0.026,1.195c0,0.176,0.026,0.314,0.079,0.416s0.134,0.178,0.243,0.229c0.066,0.031,0.171,0.05,0.313,0.056
                s0.272,0.009,0.39,0.009V346.877z M280.94,343.824c-0.22,0.074-0.437,0.16-0.653,0.256c-0.215,0.096-0.392,0.196-0.529,0.303
                c-0.145,0.109-0.259,0.249-0.341,0.42c-0.083,0.17-0.124,0.371-0.124,0.602c0,0.305,0.07,0.526,0.208,0.664
                c0.14,0.137,0.311,0.205,0.515,0.205c0.216,0,0.393-0.044,0.532-0.133c0.139-0.088,0.262-0.196,0.368-0.325L280.94,343.824z"/>
            <path d="M290.978,341.615c-0.176,0.027-0.347,0.094-0.513,0.199s-0.304,0.27-0.413,0.492c-0.273,0.57-0.542,1.146-0.806,1.726
                s-0.522,1.142-0.776,1.685c-0.078,0.164-0.167,0.375-0.267,0.633s-0.183,0.492-0.249,0.703h-1.078
                c-0.449-1.043-0.833-1.908-1.151-2.596s-0.655-1.426-1.011-2.215c-0.082-0.184-0.21-0.328-0.384-0.434s-0.351-0.17-0.53-0.193
                v-0.428h3.609v0.428c-0.133,0.004-0.289,0.033-0.468,0.088c-0.18,0.055-0.27,0.125-0.27,0.211c0,0.023,0.008,0.059,0.023,0.105
                s0.035,0.1,0.059,0.158c0.125,0.297,0.314,0.725,0.567,1.283c0.252,0.558,0.52,1.146,0.802,1.762
                c0.195-0.425,0.381-0.842,0.559-1.25c0.178-0.408,0.397-0.928,0.658-1.561c0.035-0.094,0.056-0.17,0.062-0.229
                s0.009-0.098,0.009-0.117c0-0.07-0.034-0.132-0.103-0.185c-0.069-0.053-0.15-0.099-0.244-0.138
                c-0.098-0.039-0.192-0.068-0.282-0.088c-0.09-0.02-0.165-0.033-0.223-0.041v-0.428h2.42V341.615z"/>
            <path d="M297.798,346.877c-0.171,0.074-0.375,0.143-0.608,0.205s-0.481,0.094-0.742,0.094c-0.48,0-0.833-0.071-1.059-0.214
                s-0.38-0.347-0.462-0.612h-0.035c-0.133,0.133-0.261,0.246-0.384,0.34c-0.124,0.094-0.255,0.174-0.396,0.24
                c-0.184,0.086-0.361,0.15-0.531,0.193c-0.17,0.043-0.408,0.064-0.713,0.064c-0.454,0-0.841-0.134-1.162-0.402
                c-0.32-0.268-0.481-0.623-0.481-1.064c0-0.254,0.035-0.471,0.105-0.648c0.071-0.178,0.17-0.336,0.299-0.473
                c0.118-0.125,0.253-0.229,0.408-0.311c0.154-0.082,0.324-0.158,0.507-0.229c0.352-0.129,0.775-0.263,1.268-0.401
                c0.493-0.139,0.853-0.264,1.08-0.373v-0.563c0-0.098-0.008-0.227-0.023-0.387s-0.049-0.295-0.1-0.404
                c-0.055-0.125-0.141-0.23-0.258-0.316s-0.272-0.129-0.463-0.129c-0.172,0-0.315,0.024-0.431,0.073s-0.208,0.099-0.278,0.149
                c0.012,0.078,0.045,0.197,0.1,0.357c0.055,0.16,0.083,0.314,0.083,0.463c0,0.066-0.018,0.149-0.053,0.249
                c-0.036,0.1-0.086,0.179-0.153,0.237c-0.09,0.078-0.191,0.139-0.303,0.182s-0.283,0.064-0.514,0.064
                c-0.329,0-0.578-0.079-0.747-0.237c-0.168-0.158-0.252-0.364-0.252-0.618c0-0.219,0.087-0.415,0.261-0.589
                s0.386-0.317,0.636-0.431c0.246-0.117,0.529-0.208,0.85-0.272s0.617-0.097,0.891-0.097c0.379,0,0.727,0.022,1.043,0.067
                s0.602,0.138,0.855,0.278c0.242,0.137,0.435,0.335,0.577,0.595s0.214,0.599,0.214,1.017c0,0.441-0.009,0.965-0.026,1.57
                s-0.026,1.004-0.026,1.195c0,0.176,0.026,0.314,0.079,0.416s0.134,0.178,0.243,0.229c0.066,0.031,0.171,0.05,0.313,0.056
                s0.272,0.009,0.39,0.009V346.877z M294.892,343.824c-0.22,0.074-0.437,0.16-0.653,0.256c-0.215,0.096-0.392,0.196-0.529,0.303
                c-0.145,0.109-0.259,0.249-0.341,0.42c-0.083,0.17-0.124,0.371-0.124,0.602c0,0.305,0.07,0.526,0.208,0.664
                c0.14,0.137,0.311,0.205,0.515,0.205c0.216,0,0.393-0.044,0.532-0.133c0.139-0.088,0.262-0.196,0.368-0.325L294.892,343.824z"/>
            <path d="M301.8,347.229c-0.508,0-0.981-0.063-1.421-0.19s-0.812-0.276-1.116-0.448l-0.404,0.41h-0.498l-0.076-3.006h0.504
                c0.113,0.285,0.258,0.588,0.434,0.904c0.176,0.317,0.379,0.602,0.609,0.852c0.238,0.262,0.505,0.476,0.8,0.641
                c0.295,0.164,0.64,0.246,1.034,0.246c0.531,0,0.938-0.13,1.222-0.391c0.283-0.26,0.425-0.587,0.425-0.981
                c0-0.325-0.12-0.597-0.36-0.818c-0.24-0.221-0.612-0.411-1.116-0.573c-0.328-0.105-0.63-0.203-0.905-0.293
                c-0.275-0.091-0.534-0.184-0.776-0.277c-0.559-0.223-0.974-0.541-1.245-0.956s-0.407-0.878-0.407-1.391
                c0-0.324,0.07-0.636,0.211-0.936s0.346-0.568,0.615-0.807c0.258-0.223,0.588-0.405,0.99-0.546s0.84-0.211,1.313-0.211
                c0.461,0,0.893,0.064,1.295,0.193s0.719,0.258,0.949,0.387l0.357-0.352h0.51l0.047,2.836h-0.504
                c-0.117-0.306-0.255-0.617-0.413-0.937s-0.325-0.585-0.501-0.796c-0.191-0.227-0.412-0.408-0.662-0.543
                c-0.25-0.136-0.543-0.203-0.879-0.203c-0.422,0-0.767,0.119-1.034,0.357c-0.268,0.239-0.401,0.535-0.401,0.887
                c0,0.332,0.116,0.604,0.349,0.816c0.232,0.211,0.595,0.396,1.087,0.557c0.289,0.098,0.584,0.195,0.885,0.294
                c0.301,0.098,0.568,0.191,0.803,0.281c0.566,0.22,0.997,0.521,1.292,0.907c0.295,0.385,0.442,0.863,0.442,1.434
                c0,0.36-0.084,0.709-0.252,1.045s-0.395,0.615-0.68,0.839c-0.313,0.247-0.674,0.437-1.084,0.569S302.347,347.229,301.8,347.229z"
                />
            <path d="M309.382,347.188c-0.543,0-1.022-0.079-1.438-0.237s-0.759-0.374-1.028-0.647c-0.27-0.277-0.471-0.605-0.604-0.984
                s-0.199-0.791-0.199-1.236c0-0.406,0.081-0.793,0.243-1.16s0.382-0.689,0.659-0.967c0.285-0.285,0.64-0.513,1.063-0.683
                s0.892-0.255,1.403-0.255c0.719,0,1.287,0.136,1.705,0.407s0.627,0.638,0.627,1.099c0,0.281-0.074,0.508-0.223,0.68
                s-0.404,0.258-0.768,0.258c-0.293,0-0.538-0.07-0.735-0.211s-0.296-0.324-0.296-0.551c0-0.191,0.031-0.381,0.094-0.568
                s0.1-0.33,0.111-0.428c-0.043-0.07-0.098-0.124-0.164-0.161s-0.17-0.056-0.311-0.056c-0.176,0-0.336,0.041-0.48,0.123
                s-0.279,0.227-0.404,0.434c-0.121,0.195-0.218,0.457-0.29,0.785s-0.108,0.723-0.108,1.184c0,0.695,0.163,1.256,0.489,1.682
                s0.716,0.639,1.169,0.639c0.434,0,0.778-0.097,1.034-0.29s0.483-0.468,0.683-0.823l0.439,0.305
                c-0.121,0.238-0.266,0.456-0.434,0.653s-0.369,0.372-0.604,0.524c-0.246,0.16-0.496,0.281-0.75,0.363
                S309.718,347.188,309.382,347.188z"/>
            <path d="M318.247,342.26c0,0.297-0.092,0.558-0.275,0.782s-0.426,0.337-0.727,0.337c-0.285,0-0.526-0.072-0.724-0.216
                s-0.296-0.356-0.296-0.636c0-0.137,0.01-0.242,0.029-0.318s0.037-0.146,0.053-0.213c-0.18,0.008-0.369,0.07-0.568,0.186
                c-0.199,0.117-0.375,0.271-0.527,0.465v3.217c0,0.137,0.021,0.25,0.064,0.34s0.115,0.16,0.217,0.211
                c0.086,0.043,0.226,0.079,0.419,0.108s0.333,0.046,0.419,0.05V347h-3.92v-0.428c0.098-0.008,0.196-0.019,0.296-0.032
                s0.185-0.032,0.255-0.056c0.125-0.043,0.211-0.109,0.258-0.199s0.07-0.207,0.07-0.352v-3.41c0-0.141-0.033-0.267-0.1-0.378
                s-0.146-0.2-0.24-0.267c-0.07-0.047-0.159-0.086-0.267-0.117s-0.226-0.053-0.354-0.064v-0.428l2.795-0.152l0.088,0.088v0.85h0.023
                c0.27-0.313,0.556-0.558,0.858-0.735s0.618-0.267,0.946-0.267c0.363,0,0.655,0.112,0.876,0.337S318.247,341.904,318.247,342.26z"
                />
            <path d="M322.354,347h-3.703v-0.428c0.102-0.008,0.201-0.018,0.299-0.029s0.182-0.031,0.252-0.059
                c0.125-0.047,0.213-0.114,0.264-0.202s0.076-0.204,0.076-0.349v-3.41c0-0.137-0.031-0.257-0.094-0.36s-0.141-0.187-0.234-0.249
                c-0.07-0.047-0.177-0.092-0.319-0.135s-0.272-0.07-0.39-0.082v-0.428l2.871-0.152l0.088,0.088v4.652
                c0,0.137,0.029,0.253,0.088,0.349s0.143,0.167,0.252,0.214c0.078,0.035,0.164,0.066,0.258,0.094s0.191,0.047,0.293,0.059V347z
                M321.499,339.008c0,0.297-0.114,0.55-0.343,0.759s-0.499,0.313-0.812,0.313c-0.316,0-0.589-0.104-0.817-0.313
                s-0.343-0.462-0.343-0.759s0.114-0.551,0.343-0.762s0.501-0.316,0.817-0.316s0.588,0.105,0.814,0.316
                S321.499,338.711,321.499,339.008z"/>
            <path d="M330.03,344.146c0,0.824-0.274,1.531-0.825,2.121c-0.55,0.59-1.246,0.885-2.089,0.885c-0.374,0-0.679-0.038-0.913-0.114
                s-0.428-0.169-0.579-0.278h-0.047v1.646c0,0.137,0.03,0.256,0.091,0.357s0.146,0.176,0.255,0.223
                c0.105,0.043,0.255,0.082,0.448,0.117s0.354,0.057,0.483,0.064v0.434h-4.236v-0.434c0.098-0.008,0.221-0.022,0.369-0.044
                s0.26-0.044,0.334-0.067c0.125-0.043,0.21-0.116,0.255-0.22s0.067-0.222,0.067-0.354v-5.994c-0.012-0.129-0.042-0.242-0.091-0.34
                s-0.126-0.184-0.231-0.258c-0.078-0.051-0.182-0.093-0.311-0.126s-0.256-0.056-0.381-0.067v-0.428l2.859-0.152l0.088,0.076v0.65
                l0.047,0.012c0.257-0.262,0.543-0.465,0.857-0.609c0.313-0.145,0.625-0.217,0.933-0.217c0.809,0,1.445,0.286,1.914,0.858
                S330.03,343.213,330.03,344.146z M327.927,344.17c0-0.293-0.021-0.573-0.064-0.841c-0.042-0.268-0.118-0.507-0.228-0.718
                c-0.105-0.211-0.244-0.379-0.418-0.504s-0.385-0.188-0.635-0.188c-0.253,0-0.455,0.044-0.607,0.132s-0.285,0.202-0.397,0.343
                v3.322c0.023,0.078,0.067,0.179,0.134,0.302s0.133,0.222,0.199,0.296c0.098,0.105,0.209,0.184,0.334,0.234
                c0.124,0.051,0.26,0.076,0.408,0.076c0.387,0,0.695-0.208,0.927-0.624S327.927,344.975,327.927,344.17z"/>
            <path d="M335.146,346.73c-0.25,0.109-0.518,0.208-0.803,0.296s-0.633,0.132-1.043,0.132c-0.609,0-1.062-0.148-1.356-0.445
                c-0.295-0.296-0.442-0.719-0.442-1.27v-3.594h-1.055v-0.639h1.078v-1.775h1.898v1.775h1.646v0.639h-1.635v3.207
                c0,0.456,0.063,0.779,0.19,0.971c0.128,0.191,0.356,0.287,0.686,0.287c0.105,0,0.253-0.008,0.441-0.023
                c0.188-0.016,0.318-0.033,0.394-0.053V346.73z"/>
        </g>
    </g>
    <g>
        <path fill="#FFFFFF" d="M222.506,100.063c-0.485,0.047-0.971,0.153-1.456,0.317c-0.485,0.165-0.962,0.372-1.432,0.622
            c-0.72,0.407-1.232,0.854-1.538,1.338c-0.305,0.485-0.583,1.072-0.833,1.761c-0.861,2.379-2.188,6.19-3.979,11.434
            c-1.792,5.244-3.659,10.691-5.6,16.341h-4.744l-8.772-24.75l-7.924,24.75h-4.738c-2.614-7.607-4.617-13.465-6.01-17.574
            c-1.394-4.109-2.567-7.556-3.522-10.342c-0.297-0.845-0.634-1.459-1.009-1.843c-0.376-0.383-0.861-0.771-1.456-1.162
            c-0.422-0.282-0.873-0.489-1.35-0.622c-0.478-0.133-1.029-0.238-1.655-0.317v-1.832h17.773v1.785
            c-1.046,0.125-1.828,0.247-2.343,0.364c-0.516,0.118-0.922,0.239-1.218,0.364c-0.282,0.125-0.454,0.258-0.516,0.399
            c-0.063,0.141-0.094,0.266-0.094,0.375c0,0.219,0.027,0.431,0.082,0.634c0.055,0.204,0.113,0.438,0.176,0.705
            c0.375,1.219,1.135,3.534,2.277,6.942c1.143,3.409,2.552,7.638,4.227,12.688l7.593-24.255h4.982l8.771,25.026
            c1.298-4.022,2.335-7.309,3.11-9.86c0.774-2.551,1.428-4.734,1.96-6.55c0.313-1.111,0.563-2.042,0.751-2.794
            c0.188-0.751,0.282-1.4,0.282-1.949c0-0.329-0.152-0.61-0.457-0.845c-0.305-0.235-0.715-0.438-1.23-0.61
            c-0.437-0.141-1.003-0.254-1.698-0.34s-1.3-0.153-1.814-0.2v-1.878h13.406V100.063z"/>
        <path fill="#FFFFFF" d="M248.215,125.889c-0.548,0.892-1.209,1.734-1.984,2.524c-0.774,0.791-1.655,1.467-2.641,2.031
            c-1.049,0.595-2.109,1.045-3.182,1.35s-2.305,0.458-3.698,0.458c-2.316,0-4.316-0.329-5.999-0.986
            c-1.683-0.657-3.072-1.542-4.167-2.653c-1.096-1.111-1.914-2.422-2.454-3.933c-0.54-1.511-0.81-3.15-0.81-4.919
            c0-1.597,0.293-3.126,0.88-4.59c0.587-1.463,1.42-2.766,2.5-3.909c1.064-1.111,2.407-2.011,4.027-2.7
            c1.62-0.689,3.431-1.033,5.435-1.033c2.191,0,3.991,0.266,5.4,0.798c1.409,0.532,2.575,1.268,3.499,2.207
            c0.892,0.892,1.542,1.945,1.949,3.158c0.407,1.213,0.61,2.485,0.61,3.815v1.526h-15.872c0,3.209,0.618,5.651,1.855,7.326
            c1.236,1.675,3.201,2.512,5.893,2.512c1.471,0,2.794-0.403,3.968-1.209c1.174-0.806,2.176-1.827,3.005-3.064L248.215,125.889z
            M239.246,116.967c0-0.939-0.047-1.902-0.141-2.888c-0.094-0.986-0.258-1.792-0.493-2.418c-0.266-0.736-0.63-1.292-1.092-1.667
            c-0.462-0.376-1.045-0.563-1.749-0.563c-1.206,0-2.168,0.61-2.888,1.831c-0.72,1.221-1.111,3.154-1.174,5.799L239.246,116.967z"/>
        <path fill="#FFFFFF" d="M278.479,120.02c0,3.521-1.162,6.441-3.486,8.757c-2.324,2.317-5.271,3.475-8.84,3.475
            c-1.377,0-2.563-0.098-3.557-0.293c-0.994-0.196-1.835-0.435-2.524-0.716c-0.72-0.297-1.295-0.591-1.726-0.88
            c-0.431-0.29-0.771-0.528-1.021-0.716l-3.358,3.052l-1.385-0.54c0.079-1.142,0.145-2.383,0.2-3.721
            c0.055-1.338,0.082-3.142,0.082-5.412v-21.976c0-0.595-0.121-1.146-0.364-1.655s-0.567-0.896-0.974-1.162
            c-0.298-0.188-0.732-0.353-1.303-0.493c-0.572-0.141-1.1-0.227-1.585-0.258v-1.714l11.622-0.611l0.353,0.376v15.261h0.141
            c1.141-1.111,2.313-1.925,3.517-2.442s2.407-0.775,3.611-0.775c3.283,0,5.87,1.119,7.761,3.357
            C277.533,113.172,278.479,116.201,278.479,120.02z M270.05,120.301c0-1.189-0.09-2.336-0.269-3.44
            c-0.18-1.104-0.48-2.078-0.902-2.923c-0.422-0.845-0.976-1.522-1.663-2.031s-1.538-0.763-2.552-0.763
            c-0.953,0-1.742,0.157-2.366,0.47c-0.624,0.313-1.186,0.774-1.686,1.385v13.665c0.094,0.313,0.27,0.724,0.527,1.232
            c0.258,0.509,0.519,0.904,0.785,1.186c0.375,0.407,0.773,0.716,1.195,0.928c0.421,0.211,1.015,0.317,1.78,0.317
            c1.592,0,2.849-0.873,3.771-2.618C269.589,125.963,270.05,123.494,270.05,120.301z"/>
        <path fill="#FFFFFF" d="M307.944,132.416c-2.035,0-3.933-0.254-5.693-0.763c-1.761-0.509-3.252-1.107-4.473-1.796l-1.62,1.644
            h-1.996l-0.305-12.044h2.019c0.454,1.145,1.033,2.353,1.737,3.624c0.705,1.271,1.519,2.408,2.442,3.412
            c0.954,1.051,2.022,1.906,3.205,2.565c1.182,0.659,2.563,0.988,4.144,0.988c2.129,0,3.761-0.521,4.896-1.563
            s1.702-2.354,1.702-3.937c0-1.3-0.481-2.393-1.444-3.278c-0.962-0.885-2.453-1.649-4.473-2.294
            c-1.314-0.424-2.523-0.817-3.627-1.179s-2.141-0.731-3.111-1.109c-2.238-0.893-3.901-2.17-4.989-3.832s-1.631-3.518-1.631-5.571
            c0-1.301,0.282-2.551,0.845-3.75c0.563-1.199,1.385-2.276,2.465-3.232c1.033-0.893,2.355-1.622,3.968-2.186
            c1.612-0.564,3.365-0.846,5.26-0.846c1.847,0,3.576,0.258,5.188,0.775s2.88,1.033,3.804,1.549l1.432-1.409h2.043l0.188,11.364
            h-2.019c-0.47-1.224-1.021-2.475-1.655-3.753s-1.303-2.342-2.008-3.189c-0.767-0.91-1.651-1.635-2.652-2.177
            c-1.002-0.541-2.177-0.812-3.522-0.812c-1.69,0-3.072,0.478-4.144,1.435c-1.072,0.957-1.608,2.14-1.608,3.551
            c0,1.333,0.466,2.422,1.396,3.269c0.932,0.847,2.384,1.591,4.355,2.234c1.158,0.392,2.34,0.784,3.546,1.176
            c1.205,0.392,2.277,0.768,3.216,1.128c2.27,0.878,3.995,2.089,5.178,3.632c1.182,1.544,1.772,3.46,1.772,5.748
            c0,1.442-0.337,2.837-1.01,4.185s-1.581,2.469-2.724,3.362c-1.252,0.988-2.7,1.748-4.344,2.28S310.136,132.416,307.944,132.416z"/>
        <path fill="#FFFFFF" d="M342.388,130.42c-1.002,0.438-2.074,0.833-3.217,1.186c-1.143,0.353-2.536,0.528-4.179,0.528
            c-2.442,0-4.254-0.594-5.436-1.782c-1.183-1.188-1.772-2.884-1.772-5.089v-14.4h-4.227v-2.559h4.32v-7.114h7.606v7.114h6.598v2.559
            h-6.551v12.85c0,1.829,0.256,3.126,0.766,3.892c0.511,0.766,1.426,1.149,2.745,1.149c0.424,0,1.013-0.031,1.767-0.094
            s1.28-0.133,1.579-0.211V130.42z"/>
        <path fill="#FFFFFF" d="M370.868,131.007c-0.688,0.298-1.5,0.571-2.438,0.822s-1.929,0.376-2.976,0.376
            c-1.922,0-3.335-0.286-4.241-0.857c-0.906-0.571-1.523-1.389-1.851-2.453h-0.141c-0.533,0.532-1.047,0.986-1.541,1.362
            c-0.493,0.375-1.022,0.696-1.587,0.962c-0.736,0.344-1.446,0.603-2.128,0.775c-0.683,0.172-1.635,0.258-2.857,0.258
            c-1.818,0-3.371-0.537-4.656-1.611c-1.286-1.074-1.929-2.496-1.929-4.268c0-1.019,0.142-1.885,0.424-2.598
            c0.282-0.713,0.682-1.344,1.199-1.893c0.47-0.502,1.015-0.917,1.634-1.247c0.62-0.329,1.298-0.635,2.034-0.917
            c1.411-0.517,3.104-1.054,5.08-1.61c1.975-0.557,3.417-1.054,4.327-1.493v-2.254c0-0.391-0.032-0.907-0.094-1.549
            c-0.063-0.642-0.196-1.182-0.399-1.62c-0.22-0.5-0.564-0.923-1.034-1.268s-1.088-0.517-1.854-0.517
            c-0.689,0-1.265,0.098-1.727,0.293c-0.463,0.196-0.834,0.396-1.116,0.599c0.047,0.313,0.181,0.791,0.4,1.432
            c0.22,0.642,0.33,1.26,0.33,1.855c0,0.266-0.071,0.599-0.212,0.998c-0.142,0.399-0.346,0.716-0.612,0.951
            c-0.361,0.313-0.766,0.556-1.213,0.728c-0.447,0.172-1.134,0.258-2.061,0.258c-1.318,0-2.315-0.317-2.99-0.951
            s-1.013-1.459-1.013-2.477c0-0.876,0.349-1.663,1.045-2.36c0.696-0.696,1.546-1.271,2.548-1.726
            c0.986-0.469,2.12-0.833,3.404-1.092c1.283-0.258,2.473-0.387,3.568-0.387c1.519,0,2.912,0.09,4.18,0.27
            c1.268,0.18,2.41,0.552,3.428,1.115c0.971,0.548,1.741,1.342,2.313,2.383c0.571,1.042,0.857,2.399,0.857,4.074
            c0,1.769-0.035,3.866-0.106,6.292c-0.07,2.426-0.105,4.023-0.105,4.79c0,0.704,0.105,1.26,0.317,1.667
            c0.211,0.407,0.536,0.712,0.975,0.916c0.266,0.125,0.685,0.2,1.256,0.223s1.092,0.035,1.562,0.035V131.007z M359.223,118.775
            c-0.88,0.298-1.752,0.64-2.616,1.024c-0.863,0.385-1.57,0.789-2.12,1.212c-0.581,0.439-1.037,1-1.366,1.683
            c-0.33,0.682-0.495,1.486-0.495,2.412c0,1.224,0.278,2.11,0.836,2.66s1.245,0.824,2.063,0.824c0.863,0,1.574-0.177,2.132-0.53
            c0.558-0.353,1.049-0.788,1.473-1.306L359.223,118.775z"/>
        <path fill="#FFFFFF" d="M386.082,132.252c-2.177,0-4.098-0.317-5.765-0.951c-1.667-0.634-3.04-1.499-4.12-2.594
            c-1.08-1.111-1.887-2.426-2.419-3.944c-0.532-1.518-0.798-3.17-0.798-4.954c0-1.628,0.324-3.177,0.975-4.649
            c0.649-1.471,1.529-2.762,2.641-3.874c1.143-1.142,2.563-2.054,4.262-2.735c1.698-0.681,3.572-1.021,5.623-1.021
            c2.88,0,5.157,0.544,6.832,1.632s2.513,2.555,2.513,4.402c0,1.127-0.298,2.035-0.893,2.723c-0.595,0.689-1.62,1.033-3.075,1.033
            c-1.174,0-2.156-0.282-2.946-0.845c-0.791-0.563-1.187-1.299-1.187-2.207c0-0.767,0.126-1.526,0.376-2.277s0.399-1.323,0.446-1.714
            c-0.173-0.282-0.392-0.497-0.657-0.646c-0.267-0.148-0.681-0.223-1.244-0.223c-0.705,0-1.347,0.164-1.926,0.493
            c-0.579,0.329-1.119,0.908-1.62,1.738c-0.485,0.783-0.873,1.831-1.162,3.146c-0.29,1.315-0.435,2.896-0.435,4.743
            c0,2.786,0.653,5.033,1.961,6.738c1.307,1.707,2.868,2.559,4.684,2.559c1.737,0,3.119-0.387,4.145-1.162
            c1.024-0.775,1.937-1.874,2.735-3.299l1.761,1.221c-0.485,0.955-1.064,1.828-1.737,2.618c-0.674,0.791-1.479,1.491-2.419,2.102
            c-0.985,0.642-1.987,1.127-3.005,1.456S387.428,132.252,386.082,132.252z"/>
        <path fill="#FFFFFF" d="M428.344,131.5h-11.067c-1.36-2.389-2.604-4.415-3.729-6.077s-2.189-3.204-3.19-4.625l-1.383,1.17v5.118
            c0,0.563,0.082,1.025,0.246,1.385c0.164,0.36,0.481,0.626,0.951,0.798c0.281,0.125,0.61,0.235,0.986,0.329
            c0.375,0.094,0.751,0.157,1.127,0.188v1.714h-14.58v-1.714c0.394-0.031,0.787-0.074,1.182-0.129c0.394-0.055,0.74-0.129,1.04-0.223
            c0.504-0.172,0.847-0.438,1.027-0.798c0.182-0.36,0.272-0.83,0.272-1.409v-26.179c0-0.517-0.114-1.053-0.341-1.608
            s-0.56-0.975-0.998-1.256c-0.297-0.188-0.743-0.344-1.338-0.469s-1.135-0.204-1.62-0.235v-1.714l11.691-0.611l0.354,0.376v24.229
            c1.156-1.033,2.458-2.23,3.904-3.592c1.445-1.361,2.606-2.488,3.482-3.38c0.517-0.532,0.802-0.935,0.856-1.209
            c0.055-0.273,0.082-0.442,0.082-0.504c0-0.282-0.247-0.517-0.741-0.705s-1.238-0.352-2.231-0.493v-1.667h11.928v1.62
            c-1.563,0.438-2.755,0.849-3.575,1.233c-0.82,0.383-1.715,0.896-2.684,1.538c-0.642,0.423-1.262,0.866-1.863,1.329
            c-0.601,0.463-1.291,1.04-2.071,1.731c1.531,2.222,2.945,4.279,4.242,6.172c1.297,1.893,2.656,3.895,4.078,6.007
            c0.484,0.735,1.086,1.229,1.805,1.479c0.72,0.25,1.438,0.407,2.158,0.47V131.5z"/>
    </g>
    <!--xxxxxxxxxxxxxxxxxxxxxxxxxxxxxxxxxxxxxxxxxxxxxxxxxx-->
</svg>