<?xml version="1.0" encoding="utf-8"?>
<!-- Generator: Adobe Illustrator 15.0.0, SVG Export Plug-In . SVG Version: 6.00 Build 0)  -->
<!DOCTYPE svg PUBLIC "-//W3C//DTD SVG 1.1//EN" "http://www.w3.org/Graphics/SVG/1.1/DTD/svg11.dtd">
<svg version="1.1" id="skills" xmlns="http://www.w3.org/2000/svg" xmlns:xlink="http://www.w3.org/1999/xlink" x="0px" y="0px"
	 width="266px" height="266px" viewBox="0 0 266 266" enable-background="new 0 0 266 266" xml:space="preserve">
<g id="hex_ps">
	<path id="outline_4_" fill="#00C8FF" d="M167.375,68.201L136.367,85.51v34.682l31.008,17.307l31.009-17.307V85.51L167.375,68.201z
		 M196.126,118.864l-28.751,16.05l-28.75-16.05v-32.03l28.75-16.049l28.751,16.049V118.864z"/>
	<polygon id="background_4_" fill="#261300" points="138.625,86.834 138.625,118.864 167.375,134.914 196.126,118.864 
		196.126,86.834 167.375,70.785 	"/>
	<g id="content_4_">
		<path fill="#00C8FF" d="M148.386,86.507c0-0.21,0.42-0.362,0.662-0.362c1.925-0.09,4.784-0.149,7.765-0.149
			c8.336,0,11.587,4.575,11.587,10.444c0,7.644-5.537,10.924-12.341,10.924c-1.143,0-1.534-0.061-2.345-0.061v11.559
			c0,0.24-0.091,0.359-0.361,0.359h-4.605c-0.241,0-0.361-0.091-0.361-0.359V86.507L148.386,86.507z"/>
		<path fill="#261300" d="M153.742,102.487c0.692,0.063,1.232,0.063,2.438,0.063c3.52,0,6.831-1.234,6.831-6.02
			c0-3.824-2.378-5.749-6.38-5.749c-1.204,0-2.347,0.061-2.889,0.091V102.487L153.742,102.487z"/>
		<path fill="#00C8FF" d="M179.623,98.907c-2.377,0-3.188,1.203-3.188,2.197c0,1.083,0.54,1.837,3.731,3.491
			c4.725,2.287,6.198,4.484,6.198,7.704c0,4.816-3.668,7.403-8.637,7.403c-2.617,0-4.875-0.543-6.17-1.294
			c-0.209-0.089-0.24-0.24-0.24-0.482v-4.424c0-0.301,0.15-0.392,0.362-0.241c1.895,1.234,4.061,1.776,6.048,1.776
			c2.378,0,3.371-0.995,3.371-2.348c0-1.083-0.693-2.047-3.73-3.612c-4.275-2.047-6.051-4.121-6.051-7.584
			c0-3.882,3.039-7.102,8.308-7.102c2.587,0,4.392,0.391,5.385,0.842c0.242,0.149,0.302,0.392,0.302,0.604v4.121
			c0,0.241-0.151,0.391-0.451,0.301C183.536,99.418,181.58,98.907,179.623,98.907L179.623,98.907z"/>
	</g>
</g>
<g id="hex_ai">
	<path id="outline_1_" fill="#FF7C00" d="M100.556,68.199l-31.008,17.31v34.681l31.008,17.308l31.006-17.308V85.509L100.556,68.199z
		 M129.305,118.863l-28.749,16.051l-28.751-16.051V86.832l28.751-16.049l28.749,16.049V118.863z"/>
	<polygon id="background_1_" fill="#261300" points="71.805,86.832 71.805,118.863 100.556,134.914 129.305,118.863 129.305,86.834 
		100.556,70.783 	"/>
	<g id="content">
		<path fill="#FF7C00" d="M90.316,110.525l-2.375,9.026c-0.062,0.241-0.151,0.301-0.452,0.301h-4.424
			c-0.302,0-0.361-0.089-0.302-0.451l8.549-29.916c0.149-0.543,0.239-1.022,0.299-2.498c0-0.21,0.093-0.301,0.242-0.301h6.321
			c0.21,0,0.299,0.063,0.359,0.301l9.572,32.476c0.061,0.239,0,0.39-0.241,0.39h-4.997c-0.239,0-0.392-0.06-0.452-0.27l-2.499-9.058
			H90.316L90.316,110.525z M98.686,105.646c-0.842-3.339-2.828-10.623-3.583-14.146h-0.06c-0.632,3.523-2.228,9.483-3.491,14.146
			H98.686z M112.23,88.915c0-1.928,1.353-3.069,3.067-3.069c1.836,0,3.07,1.232,3.07,3.069c0,1.985-1.295,3.068-3.131,3.068
			C113.492,91.983,112.23,90.9,112.23,88.915L112.23,88.915z M112.59,95.746c0-0.242,0.09-0.362,0.36-0.362h4.725
			c0.24,0,0.363,0.091,0.363,0.362v23.745c0,0.241-0.063,0.361-0.363,0.361h-4.666c-0.3,0-0.391-0.15-0.391-0.39V95.746H112.59
			L112.59,95.746z"/>
	</g>
</g>
<g id="hex_ap">
	<path id="outline_22_" d="M99.911,252.543l31.005-17.31v-34.68l-31.008-17.308l-31.007,17.308v34.68L99.911,252.543z
		 M71.158,201.879l28.75-16.048l28.752,16.048v32.031l-28.749,16.05l-28.753-16.05V201.879z"/>
	<polygon id="background_36_" fill="#DFA800" points="128.66,233.91 128.66,201.879 99.908,185.831 71.158,201.879 71.158,233.91 
		99.911,249.96 	"/>
	<polygon id="background_35_" fill="#DF9000" points="99.823,192.631 123.079,205.612 123.079,231.523 99.826,244.505 	"/>
	<g>
		<path d="M92.846,205.176h-2.332v-0.233c0.107-0.009,0.236-0.03,0.382-0.059c0.147-0.031,0.219-0.07,0.219-0.118
			c0-0.015,0-0.034-0.001-0.053c-0.003-0.021-0.013-0.049-0.026-0.084l-0.367-0.887h-1.477c-0.035,0.083-0.072,0.18-0.112,0.29
			c-0.044,0.113-0.076,0.209-0.107,0.296c-0.038,0.113-0.063,0.195-0.067,0.244c-0.008,0.053-0.013,0.086-0.013,0.108
			c0,0.063,0.05,0.118,0.147,0.161c0.098,0.048,0.259,0.079,0.486,0.101v0.233h-1.756v-0.233c0.067-0.003,0.142-0.015,0.224-0.033
			c0.085-0.017,0.151-0.04,0.199-0.071c0.081-0.05,0.151-0.107,0.21-0.178c0.057-0.07,0.104-0.154,0.143-0.251
			c0.233-0.566,0.468-1.13,0.702-1.7c0.232-0.567,0.493-1.192,0.778-1.876h0.601c0.396,0.969,0.703,1.736,0.929,2.299
			c0.224,0.565,0.412,1.031,0.569,1.401c0.026,0.061,0.061,0.114,0.1,0.164c0.041,0.048,0.098,0.097,0.171,0.141
			c0.057,0.031,0.123,0.057,0.197,0.071c0.074,0.019,0.142,0.027,0.202,0.032V205.176L92.846,205.176z M90.596,203.444l-0.62-1.547
			l-0.61,1.547H90.596z"/>
		<path d="M96.529,203.705c0,0.426-0.144,0.79-0.426,1.095c-0.284,0.305-0.643,0.455-1.077,0.455c-0.192,0-0.35-0.02-0.469-0.06
			c-0.121-0.04-0.221-0.088-0.298-0.144h-0.025v0.85c0,0.07,0.016,0.132,0.045,0.182c0.035,0.053,0.077,0.093,0.132,0.117
			c0.056,0.021,0.133,0.042,0.232,0.059c0.1,0.019,0.184,0.031,0.25,0.033v0.225H92.71v-0.225c0.05-0.004,0.113-0.011,0.19-0.022
			c0.076-0.011,0.136-0.022,0.172-0.034c0.063-0.021,0.106-0.06,0.131-0.113s0.034-0.116,0.034-0.184v-3.085
			c-0.005-0.067-0.021-0.126-0.047-0.176c-0.024-0.049-0.064-0.096-0.118-0.133c-0.039-0.027-0.094-0.048-0.16-0.066
			c-0.066-0.017-0.13-0.028-0.195-0.032v-0.222l1.474-0.077l0.044,0.038v0.334l0.023,0.006c0.133-0.135,0.281-0.239,0.441-0.312
			c0.162-0.076,0.323-0.112,0.48-0.112c0.417,0,0.745,0.148,0.986,0.441C96.406,202.838,96.529,203.225,96.529,203.705z
			 M95.443,203.719c0-0.15-0.011-0.296-0.031-0.434c-0.022-0.138-0.063-0.26-0.119-0.369c-0.054-0.108-0.125-0.195-0.213-0.259
			c-0.093-0.064-0.199-0.098-0.327-0.098c-0.13,0-0.235,0.022-0.313,0.069c-0.078,0.045-0.148,0.103-0.205,0.176v1.71
			c0.013,0.041,0.035,0.093,0.068,0.155c0.034,0.063,0.069,0.114,0.104,0.154c0.048,0.054,0.106,0.095,0.17,0.12
			c0.066,0.026,0.134,0.037,0.211,0.037c0.199,0,0.358-0.105,0.477-0.321C95.384,204.447,95.443,204.132,95.443,203.719z"/>
		<path d="M100.365,205.112c-0.087,0.038-0.192,0.075-0.313,0.106c-0.119,0.031-0.247,0.049-0.381,0.049
			c-0.247,0-0.43-0.036-0.545-0.112c-0.117-0.073-0.197-0.178-0.239-0.315H98.87c-0.067,0.069-0.134,0.129-0.198,0.176
			c-0.064,0.051-0.131,0.091-0.204,0.125c-0.095,0.043-0.185,0.076-0.273,0.099c-0.087,0.022-0.21,0.034-0.367,0.034
			c-0.234,0-0.433-0.07-0.6-0.207c-0.164-0.138-0.247-0.321-0.247-0.549c0-0.133,0.018-0.243,0.053-0.333
			c0.039-0.093,0.09-0.174,0.155-0.244c0.062-0.063,0.13-0.118,0.21-0.16c0.081-0.042,0.168-0.081,0.262-0.12
			c0.181-0.064,0.399-0.135,0.653-0.205c0.254-0.072,0.438-0.135,0.557-0.193v-0.29c0-0.05-0.004-0.116-0.013-0.199
			c-0.007-0.082-0.025-0.15-0.051-0.208c-0.027-0.064-0.073-0.118-0.133-0.162s-0.14-0.066-0.238-0.066
			c-0.088,0-0.163,0.014-0.222,0.038c-0.061,0.024-0.106,0.051-0.144,0.076c0.006,0.04,0.022,0.104,0.05,0.184
			c0.03,0.081,0.044,0.162,0.044,0.239c0,0.034-0.008,0.076-0.026,0.127c-0.021,0.053-0.046,0.093-0.08,0.123
			c-0.046,0.039-0.1,0.071-0.155,0.094c-0.059,0.022-0.146,0.03-0.265,0.03c-0.169,0-0.297-0.039-0.385-0.12
			c-0.087-0.082-0.13-0.186-0.13-0.317c0-0.112,0.044-0.215,0.135-0.306c0.088-0.089,0.198-0.163,0.328-0.222
			c0.126-0.059,0.271-0.106,0.437-0.141c0.163-0.031,0.319-0.048,0.46-0.048c0.193,0,0.372,0.011,0.537,0.036
			c0.164,0.022,0.31,0.069,0.439,0.14c0.125,0.071,0.225,0.174,0.297,0.31c0.075,0.132,0.11,0.309,0.11,0.523
			c0,0.227-0.005,0.497-0.015,0.808c-0.008,0.313-0.012,0.518-0.012,0.615c0,0.092,0.012,0.163,0.039,0.215
			c0.029,0.054,0.071,0.09,0.127,0.117c0.034,0.017,0.088,0.026,0.16,0.028c0.073,0.005,0.141,0.007,0.202,0.007v0.22H100.365z
			 M98.87,203.541c-0.115,0.038-0.225,0.082-0.336,0.133c-0.111,0.048-0.202,0.1-0.272,0.153c-0.077,0.056-0.134,0.13-0.176,0.218
			c-0.042,0.087-0.064,0.19-0.064,0.311c0,0.156,0.035,0.27,0.106,0.341c0.072,0.071,0.161,0.105,0.267,0.105
			c0.11,0,0.2-0.021,0.273-0.068c0.071-0.044,0.136-0.099,0.189-0.166L98.87,203.541z"/>
		<path d="M102.321,205.273c-0.279,0-0.525-0.041-0.74-0.123c-0.214-0.08-0.39-0.191-0.528-0.33
			c-0.138-0.146-0.243-0.314-0.313-0.51c-0.069-0.194-0.103-0.406-0.103-0.637c0-0.209,0.042-0.407,0.125-0.596
			c0.084-0.188,0.197-0.357,0.34-0.499c0.147-0.146,0.329-0.266,0.547-0.353c0.221-0.088,0.46-0.131,0.724-0.131
			c0.37,0,0.663,0.07,0.879,0.211c0.215,0.14,0.322,0.327,0.322,0.566c0,0.143-0.037,0.259-0.114,0.35
			c-0.077,0.089-0.208,0.131-0.396,0.131c-0.149,0-0.277-0.036-0.378-0.107c-0.103-0.073-0.152-0.168-0.152-0.283
			c0-0.099,0.015-0.196,0.048-0.293c0.032-0.098,0.052-0.17,0.057-0.222c-0.022-0.035-0.05-0.063-0.084-0.081
			c-0.033-0.021-0.087-0.031-0.161-0.031c-0.09,0-0.171,0.022-0.246,0.064c-0.073,0.043-0.145,0.117-0.209,0.224
			c-0.061,0.102-0.111,0.236-0.147,0.406c-0.038,0.168-0.058,0.371-0.058,0.608c0,0.357,0.086,0.646,0.253,0.866
			c0.167,0.219,0.367,0.329,0.603,0.329c0.224,0,0.4-0.051,0.532-0.15s0.248-0.24,0.352-0.425l0.226,0.159
			c-0.062,0.122-0.137,0.234-0.223,0.337c-0.088,0.1-0.19,0.191-0.312,0.27c-0.127,0.082-0.256,0.145-0.386,0.186
			C102.646,205.253,102.494,205.273,102.321,205.273z"/>
		<path d="M107.805,205.176h-1.813v-0.219c0.041-0.005,0.088-0.011,0.144-0.015c0.055-0.007,0.095-0.018,0.121-0.032
			c0.041-0.021,0.07-0.054,0.086-0.095c0.02-0.046,0.028-0.106,0.028-0.188v-1.412c0-0.207-0.039-0.361-0.116-0.465
			c-0.078-0.104-0.188-0.154-0.333-0.154c-0.079,0-0.154,0.013-0.226,0.037c-0.068,0.024-0.136,0.058-0.203,0.105
			c-0.057,0.04-0.104,0.082-0.139,0.122c-0.037,0.044-0.065,0.081-0.089,0.113v1.62c0,0.073,0.009,0.133,0.027,0.176
			c0.017,0.044,0.051,0.079,0.103,0.108c0.029,0.017,0.069,0.032,0.118,0.047c0.048,0.017,0.097,0.025,0.142,0.032v0.219h-1.839
			v-0.219c0.052-0.005,0.104-0.011,0.152-0.015c0.049-0.007,0.096-0.018,0.132-0.032c0.064-0.024,0.107-0.058,0.133-0.103
			c0.022-0.047,0.036-0.106,0.036-0.181v-3.364c0-0.065-0.016-0.133-0.047-0.207c-0.028-0.071-0.072-0.125-0.127-0.161
			c-0.039-0.026-0.098-0.047-0.174-0.062s-0.144-0.027-0.206-0.029v-0.222l1.504-0.077l0.046,0.049v2.076h0.011
			c0.077-0.068,0.146-0.13,0.207-0.187c0.061-0.053,0.137-0.111,0.225-0.165c0.075-0.05,0.171-0.092,0.291-0.125
			c0.117-0.034,0.246-0.052,0.386-0.052c0.326,0,0.57,0.094,0.734,0.28c0.163,0.188,0.245,0.433,0.245,0.739v1.479
			c0,0.075,0.013,0.134,0.033,0.18c0.023,0.045,0.063,0.078,0.124,0.105c0.037,0.014,0.076,0.029,0.121,0.043
			c0.041,0.012,0.099,0.022,0.162,0.029L107.805,205.176L107.805,205.176z"/>
		<path d="M111.327,204.455c-0.069,0.115-0.156,0.223-0.253,0.325c-0.102,0.101-0.215,0.188-0.34,0.26
			c-0.135,0.078-0.272,0.134-0.41,0.175c-0.139,0.039-0.296,0.059-0.475,0.059c-0.3,0-0.557-0.042-0.772-0.126
			c-0.215-0.086-0.395-0.201-0.535-0.343c-0.139-0.143-0.246-0.31-0.313-0.505c-0.071-0.194-0.105-0.404-0.105-0.632
			c0-0.205,0.037-0.401,0.112-0.59c0.077-0.188,0.183-0.357,0.322-0.503c0.138-0.143,0.309-0.258,0.517-0.347
			c0.21-0.09,0.441-0.133,0.699-0.133c0.282,0,0.514,0.034,0.695,0.102c0.181,0.068,0.33,0.164,0.451,0.284
			c0.112,0.114,0.196,0.248,0.249,0.406c0.052,0.154,0.078,0.318,0.078,0.489v0.196h-2.04c0,0.414,0.078,0.727,0.237,0.941
			c0.159,0.216,0.412,0.323,0.757,0.323c0.19,0,0.358-0.052,0.511-0.156c0.15-0.104,0.279-0.234,0.387-0.394L111.327,204.455z
			 M110.175,203.308c0-0.12-0.006-0.242-0.019-0.371c-0.014-0.127-0.033-0.229-0.064-0.311c-0.033-0.096-0.078-0.166-0.139-0.215
			c-0.06-0.048-0.134-0.073-0.225-0.073c-0.156,0-0.278,0.079-0.373,0.237c-0.091,0.156-0.141,0.402-0.148,0.745L110.175,203.308z"
			/>
	</g>
	<g opacity="0.86">
		<path fill="#FFFFFF" d="M99.958,207.251l-15.452,26.767h30.907L99.958,207.251z M99.823,233.582c-3.418,0-6.19-2.772-6.19-6.192
			c0-3.418,2.772-6.191,6.19-6.191c3.421,0,6.191,2.773,6.191,6.191C106.015,230.81,103.243,233.582,99.823,233.582z"/>
	</g>
</g>
<g id="hex_ms">
	<path id="outline_21_" d="M32.867,252.543l31.006-17.308v-34.681l-31.007-17.309L1.858,200.555v34.681L32.867,252.543z
		 M4.115,201.879l28.751-16.048l28.75,16.048v32.03l-28.749,16.05l-28.752-16.05V201.879z"/>
	<polygon id="background_34_" fill="#00546B" points="61.616,233.909 61.616,201.879 32.866,185.831 4.114,201.879 4.114,233.909 
		32.867,249.959 	"/>
	<polygon id="background_33_" fill="#2E456B" points="32.781,192.631 56.039,205.612 56.039,231.522 32.781,244.504 	"/>
	<g>
		<path fill="#FFFFFF" d="M27.557,205.177h-2.322v-0.235c0.069-0.007,0.155-0.017,0.252-0.03c0.1-0.017,0.169-0.029,0.203-0.046
			c0.076-0.03,0.128-0.072,0.16-0.123c0.033-0.053,0.048-0.119,0.048-0.2v-3.2l-1.469,3.765h-0.381
			c-0.021-0.066-0.064-0.198-0.135-0.397c-0.073-0.196-0.13-0.352-0.174-0.473l-1.085-2.941v2.605c0,0.248,0.017,0.438,0.051,0.567
			c0.033,0.128,0.088,0.227,0.159,0.286c0.053,0.041,0.143,0.082,0.272,0.12c0.131,0.037,0.219,0.061,0.273,0.067v0.235h-1.842
			v-0.235c0.05-0.007,0.134-0.019,0.245-0.043c0.115-0.021,0.209-0.057,0.279-0.108c0.082-0.056,0.136-0.151,0.163-0.285
			c0.029-0.133,0.043-0.325,0.043-0.572v-2.122c0-0.127-0.016-0.234-0.048-0.321c-0.033-0.086-0.081-0.151-0.146-0.202
			c-0.081-0.063-0.163-0.104-0.248-0.121c-0.084-0.019-0.169-0.029-0.256-0.037v-0.235h1.974l1.056,2.821l0.891-2.287
			c0.03-0.086,0.06-0.186,0.087-0.304c0.028-0.117,0.043-0.194,0.045-0.23h1.896v0.235c-0.063,0.006-0.132,0.013-0.201,0.027
			c-0.071,0.013-0.14,0.026-0.202,0.045c-0.079,0.027-0.132,0.07-0.156,0.125c-0.026,0.055-0.038,0.118-0.038,0.186v3.035
			c0,0.072,0.012,0.132,0.038,0.183c0.024,0.047,0.077,0.091,0.156,0.127c0.041,0.02,0.104,0.036,0.197,0.052
			c0.092,0.017,0.163,0.026,0.214,0.033V205.177L27.557,205.177z"/>
		<path fill="#FFFFFF" d="M31.373,202.402c-0.09,0.015-0.18,0.048-0.265,0.104c-0.086,0.054-0.155,0.139-0.212,0.253
			c-0.174,0.364-0.353,0.756-0.535,1.169c-0.182,0.414-0.386,0.86-0.608,1.342c-0.125,0.27-0.245,0.486-0.361,0.646
			c-0.118,0.16-0.227,0.285-0.331,0.372c-0.096,0.081-0.191,0.138-0.287,0.174c-0.096,0.037-0.188,0.052-0.286,0.052
			c-0.19,0-0.345-0.052-0.462-0.157c-0.119-0.108-0.18-0.229-0.18-0.359c0-0.058,0.008-0.111,0.022-0.157
			c0.013-0.049,0.04-0.101,0.083-0.15c0.032-0.046,0.081-0.083,0.148-0.114s0.145-0.047,0.229-0.047
			c0.111,0,0.219,0.039,0.322,0.118c0.101,0.08,0.207,0.188,0.32,0.327c0.067-0.066,0.146-0.166,0.245-0.3s0.169-0.268,0.216-0.406
			c-0.24-0.504-0.451-0.939-0.636-1.308c-0.186-0.368-0.393-0.779-0.622-1.234c-0.05-0.097-0.117-0.17-0.203-0.225
			c-0.085-0.053-0.174-0.086-0.269-0.099v-0.219h1.848v0.219c-0.068,0.004-0.146,0.019-0.235,0.046
			c-0.091,0.028-0.136,0.064-0.136,0.109c0,0.018,0.004,0.033,0.01,0.052c0.006,0.021,0.019,0.048,0.032,0.083
			c0.069,0.14,0.166,0.337,0.292,0.587c0.125,0.25,0.271,0.54,0.438,0.877c0.125-0.286,0.229-0.532,0.316-0.737
			c0.089-0.204,0.173-0.407,0.256-0.606c0.021-0.049,0.031-0.089,0.034-0.118c0.004-0.029,0.005-0.05,0.005-0.059
			c0-0.036-0.019-0.067-0.053-0.095c-0.035-0.028-0.076-0.052-0.124-0.07c-0.051-0.022-0.098-0.037-0.146-0.047
			c-0.044-0.011-0.083-0.017-0.113-0.021v-0.219h1.247V202.402L31.373,202.402z"/>
		<path fill="#FFFFFF" d="M33.265,205.294c-0.26,0-0.504-0.031-0.731-0.098c-0.227-0.063-0.418-0.143-0.574-0.232l-0.208,0.213
			h-0.257l-0.041-1.55h0.261c0.059,0.147,0.135,0.305,0.224,0.468c0.093,0.161,0.196,0.311,0.313,0.437
			c0.123,0.135,0.26,0.249,0.412,0.332c0.153,0.084,0.33,0.126,0.535,0.126c0.271,0,0.481-0.065,0.628-0.201
			c0.145-0.135,0.22-0.302,0.22-0.504c0-0.168-0.064-0.308-0.187-0.421c-0.123-0.115-0.314-0.213-0.574-0.297
			c-0.17-0.056-0.326-0.104-0.466-0.15c-0.143-0.048-0.275-0.094-0.4-0.144c-0.288-0.114-0.503-0.277-0.643-0.491
			c-0.139-0.215-0.208-0.451-0.208-0.716c0-0.17,0.034-0.326,0.11-0.481c0.072-0.156,0.177-0.293,0.313-0.415
			c0.135-0.117,0.303-0.21,0.512-0.282c0.207-0.075,0.431-0.11,0.676-0.11c0.238,0,0.46,0.031,0.667,0.099s0.369,0.134,0.488,0.2
			l0.184-0.182h0.264l0.024,1.46h-0.262c-0.061-0.156-0.132-0.317-0.214-0.479c-0.079-0.168-0.166-0.303-0.258-0.411
			c-0.097-0.116-0.212-0.211-0.34-0.28c-0.129-0.071-0.28-0.104-0.453-0.104c-0.217,0-0.395,0.061-0.532,0.184
			c-0.139,0.123-0.206,0.274-0.206,0.456c0,0.17,0.059,0.311,0.178,0.418c0.121,0.111,0.309,0.205,0.561,0.291
			c0.148,0.049,0.3,0.099,0.458,0.149c0.155,0.049,0.29,0.099,0.413,0.144c0.29,0.115,0.511,0.27,0.664,0.469
			c0.151,0.199,0.229,0.444,0.229,0.738c0,0.187-0.044,0.366-0.13,0.538c-0.085,0.173-0.204,0.317-0.35,0.432
			c-0.164,0.127-0.349,0.225-0.56,0.293C33.794,205.261,33.548,205.294,33.265,205.294z"/>
		<path fill="#FFFFFF" d="M39.438,201.368c0.21,0.195,0.376,0.429,0.501,0.7c0.124,0.273,0.186,0.589,0.186,0.938
			c0,0.496-0.124,0.933-0.373,1.309c-0.249,0.377-0.601,0.646-1.054,0.812c0.005,0.24,0.076,0.447,0.217,0.623
			c0.139,0.176,0.302,0.262,0.491,0.262c0.117,0,0.219-0.007,0.307-0.021c0.087-0.012,0.167-0.028,0.237-0.047v0.265
			c-0.113,0.049-0.284,0.098-0.511,0.147c-0.226,0.049-0.463,0.075-0.709,0.075c-0.339,0-0.616-0.103-0.833-0.305
			c-0.221-0.202-0.342-0.485-0.369-0.846c-0.285-0.029-0.55-0.102-0.795-0.213c-0.247-0.111-0.464-0.264-0.648-0.456
			c-0.185-0.188-0.329-0.412-0.438-0.673c-0.108-0.26-0.162-0.545-0.162-0.856c0-0.352,0.061-0.668,0.181-0.951
			c0.121-0.285,0.284-0.531,0.493-0.732c0.207-0.199,0.455-0.354,0.739-0.459c0.283-0.108,0.587-0.162,0.908-0.162
			s0.621,0.054,0.903,0.155C38.989,201.036,39.23,201.183,39.438,201.368z M38.661,204.433c0.09-0.183,0.155-0.39,0.196-0.622
			c0.041-0.23,0.06-0.494,0.06-0.784c0-0.249-0.017-0.489-0.051-0.721c-0.036-0.238-0.097-0.445-0.181-0.63
			c-0.087-0.182-0.201-0.329-0.344-0.441c-0.144-0.108-0.32-0.165-0.535-0.165c-0.363,0-0.64,0.173-0.829,0.52
			c-0.189,0.346-0.284,0.832-0.284,1.462c0,0.27,0.02,0.521,0.061,0.76c0.042,0.236,0.107,0.443,0.197,0.621
			c0.089,0.179,0.203,0.319,0.342,0.419c0.14,0.1,0.311,0.149,0.514,0.149c0.2,0,0.369-0.05,0.514-0.151
			C38.463,204.748,38.575,204.608,38.661,204.433z"/>
		<path fill="#FFFFFF" d="M44.576,203.803l-0.085,1.374h-3.944v-0.235c0.071-0.007,0.154-0.017,0.248-0.03s0.157-0.022,0.188-0.035
			c0.072-0.029,0.122-0.068,0.149-0.12c0.028-0.051,0.042-0.114,0.042-0.19v-3.022c0-0.072-0.011-0.132-0.031-0.18
			c-0.023-0.047-0.077-0.092-0.16-0.129c-0.063-0.029-0.14-0.052-0.227-0.065c-0.087-0.019-0.158-0.032-0.21-0.04v-0.235h2.352
			v0.235c-0.064,0.008-0.141,0.013-0.229,0.027c-0.087,0.01-0.162,0.025-0.226,0.045c-0.079,0.027-0.132,0.067-0.158,0.122
			c-0.025,0.056-0.038,0.118-0.038,0.188v2.816c0,0.133,0.009,0.238,0.027,0.313c0.016,0.076,0.053,0.132,0.105,0.168
			c0.051,0.039,0.123,0.064,0.22,0.076c0.092,0.009,0.221,0.015,0.385,0.015c0.163,0,0.319-0.008,0.472-0.026
			c0.152-0.021,0.26-0.062,0.326-0.127c0.103-0.104,0.208-0.245,0.315-0.433c0.108-0.188,0.193-0.358,0.259-0.512H44.576
			L44.576,203.803z"/>
	</g>
	<g id="g3001_1_" transform="translate(230.46016,6.4962049)" opacity="0.88">
		<path id="path16_1_" fill="#FFFFFF" d="M-185.499,223.279c-1.534-0.038-2.72,0.113-3.716,0.533
			c-0.286,0.116-0.747,0.116-0.783,0.479c0.15,0.154,0.171,0.403,0.305,0.612c0.229,0.383,0.632,0.902,0.997,1.168
			c0.4,0.307,0.804,0.615,1.225,0.883c0.747,0.457,1.588,0.727,2.315,1.186c0.422,0.269,0.844,0.611,1.267,0.9
			c0.208,0.151,0.341,0.401,0.609,0.495c0-0.017,0-0.037,0-0.055c-0.134-0.172-0.172-0.422-0.306-0.613
			c-0.191-0.191-0.383-0.364-0.574-0.555c-0.556-0.745-1.244-1.397-1.991-1.935c-0.613-0.42-1.953-0.995-2.199-1.702
			c0,0-0.021-0.02-0.04-0.038c0.421-0.041,0.919-0.192,1.322-0.306c0.65-0.174,1.244-0.135,1.912-0.309
			c0.309-0.077,0.612-0.17,0.921-0.268c0-0.057,0-0.114,0-0.169c-0.346-0.347-0.594-0.808-0.959-1.132
			c-0.976-0.842-2.047-1.665-3.156-2.354c-0.594-0.384-1.362-0.632-1.992-0.957c-0.229-0.116-0.612-0.173-0.746-0.364
			c-0.345-0.421-0.537-0.977-0.784-1.474c-0.557-1.054-1.092-2.222-1.571-3.331c-0.344-0.747-0.556-1.493-0.977-2.184
			c-1.97-3.253-4.115-5.224-7.407-7.158c-0.708-0.401-1.552-0.574-2.45-0.784c-0.479-0.02-0.957-0.057-1.436-0.077
			c-0.307-0.132-0.613-0.497-0.88-0.67c-1.093-0.69-3.906-2.181-4.71-0.211c-0.518,1.245,0.765,2.471,1.205,3.104
			c0.325,0.438,0.746,0.938,0.979,1.435c0.133,0.324,0.17,0.669,0.305,1.015c0.307,0.842,0.593,1.78,0.995,2.565
			c0.213,0.4,0.441,0.821,0.708,1.187c0.153,0.21,0.423,0.308,0.479,0.649c-0.266,0.383-0.287,0.957-0.438,1.438
			c-0.689,2.162-0.422,4.843,0.555,6.43c0.306,0.48,1.034,1.533,2.009,1.132c0.861-0.346,0.671-1.438,0.919-2.395
			c0.06-0.228,0.021-0.381,0.136-0.536c0,0.021,0,0.038,0,0.038c0.268,0.538,0.535,1.054,0.784,1.589
			c0.592,0.939,1.628,1.914,2.487,2.565c0.46,0.348,0.824,0.938,1.399,1.149c0-0.021,0-0.04,0-0.059c-0.021,0-0.021,0-0.039,0
			c-0.117-0.172-0.287-0.249-0.44-0.383c-0.345-0.345-0.726-0.765-0.997-1.147c-0.801-1.074-1.511-2.26-2.144-3.484
			c-0.306-0.594-0.574-1.244-0.822-1.838c-0.114-0.23-0.114-0.573-0.308-0.688c-0.287,0.42-0.707,0.784-0.917,1.301
			c-0.363,0.824-0.401,1.839-0.537,2.891c-0.075,0.018-0.038,0-0.075,0.038c-0.613-0.154-0.822-0.783-1.052-1.321
			c-0.575-1.358-0.672-3.54-0.174-5.111c0.134-0.402,0.709-1.664,0.479-2.049c-0.114-0.362-0.498-0.573-0.708-0.86
			c-0.25-0.364-0.518-0.824-0.688-1.226c-0.461-1.073-0.688-2.259-1.188-3.33c-0.229-0.5-0.631-1.016-0.957-1.473
			c-0.363-0.518-0.765-0.883-1.053-1.493c-0.096-0.212-0.23-0.555-0.075-0.786c0.039-0.151,0.114-0.211,0.268-0.247
			c0.249-0.212,0.957,0.056,1.206,0.172c0.708,0.287,1.303,0.557,1.896,0.956c0.269,0.19,0.556,0.556,0.898,0.651
			c0.135,0,0.269,0,0.402,0c0.613,0.134,1.304,0.039,1.877,0.212c1.014,0.324,1.935,0.802,2.757,1.318
			c2.508,1.59,4.576,3.849,5.973,6.547c0.229,0.44,0.326,0.845,0.536,1.301c0.401,0.938,0.9,1.897,1.301,2.816
			c0.401,0.898,0.784,1.818,1.36,2.563c0.287,0.402,1.436,0.613,1.953,0.823c0.38,0.172,0.976,0.326,1.319,0.536
			c0.65,0.402,1.302,0.862,1.913,1.303C-186.514,222.416-185.557,222.895-185.499,223.279L-185.499,223.279L-185.499,223.279z"/>
		<path id="path18_1_" fill="#FFFFFF" d="M-205.027,206.643c-0.324,0-0.556,0.037-0.784,0.097c0,0,0,0.017,0,0.04
			c0.019,0,0.019,0,0.039,0c0.152,0.305,0.421,0.516,0.611,0.782c0.154,0.305,0.286,0.611,0.439,0.92
			c0.02-0.022,0.038-0.039,0.038-0.039c0.268-0.192,0.402-0.499,0.402-0.957c-0.114-0.135-0.136-0.27-0.229-0.401
			C-204.623,206.892-204.874,206.797-205.027,206.643L-205.027,206.643z"/>
	</g>
</g>
<g id="hex_py">
	<path id="outline_18_" d="M166.955,252.544l31.004-17.31v-34.681l-31.007-17.308l-31.009,17.308v34.681L166.955,252.544z
		 M138.201,201.879l28.751-16.048l28.751,16.048v32.031l-28.751,16.048l-28.751-16.048V201.879z"/>
	<polygon id="background_32_" fill="#00B3A1" points="195.703,233.91 195.703,201.879 166.952,185.831 138.201,201.879 
		138.201,233.91 166.952,249.96 	"/>
	<polygon id="background_31_" fill="#00BFB4" points="166.865,192.63 190.122,205.61 190.122,231.521 166.868,244.505 	"/>
	<g transform="translate(0 -308.27)">
		<path fill="#FED142" stroke="#000000" stroke-width="4" stroke-miterlimit="10" d="M166.301,544.293
			c-3.194-0.117-5.173-1.064-5.676-2.719l-0.061-0.193l-0.009-3.247c-0.007-3.716-0.004-3.791,0.192-4.383
			c0.361-1.079,1.217-1.775,2.55-2.077l0.295-0.069l3.67-0.017c2.629-0.009,3.72-0.022,3.845-0.045
			c0.736-0.126,1.219-0.319,1.67-0.659c0.54-0.404,0.986-1.101,1.187-1.849c0.149-0.563,0.146-0.504,0.162-2.477l0.014-1.834h2.645
			l0.255,0.07c1.377,0.386,2.374,1.688,2.799,3.652c0.164,0.758,0.166,0.784,0.167,2.712c0,1.877-0.001,1.896-0.132,2.507
			c-0.129,0.608-0.298,1.101-0.551,1.605c-0.508,1.022-1.258,1.714-2.206,2.035c-0.541,0.183-0.086,0.171-5.413,0.183l-4.8,0.015
			v0.872l3.183,0.014l3.183,0.013l0.013,1.566c0.006,0.858,0.004,1.638-0.008,1.728c-0.026,0.221-0.118,0.479-0.249,0.704
			c-0.139,0.231-0.551,0.648-0.835,0.832c-0.853,0.569-2.157,0.916-3.874,1.029C167.737,544.301,166.917,544.314,166.301,544.293
			L166.301,544.293z"/>
		<path fill="#3571A3" stroke="#000000" stroke-width="4" stroke-miterlimit="10" d="M157.041,537.632
			c-0.723-0.13-1.432-0.567-1.936-1.19c-0.953-1.177-1.43-3.142-1.372-5.611c0.038-1.536,0.27-2.676,0.735-3.647
			c0.602-1.251,1.505-1.992,2.719-2.24c0.266-0.054,0.279-0.054,4.969-0.054c2.584,0,4.72-0.004,4.744-0.013
			c0.035-0.014,0.041-0.072,0.041-0.451c0-0.237-0.003-0.437-0.006-0.439c-0.006-0.004-1.439-0.013-3.188-0.02l-3.184-0.013
			l-0.008-1.653c-0.006-1.813-0.007-1.789,0.149-2.123c0.536-1.154,2.119-1.855,4.658-2.062c0.184-0.016,0.679-0.033,1.103-0.043
			c2.811-0.054,4.871,0.46,5.954,1.485c0.121,0.112,0.277,0.281,0.349,0.377c0.162,0.211,0.364,0.616,0.439,0.888l0.061,0.204v3.414
			c0,3.188-0.004,3.428-0.048,3.658c-0.055,0.292-0.189,0.707-0.302,0.93c-0.388,0.767-1.104,1.321-2.049,1.586
			c-0.615,0.173-0.336,0.163-4.404,0.181c-4.04,0.018-3.795,0.009-4.362,0.168c-1.1,0.311-1.907,1.169-2.237,2.371
			c-0.148,0.54-0.145,0.49-0.161,2.477l-0.014,1.848l-1.232,0.005C157.53,537.667,157.182,537.659,157.041,537.632L157.041,537.632z
			"/>
	</g>
	<g>
		<path d="M159.257,201.965c0,0.24-0.052,0.449-0.152,0.621c-0.098,0.178-0.235,0.316-0.411,0.427
			c-0.184,0.111-0.388,0.193-0.62,0.243c-0.232,0.052-0.492,0.077-0.784,0.077h-0.349v1.203c0,0.071,0.013,0.137,0.041,0.188
			c0.026,0.056,0.078,0.099,0.154,0.13c0.04,0.016,0.106,0.031,0.196,0.051c0.09,0.019,0.167,0.031,0.228,0.038v0.234h-2.319v-0.234
			c0.058-0.007,0.138-0.018,0.232-0.028c0.096-0.012,0.165-0.023,0.202-0.038c0.078-0.036,0.132-0.074,0.157-0.121
			c0.024-0.046,0.037-0.11,0.037-0.192v-3.02c0-0.072-0.013-0.131-0.037-0.184c-0.023-0.051-0.075-0.094-0.157-0.127
			c-0.056-0.025-0.132-0.046-0.226-0.066c-0.094-0.019-0.162-0.03-0.209-0.036v-0.237h2.363c0.554,0,0.967,0.089,1.241,0.267
			C159.117,201.335,159.257,201.604,159.257,201.965z M158.077,202.121c0-0.323-0.063-0.564-0.194-0.721
			c-0.128-0.154-0.36-0.234-0.691-0.234h-0.251v1.882h0.128c0.328,0,0.58-0.077,0.75-0.228
			C157.991,202.667,158.077,202.436,158.077,202.121z"/>
		<path d="M162.951,202.403c-0.09,0.011-0.177,0.047-0.264,0.101c-0.085,0.054-0.156,0.141-0.211,0.253
			c-0.176,0.366-0.352,0.758-0.535,1.173c-0.183,0.411-0.388,0.858-0.611,1.34c-0.124,0.269-0.244,0.484-0.361,0.647
			c-0.115,0.158-0.225,0.282-0.33,0.37c-0.096,0.08-0.191,0.138-0.285,0.175c-0.095,0.036-0.19,0.053-0.288,0.053
			c-0.192,0-0.345-0.053-0.462-0.16c-0.117-0.106-0.178-0.227-0.178-0.359c0-0.057,0.007-0.107,0.022-0.155
			c0.013-0.049,0.038-0.1,0.08-0.151c0.032-0.045,0.082-0.083,0.149-0.113c0.067-0.031,0.144-0.047,0.229-0.047
			c0.112,0,0.22,0.039,0.322,0.118c0.103,0.078,0.208,0.188,0.32,0.327c0.064-0.066,0.147-0.166,0.246-0.299
			c0.096-0.134,0.168-0.269,0.215-0.407c-0.24-0.502-0.451-0.939-0.638-1.31c-0.185-0.366-0.393-0.779-0.62-1.233
			c-0.05-0.096-0.119-0.171-0.202-0.225c-0.084-0.052-0.174-0.086-0.269-0.097v-0.22h1.848v0.22
			c-0.069,0.003-0.147,0.017-0.238,0.045c-0.086,0.028-0.133,0.064-0.133,0.107c0,0.02,0.003,0.034,0.009,0.053
			c0.007,0.021,0.02,0.049,0.035,0.084c0.068,0.14,0.163,0.334,0.29,0.586c0.126,0.249,0.27,0.541,0.438,0.876
			c0.124-0.284,0.232-0.53,0.318-0.735c0.088-0.206,0.174-0.406,0.254-0.605c0.02-0.05,0.032-0.09,0.036-0.121
			c0.002-0.026,0.005-0.048,0.005-0.056c0-0.035-0.018-0.069-0.054-0.098c-0.035-0.026-0.077-0.05-0.124-0.07
			c-0.05-0.02-0.099-0.035-0.146-0.044c-0.046-0.012-0.085-0.019-0.114-0.021v-0.22h1.246V202.403L162.951,202.403z"/>
		<path d="M165.259,205.037c-0.128,0.056-0.266,0.105-0.412,0.152c-0.146,0.044-0.325,0.067-0.537,0.067
			c-0.313,0-0.546-0.075-0.697-0.23c-0.153-0.148-0.229-0.368-0.229-0.652v-1.852h-0.542v-0.329h0.555v-0.915h0.977v0.915h0.849
			v0.329h-0.843v1.652c0,0.233,0.034,0.4,0.099,0.5c0.067,0.098,0.184,0.147,0.354,0.147c0.054,0,0.13-0.005,0.228-0.011
			c0.098-0.01,0.165-0.017,0.201-0.028V205.037L165.259,205.037z"/>
		<path d="M169.396,205.177h-1.813v-0.22c0.039-0.005,0.088-0.011,0.142-0.015c0.055-0.007,0.096-0.019,0.121-0.032
			c0.042-0.021,0.071-0.056,0.088-0.097c0.018-0.042,0.025-0.105,0.025-0.188v-1.411c0-0.207-0.037-0.361-0.116-0.465
			c-0.077-0.104-0.188-0.155-0.33-0.155c-0.08,0-0.156,0.013-0.224,0.037c-0.07,0.025-0.138,0.058-0.205,0.105
			c-0.06,0.041-0.106,0.082-0.141,0.123c-0.035,0.042-0.066,0.081-0.09,0.11v1.623c0,0.073,0.01,0.133,0.028,0.176
			c0.02,0.044,0.052,0.079,0.101,0.108c0.031,0.017,0.072,0.032,0.121,0.046c0.048,0.016,0.097,0.025,0.143,0.033v0.22h-1.842v-0.22
			c0.054-0.005,0.104-0.011,0.156-0.015c0.048-0.007,0.092-0.019,0.13-0.032c0.065-0.025,0.109-0.06,0.132-0.105
			c0.025-0.044,0.036-0.104,0.036-0.179v-3.365c0-0.063-0.017-0.132-0.045-0.203c-0.03-0.074-0.073-0.127-0.127-0.165
			c-0.041-0.027-0.098-0.045-0.177-0.06c-0.075-0.015-0.144-0.026-0.203-0.029v-0.221l1.503-0.08l0.044,0.051v2.075h0.012
			c0.077-0.067,0.146-0.132,0.208-0.186c0.06-0.055,0.135-0.111,0.225-0.17c0.074-0.046,0.171-0.088,0.289-0.122
			c0.12-0.03,0.249-0.052,0.388-0.052c0.326,0,0.571,0.096,0.734,0.284c0.165,0.185,0.246,0.431,0.246,0.737v1.479
			c0,0.075,0.01,0.135,0.033,0.18c0.021,0.043,0.063,0.077,0.124,0.104c0.036,0.017,0.075,0.03,0.12,0.041
			c0.045,0.013,0.097,0.023,0.162,0.032v0.22H169.396z"/>
		<path d="M172.754,202.539c0.149,0.14,0.262,0.304,0.341,0.496c0.079,0.194,0.116,0.402,0.116,0.628
			c0,0.225-0.037,0.436-0.115,0.634s-0.189,0.367-0.339,0.508c-0.16,0.152-0.349,0.267-0.568,0.348
			c-0.22,0.078-0.473,0.12-0.757,0.12c-0.246,0-0.47-0.035-0.677-0.105c-0.207-0.071-0.388-0.177-0.548-0.317
			c-0.151-0.136-0.274-0.3-0.36-0.5c-0.09-0.198-0.134-0.418-0.134-0.665c0-0.242,0.037-0.456,0.114-0.644
			c0.08-0.188,0.196-0.356,0.352-0.502c0.147-0.143,0.332-0.251,0.548-0.327c0.221-0.079,0.464-0.118,0.733-0.118
			c0.282,0,0.53,0.039,0.742,0.118C172.42,202.288,172.602,202.396,172.754,202.539z M171.98,204.629
			c0.046-0.114,0.077-0.248,0.098-0.412c0.022-0.16,0.033-0.347,0.033-0.559c0-0.142-0.011-0.304-0.03-0.482
			c-0.022-0.184-0.051-0.326-0.091-0.428c-0.051-0.129-0.115-0.229-0.201-0.3c-0.085-0.074-0.193-0.11-0.325-0.11
			c-0.141,0-0.257,0.04-0.343,0.117c-0.084,0.082-0.15,0.183-0.197,0.306c-0.041,0.116-0.07,0.251-0.086,0.403
			c-0.016,0.153-0.025,0.313-0.025,0.482c0,0.219,0.008,0.399,0.022,0.543c0.013,0.146,0.046,0.288,0.101,0.436
			c0.047,0.123,0.111,0.224,0.2,0.295c0.086,0.071,0.195,0.106,0.328,0.106c0.121,0,0.226-0.031,0.313-0.102
			C171.862,204.86,171.931,204.761,171.98,204.629z"/>
		<path d="M177.585,205.177h-1.813v-0.22c0.039-0.005,0.084-0.011,0.139-0.015c0.056-0.007,0.096-0.019,0.126-0.032
			c0.041-0.021,0.072-0.056,0.089-0.097c0.019-0.042,0.027-0.105,0.027-0.188v-1.411c0-0.205-0.038-0.361-0.113-0.464
			c-0.076-0.104-0.187-0.156-0.334-0.156c-0.08,0-0.157,0.013-0.226,0.037c-0.07,0.025-0.138,0.058-0.204,0.105
			c-0.058,0.041-0.105,0.082-0.141,0.123c-0.037,0.042-0.064,0.081-0.09,0.11v1.623c0,0.068,0.012,0.128,0.031,0.176
			c0.021,0.048,0.054,0.083,0.101,0.108c0.031,0.017,0.071,0.032,0.118,0.046c0.049,0.016,0.097,0.025,0.142,0.033v0.22h-1.835
			v-0.22c0.05-0.005,0.103-0.011,0.154-0.02c0.05-0.004,0.092-0.015,0.13-0.027c0.064-0.021,0.109-0.057,0.133-0.102
			c0.024-0.047,0.035-0.107,0.035-0.183v-1.756c0-0.063-0.015-0.122-0.046-0.184c-0.035-0.062-0.074-0.109-0.128-0.147
			c-0.038-0.024-0.081-0.043-0.138-0.062c-0.058-0.016-0.116-0.027-0.182-0.033v-0.22l1.439-0.079l0.045,0.047v0.437h0.012
			c0.057-0.05,0.124-0.111,0.205-0.181c0.08-0.07,0.154-0.127,0.223-0.175c0.074-0.046,0.172-0.088,0.294-0.122
			c0.118-0.03,0.249-0.052,0.387-0.052c0.327,0,0.572,0.096,0.737,0.28c0.163,0.187,0.245,0.434,0.245,0.741v1.479
			c0,0.075,0.013,0.135,0.033,0.18c0.022,0.043,0.063,0.077,0.124,0.104c0.032,0.012,0.071,0.026,0.119,0.041
			c0.047,0.015,0.1,0.024,0.161,0.032V205.177L177.585,205.177z"/>
	</g>
</g>
<g id="hex_ph">
	<path id="outline_16_" d="M233.996,252.543L265,235.235v-34.681l-31.007-17.309l-31.006,17.309v34.681L233.996,252.543z
		 M205.245,201.879l28.748-16.048l28.751,16.048v32.03l-28.748,16.05l-28.751-16.05V201.879L205.245,201.879z"/>
	<polygon id="background_23_" fill="#777BB3" points="262.744,233.909 262.744,201.879 233.993,185.831 205.244,201.879 
		205.244,233.909 233.996,249.959 	"/>
	<polygon id="background_22_" fill="#9F97B6" points="233.909,192.631 257.166,205.612 257.166,231.522 233.909,244.504 	"/>
	<polygon opacity="0.78" fill="#FFFFFF" enable-background="new    " points="224.65,209.298 224.65,235.564 231.346,235.564 
		231.346,222.451 231.346,214.962 236.495,214.962 236.495,221.144 233.921,221.144 233.921,225.778 243.193,225.778 
		243.193,209.298 	"/>
	<g>
		<path fill="#FFFFFF" d="M231.592,203.683c0,0.423-0.142,0.785-0.426,1.089c-0.283,0.306-0.642,0.458-1.075,0.458
			c-0.192,0-0.35-0.019-0.471-0.06c-0.119-0.037-0.22-0.086-0.298-0.142h-0.024v0.847c0,0.071,0.018,0.133,0.049,0.185
			c0.03,0.051,0.075,0.091,0.13,0.115c0.056,0.021,0.131,0.043,0.232,0.058c0.099,0.021,0.181,0.03,0.248,0.034v0.224h-2.183v-0.224
			c0.05-0.005,0.114-0.011,0.19-0.022c0.075-0.012,0.135-0.023,0.171-0.036c0.064-0.02,0.108-0.058,0.132-0.111
			c0.024-0.053,0.035-0.115,0.035-0.181v-3.089c-0.007-0.066-0.022-0.124-0.046-0.177c-0.027-0.049-0.065-0.093-0.121-0.133
			c-0.04-0.023-0.094-0.046-0.158-0.064c-0.067-0.017-0.132-0.029-0.196-0.032v-0.222l1.473-0.078l0.044,0.039v0.334l0.024,0.008
			c0.133-0.137,0.281-0.242,0.441-0.313c0.162-0.077,0.323-0.112,0.48-0.112c0.416,0,0.744,0.147,0.986,0.44
			C231.471,202.813,231.592,203.199,231.592,203.683z M230.508,203.692c0-0.149-0.01-0.295-0.032-0.433
			c-0.022-0.139-0.061-0.261-0.118-0.368c-0.053-0.109-0.126-0.197-0.214-0.261c-0.089-0.064-0.2-0.099-0.329-0.099
			s-0.232,0.023-0.312,0.069c-0.078,0.047-0.146,0.104-0.205,0.176v1.713c0.013,0.04,0.036,0.091,0.069,0.153
			c0.036,0.063,0.067,0.115,0.104,0.155c0.05,0.054,0.105,0.094,0.171,0.12c0.063,0.027,0.135,0.038,0.212,0.038
			c0.197,0,0.356-0.106,0.477-0.322C230.447,204.422,230.508,204.108,230.508,203.692z"/>
		<path fill="#FFFFFF" d="M235.905,205.15h-1.813v-0.22c0.04-0.006,0.086-0.008,0.14-0.016c0.056-0.007,0.095-0.018,0.121-0.029
			c0.043-0.022,0.071-0.056,0.09-0.098c0.018-0.041,0.027-0.104,0.027-0.188v-1.411c0-0.208-0.04-0.362-0.117-0.465
			c-0.078-0.104-0.188-0.154-0.33-0.154c-0.081,0-0.158,0.012-0.227,0.036c-0.069,0.024-0.137,0.059-0.204,0.104
			c-0.06,0.042-0.104,0.083-0.14,0.125c-0.035,0.04-0.065,0.08-0.089,0.111v1.62c0,0.074,0.011,0.134,0.027,0.176
			c0.017,0.045,0.053,0.082,0.103,0.109c0.031,0.017,0.069,0.033,0.118,0.046c0.051,0.014,0.098,0.025,0.144,0.032v0.22h-1.84v-0.22
			c0.053-0.006,0.104-0.008,0.151-0.016c0.05-0.007,0.095-0.018,0.134-0.029c0.063-0.025,0.108-0.06,0.132-0.104
			c0.022-0.047,0.035-0.105,0.035-0.182v-3.366c0-0.063-0.016-0.13-0.046-0.203c-0.03-0.072-0.073-0.126-0.128-0.164
			c-0.04-0.026-0.098-0.045-0.173-0.062c-0.077-0.015-0.146-0.024-0.206-0.028v-0.221l1.505-0.078l0.044,0.049v2.076h0.012
			c0.075-0.068,0.146-0.129,0.206-0.186c0.061-0.053,0.136-0.11,0.226-0.166c0.072-0.051,0.171-0.09,0.29-0.125
			s0.248-0.05,0.388-0.05c0.324,0,0.569,0.092,0.732,0.28c0.165,0.186,0.246,0.433,0.246,0.738v1.479
			c0,0.073,0.011,0.134,0.033,0.179c0.021,0.045,0.063,0.077,0.123,0.104c0.036,0.018,0.076,0.031,0.121,0.042
			c0.043,0.011,0.098,0.023,0.162,0.03v0.22H235.905z"/>
		<path fill="#FFFFFF" d="M239.858,203.683c0,0.423-0.142,0.785-0.425,1.089c-0.283,0.306-0.644,0.458-1.076,0.458
			c-0.193,0-0.351-0.019-0.471-0.06c-0.121-0.037-0.221-0.086-0.299-0.142h-0.024v0.847c0,0.071,0.016,0.133,0.048,0.185
			c0.03,0.051,0.074,0.091,0.132,0.115c0.055,0.021,0.131,0.043,0.23,0.058c0.098,0.021,0.182,0.03,0.248,0.034v0.224h-2.182v-0.224
			c0.05-0.005,0.114-0.011,0.189-0.022s0.135-0.023,0.173-0.036c0.063-0.02,0.106-0.058,0.132-0.111
			c0.022-0.053,0.033-0.115,0.033-0.181v-3.089c-0.006-0.066-0.021-0.124-0.046-0.177c-0.026-0.049-0.064-0.093-0.119-0.133
			c-0.039-0.023-0.094-0.046-0.16-0.064c-0.066-0.017-0.133-0.029-0.197-0.032v-0.222l1.472-0.078l0.047,0.039v0.334l0.024,0.008
			c0.131-0.137,0.28-0.242,0.441-0.313c0.162-0.077,0.322-0.112,0.48-0.112c0.416,0,0.743,0.147,0.985,0.44
			C239.737,202.813,239.858,203.199,239.858,203.683z M238.774,203.692c0-0.149-0.012-0.295-0.035-0.433
			c-0.019-0.139-0.061-0.261-0.116-0.368c-0.053-0.109-0.126-0.197-0.214-0.261c-0.09-0.064-0.199-0.099-0.327-0.099
			c-0.129,0-0.236,0.023-0.313,0.069c-0.078,0.047-0.146,0.104-0.203,0.176v1.713c0.01,0.04,0.033,0.091,0.067,0.153
			c0.034,0.063,0.067,0.115,0.103,0.155c0.051,0.054,0.107,0.094,0.171,0.12c0.063,0.027,0.135,0.038,0.213,0.038
			c0.197,0,0.355-0.106,0.476-0.322C238.715,204.422,238.774,204.108,238.774,203.692z"/>
	</g>
</g>
<g id="hex_cs">
	<path id="outline_15_" d="M66.468,195.532l31.006-17.311v-34.681l-31.006-17.308L35.46,143.541v34.681L66.468,195.532z
		 M37.717,144.867l28.751-16.05l28.749,16.05v32.031l-28.749,16.048l-28.751-16.048V144.867z"/>
	<polygon id="background_21_" fill="#264DE4" points="95.217,176.898 95.217,144.867 66.468,128.817 37.716,144.867 37.716,176.898 
		66.468,192.946 	"/>
	<polygon id="background_20_" fill="#2965F1" points="66.382,135.618 89.639,148.601 89.639,174.511 66.385,187.492 	"/>
	<polygon id="polygon2993" fill="#EBEBEB" points="55.082,162.582 55.498,167.221 65.877,167.221 65.877,162.582 	"/>
	<polygon id="polygon2995" fill="#EBEBEB" points="54.248,153.193 54.67,157.832 65.877,157.832 65.877,153.193 65.86,153.193 	"/>
	<polygon id="polygon2997" fill="#EBEBEB" points="65.877,174.626 65.855,174.631 60.691,173.237 60.362,169.537 57.852,169.537 
		55.706,169.537 56.354,176.819 65.855,179.458 65.877,179.451 	"/>
	<polygon id="polygon3005" fill="#FFFFFF" points="76.641,162.582 77.478,153.193 65.86,153.193 65.86,157.832 72.395,157.832 
		71.973,162.582 65.86,162.582 65.86,167.221 71.57,167.221 71.033,173.234 65.86,174.628 65.86,179.455 75.368,176.819 
		75.438,176.036 76.527,163.827 	"/>
	<g>
		<path fill="#FFFFFF" d="M62,147.719c-0.314,0-0.607-0.051-0.88-0.152c-0.274-0.102-0.514-0.25-0.716-0.441
			c-0.198-0.19-0.356-0.425-0.472-0.704c-0.114-0.28-0.172-0.586-0.172-0.919c0-0.334,0.058-0.643,0.174-0.925
			c0.117-0.281,0.279-0.527,0.487-0.736c0.205-0.204,0.451-0.36,0.739-0.473c0.287-0.111,0.596-0.165,0.924-0.165
			c0.238,0,0.455,0.026,0.648,0.086c0.196,0.059,0.361,0.123,0.496,0.195l0.186-0.166h0.264l0.027,1.564h-0.267
			c-0.15-0.479-0.33-0.828-0.543-1.053c-0.211-0.225-0.468-0.338-0.771-0.338c-0.378,0-0.664,0.169-0.862,0.503
			c-0.196,0.331-0.297,0.801-0.297,1.403c0,0.339,0.036,0.632,0.104,0.874c0.066,0.239,0.154,0.432,0.264,0.58
			c0.115,0.153,0.254,0.265,0.412,0.338c0.161,0.071,0.336,0.106,0.527,0.106c0.282,0,0.532-0.076,0.751-0.229
			c0.222-0.154,0.422-0.385,0.604-0.695l0.26,0.157c-0.087,0.177-0.184,0.337-0.297,0.476c-0.11,0.139-0.238,0.26-0.383,0.36
			c-0.159,0.111-0.335,0.197-0.526,0.261C62.49,147.688,62.263,147.719,62,147.719z"/>
		<path fill="#FFFFFF" d="M65.971,147.719c-0.261,0-0.504-0.034-0.731-0.099s-0.419-0.143-0.575-0.231l-0.207,0.212h-0.256
			l-0.039-1.549h0.259c0.06,0.147,0.134,0.304,0.224,0.467c0.092,0.163,0.195,0.309,0.313,0.438c0.122,0.136,0.262,0.244,0.412,0.33
			c0.151,0.085,0.331,0.127,0.532,0.127c0.273,0,0.485-0.067,0.63-0.202c0.146-0.134,0.219-0.302,0.219-0.505
			c0-0.165-0.062-0.309-0.186-0.421c-0.124-0.114-0.315-0.211-0.574-0.294c-0.17-0.055-0.324-0.105-0.467-0.15
			c-0.141-0.049-0.274-0.097-0.399-0.146c-0.288-0.113-0.501-0.277-0.641-0.49c-0.141-0.214-0.21-0.453-0.21-0.717
			c0-0.169,0.035-0.327,0.109-0.483c0.071-0.152,0.177-0.293,0.315-0.416c0.132-0.113,0.304-0.207,0.511-0.279
			c0.206-0.073,0.433-0.107,0.676-0.107c0.238,0,0.46,0.03,0.666,0.098c0.209,0.067,0.372,0.134,0.49,0.199l0.184-0.182h0.262
			l0.025,1.46h-0.26c-0.061-0.157-0.133-0.317-0.213-0.481c-0.081-0.165-0.167-0.302-0.257-0.411
			c-0.1-0.117-0.213-0.211-0.343-0.279c-0.128-0.069-0.279-0.104-0.452-0.104c-0.219,0-0.395,0.06-0.531,0.185
			c-0.139,0.122-0.207,0.273-0.207,0.455c0,0.172,0.059,0.312,0.179,0.419c0.12,0.11,0.307,0.205,0.561,0.289
			c0.149,0.05,0.3,0.101,0.455,0.151c0.156,0.05,0.293,0.098,0.414,0.143c0.293,0.115,0.513,0.27,0.666,0.469
			c0.151,0.199,0.228,0.444,0.228,0.74c0,0.183-0.044,0.363-0.13,0.535c-0.088,0.175-0.204,0.317-0.35,0.435
			c-0.16,0.126-0.348,0.223-0.56,0.291C66.5,147.683,66.253,147.719,65.971,147.719z"/>
		<path fill="#FFFFFF" d="M69.983,147.719c-0.262,0-0.505-0.034-0.732-0.099c-0.227-0.064-0.417-0.143-0.575-0.231l-0.209,0.212
			h-0.256l-0.038-1.549h0.259c0.06,0.147,0.132,0.304,0.225,0.467c0.089,0.163,0.194,0.309,0.313,0.438
			c0.121,0.136,0.26,0.244,0.413,0.33c0.15,0.085,0.327,0.127,0.531,0.127c0.274,0,0.483-0.067,0.628-0.202
			c0.147-0.134,0.219-0.302,0.219-0.505c0-0.165-0.06-0.309-0.184-0.421c-0.124-0.114-0.317-0.211-0.575-0.294
			c-0.17-0.055-0.325-0.105-0.466-0.15c-0.143-0.049-0.274-0.097-0.4-0.146c-0.288-0.113-0.501-0.277-0.641-0.49
			c-0.142-0.214-0.212-0.453-0.212-0.717c0-0.169,0.039-0.327,0.11-0.483c0.073-0.152,0.18-0.293,0.317-0.416
			c0.133-0.113,0.304-0.207,0.509-0.279c0.208-0.073,0.434-0.107,0.677-0.107c0.236,0,0.46,0.03,0.667,0.098
			s0.371,0.134,0.488,0.199l0.186-0.182h0.261l0.026,1.46h-0.261c-0.061-0.157-0.13-0.317-0.212-0.481
			c-0.083-0.165-0.167-0.302-0.259-0.411c-0.1-0.117-0.213-0.211-0.34-0.279c-0.129-0.069-0.28-0.104-0.454-0.104
			c-0.218,0-0.395,0.06-0.532,0.185c-0.137,0.122-0.208,0.273-0.208,0.455c0,0.172,0.061,0.312,0.183,0.419
			c0.117,0.11,0.305,0.205,0.558,0.289c0.149,0.05,0.302,0.101,0.456,0.151c0.154,0.05,0.294,0.098,0.413,0.143
			c0.291,0.115,0.515,0.27,0.667,0.469s0.226,0.444,0.226,0.74c0,0.183-0.042,0.363-0.129,0.535
			c-0.085,0.175-0.202,0.317-0.35,0.435c-0.161,0.126-0.348,0.223-0.559,0.291C70.511,147.683,70.266,147.719,69.983,147.719z"/>
	</g>
</g>
<g id="hex_ht">
	<path id="outline_14_" d="M134.051,195.532l31.008-17.311v-34.68l-31.008-17.308l-31.007,17.308v34.68L134.051,195.532z
		 M105.3,144.868l28.751-16.05l28.75,16.05v32.031l-28.75,16.049L105.3,176.899V144.868z"/>
	<polygon id="background_26_" fill="#E44D26" points="162.801,176.899 162.801,144.868 134.051,128.818 105.299,144.868 
		105.299,176.899 134.051,192.948 	"/>
	<polygon id="background_25_" fill="#F16529" points="133.966,135.619 157.222,148.602 157.222,174.512 133.968,187.494 	"/>
	<g>
		<path d="M129.666,148.118h-2.318v-0.236c0.052-0.005,0.127-0.01,0.222-0.018c0.098-0.008,0.164-0.022,0.201-0.036
			c0.073-0.029,0.125-0.069,0.153-0.12c0.029-0.049,0.041-0.111,0.041-0.188v-1.475h-1.828v1.442c0,0.068,0.016,0.128,0.044,0.183
			c0.029,0.055,0.08,0.098,0.15,0.129c0.037,0.015,0.103,0.033,0.195,0.05c0.092,0.019,0.168,0.029,0.224,0.034v0.235h-2.313v-0.235
			c0.052-0.002,0.125-0.01,0.225-0.021c0.096-0.009,0.167-0.021,0.212-0.04c0.072-0.025,0.122-0.065,0.148-0.117
			c0.031-0.055,0.045-0.118,0.045-0.189v-3.029c0-0.072-0.013-0.131-0.038-0.18s-0.077-0.091-0.155-0.126
			c-0.06-0.026-0.137-0.051-0.23-0.071c-0.093-0.021-0.163-0.034-0.205-0.039v-0.232h2.314v0.232
			c-0.063,0.005-0.136,0.016-0.223,0.032c-0.088,0.016-0.152,0.03-0.198,0.044c-0.08,0.026-0.132,0.069-0.156,0.126
			c-0.025,0.056-0.038,0.118-0.038,0.182v1.28h1.828v-1.248c0-0.072-0.012-0.131-0.039-0.18c-0.026-0.049-0.078-0.091-0.155-0.126
			c-0.054-0.024-0.124-0.049-0.21-0.069c-0.088-0.021-0.158-0.034-0.209-0.041v-0.235h2.314v0.235
			c-0.064,0.005-0.137,0.013-0.218,0.026c-0.082,0.014-0.152,0.03-0.219,0.05c-0.074,0.026-0.127,0.067-0.153,0.124
			c-0.026,0.056-0.038,0.117-0.038,0.184v3.034c0,0.071,0.012,0.133,0.038,0.183s0.079,0.093,0.153,0.129
			c0.049,0.019,0.119,0.036,0.21,0.051c0.092,0.018,0.167,0.027,0.227,0.032V148.118L129.666,148.118z"/>
		<path d="M134.061,145.06h-0.234c-0.063-0.181-0.162-0.378-0.299-0.587c-0.139-0.21-0.265-0.322-0.38-0.338
			c-0.065-0.009-0.146-0.015-0.238-0.021c-0.096-0.007-0.176-0.01-0.246-0.01h-0.141v3.358c0,0.071,0.013,0.138,0.04,0.191
			c0.025,0.055,0.074,0.1,0.153,0.13c0.047,0.02,0.117,0.038,0.215,0.059c0.099,0.019,0.182,0.031,0.249,0.04v0.234h-2.387v-0.234
			c0.057-0.007,0.14-0.015,0.246-0.027s0.178-0.022,0.216-0.039c0.078-0.034,0.13-0.077,0.157-0.131s0.04-0.119,0.04-0.192v-3.389
			h-0.143c-0.068,0-0.148,0.003-0.244,0.009c-0.095,0.005-0.174,0.012-0.237,0.02c-0.115,0.018-0.244,0.131-0.382,0.338
			c-0.137,0.21-0.237,0.407-0.3,0.59h-0.234v-1.226h4.149L134.061,145.06L134.061,145.06z"/>
		<path d="M140.193,148.118h-2.322v-0.236c0.071-0.007,0.155-0.016,0.253-0.032c0.101-0.013,0.168-0.028,0.205-0.045
			c0.074-0.029,0.127-0.07,0.159-0.123c0.032-0.051,0.049-0.118,0.049-0.198v-3.199l-1.471,3.763h-0.382
			c-0.019-0.066-0.064-0.198-0.134-0.396c-0.073-0.196-0.129-0.355-0.174-0.474l-1.085-2.942v2.604c0,0.25,0.018,0.438,0.052,0.57
			c0.033,0.127,0.086,0.223,0.159,0.285c0.052,0.041,0.142,0.082,0.271,0.12c0.13,0.037,0.22,0.06,0.272,0.066v0.234h-1.841v-0.234
			c0.051-0.007,0.133-0.021,0.247-0.04c0.112-0.022,0.205-0.061,0.277-0.114c0.08-0.054,0.136-0.149,0.163-0.283
			c0.028-0.135,0.042-0.322,0.042-0.571v-2.121c0-0.13-0.015-0.236-0.048-0.321s-0.08-0.155-0.145-0.204
			c-0.08-0.061-0.164-0.103-0.246-0.12c-0.086-0.02-0.172-0.032-0.257-0.037v-0.235h1.973l1.056,2.822l0.891-2.289
			c0.03-0.085,0.059-0.187,0.086-0.304c0.029-0.116,0.043-0.192,0.045-0.229h1.898v0.235c-0.063,0.005-0.132,0.013-0.203,0.024
			c-0.069,0.013-0.14,0.028-0.202,0.049c-0.078,0.027-0.13,0.066-0.156,0.123c-0.025,0.055-0.036,0.119-0.036,0.188v3.032
			c0,0.073,0.011,0.134,0.036,0.183c0.026,0.05,0.078,0.092,0.156,0.128c0.041,0.02,0.107,0.036,0.198,0.051
			c0.091,0.018,0.162,0.028,0.212,0.035V148.118L140.193,148.118z"/>
		<path d="M144.663,146.745l-0.085,1.373h-3.944v-0.236c0.071-0.007,0.153-0.015,0.247-0.029c0.096-0.013,0.158-0.025,0.188-0.037
			c0.071-0.029,0.122-0.068,0.15-0.118c0.028-0.051,0.041-0.113,0.041-0.192v-3.022c0-0.071-0.01-0.13-0.032-0.178
			c-0.021-0.048-0.074-0.092-0.159-0.129c-0.064-0.028-0.139-0.052-0.225-0.067c-0.088-0.02-0.158-0.032-0.211-0.039v-0.235h2.35
			v0.235c-0.063,0.005-0.14,0.016-0.227,0.026c-0.088,0.013-0.163,0.026-0.229,0.047c-0.076,0.027-0.131,0.066-0.156,0.12
			c-0.026,0.056-0.04,0.119-0.04,0.19v2.814c0,0.134,0.011,0.239,0.028,0.316c0.019,0.074,0.053,0.131,0.104,0.167
			c0.055,0.039,0.125,0.063,0.22,0.075c0.093,0.011,0.223,0.016,0.389,0.016c0.159,0,0.316-0.01,0.47-0.028
			c0.15-0.021,0.261-0.061,0.326-0.127c0.102-0.102,0.207-0.244,0.314-0.432c0.109-0.186,0.195-0.357,0.258-0.51H144.663
			L144.663,146.745z"/>
	</g>
	<polygon id="polygon3032_2_" fill="#EBEBEB" points="127.389,158.55 134.063,158.55 134.063,153.832 134.049,153.832 
		122.23,153.832 122.343,155.097 123.503,168.102 134.063,168.102 134.063,163.384 127.819,163.384 	"/>
	<polygon id="polygon3034_2_" fill="#EBEBEB" points="128.451,170.462 125.898,170.462 123.715,170.462 124.377,177.875 
		134.043,180.559 134.063,180.551 134.063,175.641 134.043,175.645 128.787,174.227 	"/>
	<polygon id="polygon3044_2_" fill="#FFFFFF" points="134.049,168.102 139.859,168.102 139.313,174.224 134.049,175.645 
		134.049,180.553 143.724,177.875 143.796,177.076 144.903,164.651 145.021,163.384 143.748,163.384 134.049,163.384 	"/>
	<polygon id="polygon3046_2_" fill="#FFFFFF" points="134.049,158.54 134.049,158.55 145.434,158.55 145.434,158.55 145.449,158.55 
		145.543,157.487 145.76,155.097 145.872,153.832 134.049,153.832 134.049,156.762 	"/>
</g>
<g id="hex_js">
	<path id="outline_17_" d="M201.636,195.532l31.005-17.307v-34.684l-31.006-17.307l-31.007,17.307v34.684L201.636,195.532z
		 M172.885,144.868l28.75-16.05l28.751,16.05v32.031l-28.75,16.05l-28.751-16.05V144.868z"/>
	<polygon id="background_24_" fill="#E5A228" points="230.386,176.899 230.386,144.868 201.635,128.818 172.883,144.868 
		172.883,176.899 201.636,192.949 	"/>
	<polygon id="background_19_" fill="#F1BF26" points="201.551,135.619 224.806,148.603 224.806,174.513 201.553,187.494 	"/>
	<g>
		<g>
			<polygon fill="none" points="201.551,176.766 206.633,175.208 207.243,169.797 201.563,169.797 201.563,176.74 			"/>
			<polygon fill="#FFFFFF" points="201.563,169.797 207.243,169.797 206.589,175.208 201.551,176.785 201.563,176.74 
				201.563,181.387 201.551,181.404 210.712,178.675 212.014,164.646 201.563,164.646 			"/>
			<polygon fill="#FFFFFF" points="206.916,157.951 207.426,162.545 212.014,162.453 211.279,152.8 201.563,152.8 201.563,157.951 
							"/>
		</g>
		<g>
			<polygon fill="none" points="201.551,176.766 206.633,175.208 207.243,169.797 201.563,169.797 201.563,176.74 			"/>
			<polygon fill="#ECEDEE" points="191.46,169.797 201.563,169.797 201.563,164.646 196.475,164.646 197.088,157.951 
				201.563,157.951 201.563,152.8 193.051,152.8 			"/>
			<polygon fill="#ECEDEE" points="196.563,175.183 196.107,171.856 191.257,171.856 191.996,178.915 201.563,181.387 
				201.563,176.74 			"/>
		</g>
	</g>
	<g>
		<path d="M187.913,146.179c-0.081,0.011-0.149,0.02-0.206,0.031c-0.056,0.01-0.119,0.023-0.188,0.041
			c-0.082,0.022-0.136,0.063-0.16,0.119c-0.022,0.056-0.033,0.12-0.033,0.191v2.364c0,0.216-0.043,0.415-0.133,0.597
			c-0.086,0.179-0.206,0.333-0.358,0.457c-0.156,0.119-0.329,0.211-0.52,0.271c-0.191,0.062-0.396,0.094-0.612,0.094
			c-0.378,0-0.68-0.092-0.911-0.271c-0.231-0.182-0.345-0.43-0.345-0.746c0-0.188,0.053-0.342,0.158-0.466
			c0.105-0.121,0.251-0.183,0.436-0.183c0.175,0,0.315,0.054,0.418,0.154c0.105,0.103,0.156,0.229,0.156,0.379
			c0,0.13-0.045,0.248-0.136,0.36c-0.088,0.108-0.191,0.208-0.305,0.302v0.038c0.019,0.041,0.058,0.075,0.12,0.104
			c0.058,0.029,0.118,0.043,0.183,0.043c0.24,0,0.432-0.088,0.57-0.262c0.139-0.171,0.208-0.435,0.208-0.785v-2.419
			c0-0.071-0.013-0.132-0.034-0.182c-0.021-0.048-0.075-0.092-0.161-0.126c-0.061-0.025-0.134-0.049-0.22-0.066
			c-0.085-0.02-0.158-0.03-0.215-0.04v-0.235h2.288V146.179L187.913,146.179z"/>
		<path d="M191.698,150.162c-0.089,0.039-0.194,0.074-0.313,0.105s-0.248,0.048-0.381,0.048c-0.248,0-0.431-0.036-0.548-0.107
			c-0.115-0.077-0.193-0.181-0.237-0.318h-0.017c-0.068,0.069-0.136,0.129-0.199,0.175c-0.063,0.051-0.13,0.091-0.203,0.123
			c-0.095,0.046-0.186,0.08-0.273,0.101c-0.088,0.022-0.211,0.033-0.366,0.033c-0.236,0-0.435-0.068-0.601-0.206
			c-0.164-0.138-0.247-0.322-0.247-0.548c0-0.132,0.019-0.245,0.054-0.334c0.038-0.092,0.088-0.173,0.154-0.243
			c0.062-0.064,0.132-0.119,0.211-0.16c0.079-0.043,0.167-0.081,0.259-0.12c0.182-0.066,0.401-0.134,0.654-0.205
			c0.254-0.07,0.439-0.137,0.558-0.192v-0.289c0-0.054-0.005-0.119-0.012-0.2c-0.009-0.083-0.027-0.153-0.052-0.208
			c-0.028-0.065-0.072-0.117-0.134-0.162c-0.06-0.045-0.14-0.067-0.237-0.067c-0.089,0-0.165,0.013-0.224,0.038
			c-0.058,0.026-0.106,0.051-0.144,0.077c0.007,0.038,0.024,0.101,0.052,0.184c0.029,0.083,0.042,0.161,0.042,0.238
			c0,0.034-0.006,0.076-0.027,0.128c-0.018,0.05-0.043,0.092-0.077,0.122c-0.047,0.04-0.098,0.073-0.154,0.096
			c-0.06,0.021-0.148,0.031-0.267,0.031c-0.17,0-0.298-0.041-0.385-0.122c-0.087-0.08-0.13-0.188-0.13-0.318
			c0-0.112,0.045-0.213,0.135-0.303c0.089-0.09,0.198-0.163,0.328-0.224c0.126-0.059,0.271-0.106,0.437-0.139
			c0.165-0.033,0.317-0.051,0.46-0.051c0.195,0,0.375,0.011,0.537,0.034c0.163,0.023,0.31,0.07,0.44,0.143
			c0.123,0.072,0.223,0.174,0.297,0.309c0.074,0.134,0.11,0.307,0.11,0.524c0,0.227-0.006,0.495-0.014,0.807
			c-0.008,0.311-0.014,0.519-0.014,0.615c0,0.092,0.014,0.164,0.041,0.216s0.068,0.092,0.126,0.115
			c0.033,0.018,0.087,0.026,0.159,0.031c0.075,0.003,0.141,0.005,0.201,0.005V150.162L191.698,150.162z M190.201,148.59
			c-0.114,0.037-0.226,0.083-0.337,0.133c-0.111,0.047-0.202,0.099-0.273,0.154c-0.074,0.055-0.131,0.129-0.173,0.217
			c-0.046,0.089-0.065,0.189-0.065,0.311c0,0.157,0.035,0.271,0.107,0.342c0.071,0.071,0.161,0.104,0.265,0.104
			c0.111,0,0.203-0.021,0.275-0.068c0.071-0.043,0.135-0.101,0.188-0.167L190.201,148.59z"/>
		<path d="M195.371,147.453c-0.092,0.014-0.178,0.048-0.265,0.102c-0.087,0.056-0.156,0.139-0.214,0.254
			c-0.139,0.292-0.278,0.589-0.414,0.888c-0.135,0.299-0.271,0.587-0.399,0.868c-0.04,0.083-0.087,0.192-0.138,0.325
			c-0.051,0.134-0.095,0.254-0.127,0.363h-0.556c-0.231-0.539-0.43-0.984-0.594-1.336c-0.164-0.356-0.338-0.735-0.521-1.142
			c-0.041-0.095-0.107-0.169-0.197-0.224c-0.089-0.054-0.18-0.087-0.273-0.099v-0.22h1.861v0.22
			c-0.07,0.002-0.149,0.017-0.243,0.045c-0.092,0.029-0.139,0.064-0.139,0.108c0,0.012,0.004,0.03,0.012,0.053
			c0.008,0.024,0.019,0.052,0.031,0.082c0.065,0.153,0.16,0.373,0.291,0.661c0.13,0.286,0.268,0.591,0.414,0.908
			c0.099-0.22,0.196-0.436,0.287-0.645c0.091-0.211,0.203-0.478,0.339-0.804c0.02-0.049,0.028-0.087,0.033-0.117
			c0.003-0.032,0.003-0.052,0.003-0.062c0-0.037-0.017-0.068-0.053-0.097c-0.036-0.024-0.076-0.05-0.126-0.069
			c-0.051-0.02-0.098-0.036-0.145-0.047c-0.046-0.008-0.084-0.016-0.116-0.02v-0.221h1.248V147.453L195.371,147.453z"/>
		<path d="M198.883,150.162c-0.087,0.039-0.193,0.074-0.313,0.105c-0.119,0.031-0.247,0.048-0.381,0.048
			c-0.248,0-0.43-0.036-0.546-0.107c-0.117-0.077-0.195-0.181-0.238-0.318h-0.017c-0.069,0.069-0.135,0.129-0.199,0.175
			c-0.063,0.051-0.129,0.091-0.204,0.123c-0.094,0.046-0.185,0.08-0.272,0.101c-0.088,0.022-0.209,0.033-0.367,0.033
			c-0.233,0-0.434-0.068-0.598-0.206c-0.166-0.138-0.249-0.322-0.249-0.548c0-0.132,0.019-0.245,0.054-0.334
			c0.037-0.092,0.089-0.173,0.155-0.243c0.06-0.064,0.129-0.119,0.209-0.16c0.078-0.043,0.166-0.081,0.261-0.12
			c0.183-0.066,0.399-0.134,0.653-0.205c0.254-0.07,0.439-0.137,0.558-0.192v-0.289c0-0.054-0.004-0.119-0.013-0.2
			c-0.009-0.083-0.026-0.153-0.052-0.208c-0.027-0.065-0.073-0.117-0.132-0.162c-0.062-0.045-0.141-0.067-0.239-0.067
			c-0.087,0-0.162,0.013-0.223,0.038c-0.059,0.026-0.108,0.051-0.143,0.077c0.006,0.038,0.023,0.101,0.051,0.184
			c0.029,0.083,0.044,0.161,0.044,0.238c0,0.034-0.011,0.076-0.027,0.128c-0.021,0.05-0.045,0.092-0.079,0.122
			c-0.047,0.04-0.101,0.073-0.156,0.096c-0.058,0.021-0.146,0.031-0.264,0.031c-0.171,0-0.299-0.041-0.387-0.122
			c-0.086-0.08-0.128-0.188-0.128-0.318c0-0.112,0.043-0.213,0.135-0.303c0.088-0.09,0.198-0.163,0.325-0.224
			c0.126-0.059,0.273-0.106,0.439-0.139c0.163-0.033,0.317-0.051,0.459-0.051c0.195,0,0.374,0.011,0.537,0.034
			c0.162,0.023,0.309,0.07,0.44,0.143c0.123,0.072,0.223,0.174,0.296,0.309c0.076,0.134,0.109,0.307,0.109,0.524
			c0,0.227-0.003,0.495-0.012,0.807c-0.01,0.311-0.014,0.519-0.014,0.615c0,0.092,0.014,0.164,0.039,0.216
			c0.027,0.052,0.071,0.092,0.127,0.115c0.034,0.018,0.087,0.026,0.161,0.031c0.073,0.003,0.141,0.005,0.201,0.005v0.22H198.883z
			 M197.388,148.59c-0.115,0.037-0.227,0.083-0.337,0.133c-0.111,0.047-0.203,0.099-0.272,0.154
			c-0.077,0.055-0.134,0.129-0.177,0.217c-0.042,0.089-0.063,0.189-0.063,0.311c0,0.157,0.036,0.271,0.105,0.342
			c0.072,0.071,0.161,0.104,0.267,0.104c0.11,0,0.203-0.021,0.274-0.068c0.07-0.043,0.135-0.101,0.189-0.167L197.388,148.59z"/>
		<path d="M200.945,150.343c-0.264,0-0.508-0.032-0.732-0.099c-0.227-0.063-0.418-0.142-0.576-0.229l-0.207,0.211h-0.257
			l-0.04-1.548h0.261c0.059,0.146,0.133,0.303,0.224,0.465c0.089,0.164,0.195,0.311,0.313,0.438
			c0.123,0.138,0.261,0.245,0.413,0.331c0.152,0.084,0.328,0.127,0.531,0.127c0.274,0,0.484-0.067,0.63-0.202
			c0.146-0.136,0.218-0.302,0.218-0.505c0-0.166-0.061-0.306-0.184-0.42c-0.124-0.115-0.316-0.215-0.574-0.298
			c-0.17-0.054-0.327-0.104-0.468-0.149c-0.142-0.047-0.277-0.095-0.4-0.143c-0.286-0.113-0.501-0.279-0.641-0.492
			c-0.138-0.215-0.209-0.452-0.209-0.717c0-0.169,0.035-0.327,0.109-0.483c0.072-0.152,0.178-0.291,0.316-0.413
			c0.132-0.116,0.301-0.209,0.51-0.282c0.207-0.073,0.431-0.107,0.675-0.107c0.237,0,0.462,0.03,0.669,0.097
			c0.206,0.068,0.369,0.133,0.487,0.2l0.186-0.181h0.262l0.024,1.459h-0.259c-0.062-0.155-0.132-0.316-0.213-0.479
			c-0.082-0.166-0.167-0.303-0.26-0.412c-0.099-0.116-0.212-0.209-0.341-0.277c-0.13-0.071-0.279-0.106-0.453-0.106
			c-0.217,0-0.395,0.062-0.531,0.185c-0.138,0.123-0.209,0.275-0.209,0.456c0,0.172,0.063,0.31,0.184,0.423
			c0.119,0.105,0.305,0.202,0.56,0.285c0.147,0.052,0.3,0.102,0.455,0.15c0.153,0.051,0.293,0.1,0.412,0.146
			c0.294,0.111,0.514,0.268,0.666,0.467c0.151,0.197,0.229,0.443,0.229,0.738c0,0.186-0.043,0.366-0.131,0.537
			c-0.084,0.175-0.202,0.317-0.349,0.432c-0.163,0.129-0.35,0.226-0.559,0.294C201.475,150.31,201.227,150.343,200.945,150.343z"/>
		<path d="M204.85,150.321c-0.279,0-0.525-0.04-0.741-0.12c-0.214-0.083-0.391-0.192-0.528-0.333
			c-0.14-0.144-0.242-0.313-0.312-0.507c-0.067-0.195-0.103-0.408-0.103-0.639c0-0.209,0.043-0.408,0.126-0.597
			c0.081-0.19,0.196-0.354,0.337-0.497c0.148-0.147,0.332-0.268,0.549-0.354c0.219-0.085,0.461-0.132,0.723-0.132
			c0.372,0,0.661,0.07,0.879,0.211c0.214,0.14,0.321,0.329,0.321,0.566c0,0.146-0.037,0.262-0.114,0.349
			c-0.075,0.09-0.207,0.134-0.396,0.134c-0.151,0-0.276-0.036-0.376-0.109c-0.103-0.072-0.155-0.166-0.155-0.282
			c0-0.1,0.017-0.195,0.048-0.294c0.034-0.095,0.053-0.169,0.057-0.22c-0.02-0.035-0.049-0.063-0.082-0.083
			c-0.036-0.02-0.089-0.028-0.16-0.028c-0.092,0-0.174,0.021-0.248,0.064c-0.075,0.043-0.145,0.115-0.209,0.221
			c-0.062,0.103-0.111,0.237-0.148,0.406c-0.038,0.168-0.055,0.372-0.055,0.608c0,0.359,0.083,0.646,0.251,0.868
			c0.169,0.22,0.369,0.329,0.603,0.329c0.226,0,0.4-0.052,0.532-0.149c0.132-0.101,0.249-0.243,0.352-0.424l0.226,0.156
			c-0.062,0.121-0.138,0.234-0.223,0.337c-0.088,0.101-0.19,0.191-0.311,0.27c-0.128,0.082-0.256,0.144-0.388,0.187
			C205.174,150.303,205.022,150.321,204.85,150.321z"/>
		<path d="M209.415,147.783c0,0.152-0.046,0.287-0.143,0.404c-0.092,0.114-0.216,0.172-0.372,0.172
			c-0.148,0-0.273-0.037-0.375-0.111c-0.101-0.073-0.152-0.181-0.152-0.326c0-0.072,0.006-0.126,0.016-0.162
			c0.01-0.042,0.02-0.077,0.027-0.111c-0.093,0.003-0.189,0.036-0.292,0.097c-0.102,0.059-0.193,0.139-0.271,0.239v1.656
			c0,0.07,0.01,0.128,0.032,0.176c0.023,0.045,0.058,0.082,0.111,0.107c0.045,0.022,0.115,0.042,0.215,0.056
			c0.101,0.016,0.173,0.024,0.216,0.027v0.219h-2.018v-0.221c0.05-0.003,0.1-0.01,0.152-0.017c0.052-0.007,0.095-0.017,0.132-0.029
			c0.065-0.021,0.108-0.055,0.132-0.102c0.024-0.047,0.035-0.107,0.035-0.181v-1.759c0-0.072-0.016-0.137-0.049-0.192
			c-0.036-0.057-0.077-0.103-0.123-0.139c-0.039-0.023-0.084-0.044-0.14-0.06c-0.056-0.015-0.116-0.026-0.181-0.033v-0.22
			l1.438-0.078l0.047,0.045v0.438h0.012c0.139-0.161,0.286-0.288,0.441-0.379s0.317-0.137,0.486-0.137
			c0.188,0,0.338,0.057,0.453,0.173C209.358,147.453,209.415,147.601,209.415,147.783z"/>
		<path d="M211.531,150.226h-1.906v-0.221c0.051-0.003,0.102-0.009,0.152-0.017c0.051-0.003,0.095-0.015,0.129-0.029
			c0.065-0.022,0.111-0.058,0.138-0.104c0.024-0.046,0.041-0.105,0.041-0.179v-1.759c0-0.068-0.019-0.131-0.05-0.184
			c-0.033-0.052-0.073-0.097-0.121-0.128c-0.037-0.025-0.093-0.048-0.166-0.069c-0.072-0.022-0.139-0.036-0.201-0.043v-0.22
			l1.479-0.078l0.047,0.045v2.396c0,0.071,0.015,0.13,0.045,0.181c0.029,0.048,0.071,0.084,0.13,0.109
			c0.04,0.019,0.084,0.033,0.133,0.047c0.048,0.015,0.098,0.026,0.15,0.033V150.226L211.531,150.226z M211.09,146.11
			c0,0.151-0.059,0.282-0.177,0.391c-0.117,0.105-0.255,0.161-0.418,0.161c-0.162,0-0.302-0.056-0.421-0.161
			c-0.116-0.108-0.177-0.239-0.177-0.391c0-0.155,0.061-0.283,0.177-0.394c0.119-0.109,0.259-0.163,0.421-0.163
			c0.163,0,0.303,0.054,0.42,0.163C211.031,145.827,211.09,145.955,211.09,146.11z"/>
		<path d="M215.485,148.755c0,0.426-0.142,0.79-0.428,1.092c-0.279,0.306-0.641,0.458-1.074,0.458c-0.193,0-0.35-0.021-0.471-0.061
			c-0.121-0.036-0.22-0.087-0.298-0.143h-0.024v0.85c0,0.068,0.016,0.13,0.047,0.182c0.032,0.053,0.074,0.092,0.131,0.116
			c0.056,0.021,0.132,0.043,0.231,0.06c0.099,0.019,0.182,0.029,0.249,0.032v0.224h-2.183v-0.224
			c0.051-0.003,0.115-0.011,0.19-0.022c0.076-0.012,0.136-0.021,0.172-0.034c0.063-0.021,0.107-0.06,0.131-0.112
			c0.023-0.055,0.035-0.114,0.035-0.184v-3.087c-0.005-0.067-0.022-0.124-0.047-0.176c-0.024-0.051-0.064-0.094-0.119-0.133
			c-0.04-0.026-0.094-0.048-0.159-0.064c-0.067-0.016-0.133-0.027-0.196-0.034v-0.22l1.472-0.078l0.046,0.039v0.334l0.024,0.008
			c0.133-0.137,0.28-0.241,0.441-0.316c0.16-0.072,0.321-0.111,0.481-0.111c0.415,0,0.743,0.146,0.984,0.442
			C215.363,147.887,215.485,148.275,215.485,148.755z M214.401,148.768c0-0.151-0.011-0.294-0.033-0.435
			c-0.021-0.137-0.062-0.26-0.118-0.368c-0.054-0.107-0.126-0.192-0.214-0.259c-0.091-0.064-0.2-0.096-0.327-0.096
			c-0.131,0-0.235,0.021-0.314,0.066c-0.077,0.044-0.146,0.104-0.204,0.176v1.712c0.012,0.04,0.036,0.091,0.071,0.155
			c0.032,0.063,0.067,0.114,0.102,0.153c0.051,0.053,0.106,0.094,0.173,0.119c0.063,0.026,0.134,0.039,0.209,0.039
			c0.199,0,0.357-0.105,0.477-0.32C214.343,149.497,214.401,149.183,214.401,148.768z"/>
		<path d="M218.119,150.088c-0.129,0.054-0.267,0.106-0.414,0.15c-0.146,0.045-0.325,0.068-0.538,0.068
			c-0.313,0-0.545-0.077-0.697-0.229c-0.15-0.152-0.228-0.37-0.228-0.654v-1.851h-0.543v-0.329h0.556v-0.914h0.977v0.914h0.848
			v0.329h-0.844v1.651c0,0.234,0.035,0.401,0.102,0.5c0.065,0.098,0.181,0.148,0.352,0.148c0.055,0,0.131-0.004,0.229-0.013
			c0.095-0.008,0.162-0.018,0.202-0.028V150.088L218.119,150.088z"/>
	</g>
</g>
<g id="hex_wp">
	<path d="M134.207,81.269l31.167-17.398V29.01l-31.168-17.398L103.039,29.01v34.86L134.207,81.269z M105.308,30.34
		l28.898-16.131l28.899,16.131v32.197L134.207,78.67l-28.899-16.133V30.34z"/>
	<polygon fill="#FFFFFF" points="163.105,62.539 163.105,30.342 134.206,14.209 105.307,30.342 105.307,62.539 
		134.207,78.67 	"/>
	<path fill="#464646" d="M125.422,48.161c-2.01-5.966-3.653-10.958-3.652-11.093
		c0-0.141,0.521-0.289,1.212-0.347c1.422-0.118,2.089-0.594,1.622-1.155c-0.256-0.309-0.723-0.333-3.853-0.196
		c-1.959,0.083-3.561,0.083-3.561-0.004c0-0.375,1.4-2.103,2.873-3.546c3.769-3.695,8.798-5.735,14.138-5.735
		c2.417,0,4.223,0.305,6.729,1.136c2.031,0.674,5.202,2.459,6.417,3.612l0.604,0.575l-0.959,0.279
		c-1.221,0.356-2.215,1.371-2.516,2.565c-0.313,1.247,0.069,2.5,1.503,4.914c2.555,4.302,2.57,6.008,0.132,14.044
		c-0.907,2.986-1.698,5.478-1.759,5.538c-0.059,0.059-0.158-0.026-0.22-0.194c-0.333-0.923-7.314-21.636-7.314-21.705
		c0-0.043,0.418-0.091,0.928-0.102c1.508-0.037,2.016-0.254,2.016-0.859v-0.535l-5.937-0.01c-4.659-0.009-5.96,0.049-6.044,0.271
		c-0.223,0.577,0.149,0.917,1.151,1.049c0.559,0.073,1.154,0.151,1.323,0.174c0.187,0.025,0.931,1.731,1.911,4.392l1.603,4.351
		l-2.233,6.717c-1.23,3.695-2.287,6.717-2.349,6.715S127.433,54.128,125.422,48.161L125.422,48.161z M144.233,63.972
		c0-0.029,1.488-4.323,3.305-9.539c4.084-11.719,4.358-12.704,4.373-15.688c0.009-1.988,0.048-2.224,0.312-1.865
		c0.512,0.702,1.552,3.626,1.915,5.387c0.396,1.924,0.455,5.803,0.117,7.711c-0.752,4.243-3.032,8.456-6.129,11.323
		C146.464,62.838,144.233,64.37,144.233,63.972z M123.297,63.634c-4.829-3.098-8.158-8.067-9.148-13.657
		c-0.359-2.03-0.274-5.656,0.188-7.891c0.394-1.909,1.22-4.189,1.438-3.972c0.092,0.094,9.703,26.343,9.703,26.504
		C125.478,64.885,124.692,64.53,123.297,63.634z M131.483,66.616c-2.256-0.29-3.229-0.592-3.089-0.958
		c0.065-0.17,1.409-4.064,2.986-8.656c1.576-4.591,2.947-8.495,3.047-8.674c0.14-0.257,0.234-0.186,0.43,0.325
		c0.972,2.541,6.104,16.731,6.104,16.88c0,0.45-4.989,1.371-7.082,1.304C133.397,66.822,132.319,66.723,131.483,66.616z
		 M138.016,68.495c11.369-1.982,19.72-12.935,18.451-24.201c-0.636-5.649-2.675-9.823-6.77-13.85
		c-4.288-4.217-9.508-6.358-15.496-6.358c-4.136,0-7.999,1.071-11.599,3.22c-2.24,1.336-5.643,4.624-7.047,6.811
		c-5.277,8.218-4.936,18.083,0.897,25.842C121.42,66.566,129.878,69.914,138.016,68.495L138.016,68.495z M129.983,69.803
		c-4.826-0.913-9.031-3.117-12.469-6.539c-9.159-9.121-9.364-23.827-0.461-33.2c3.4-3.583,7.813-6.011,12.557-6.91
		c2.348-0.445,6.836-0.445,9.182,0c8.617,1.635,15.735,8.176,18.18,16.709c3.236,11.294-2.167,23.113-12.858,28.124
		c-2.968,1.39-5.534,1.961-9.258,2.057C132.661,70.1,131.169,70.027,129.983,69.803z"/>
</g>
</svg>
